<?xml version="1.0" standalone="no"?>
<!DOCTYPE svg PUBLIC "-//W3C//DTD SVG 1.1//EN" "http://www.w3.org/Graphics/SVG/1.1/DTD/svg11.dtd">
<svg xmlns="http://www.w3.org/2000/svg">
<metadata>Generated by Fontastic.me</metadata>
<defs>
<font id="inmoment" horiz-adv-x="512">
<font-face font-family="inmoment" units-per-em="512" ascent="480" descent="-32"/>
<missing-glyph horiz-adv-x="512" />

<glyph glyph-name="arrow-left" unicode="&#97;" d="M200 112l-126 126 428 0 0 39-426 0 125 126-29 26-172-171 172-172z"/>
<glyph glyph-name="arrow-right" unicode="&#98;" d="M304 397l122-122-416 0 0-38 414 0-120-122 27-27 167 168-168 166z"/>
<glyph glyph-name="double-arrow" unicode="&#99;" d="M330 63l148 187 0 6-148 188-68-40 108-154-108-148z m-211 0l148 187 0 6-148 188-73-40 108-154-108-148z"/>
<glyph glyph-name="dropdown-tiny" unicode="&#100;" d="M22 366l468 0-234-234z"/>
<glyph glyph-name="google" unicode="&#101;" d="M108 128c-26 0-45-6-65-11-29 39-43 88-43 139 0 6 0 9 0 14 11-42 51-74 108-74l14 0c-3-8-8-17-8-28 0-17 8-29 20-40z m-60 174c-5 48 17 88 57 85 37 0 74-40 80-91 6-51-20-88-57-88-37 2-74 45-80 94z m171-265c0-11-3-23-6-31-62 11-119 45-156 94 17 8 43 14 65 14 15 0 26-3 37-6 32-20 51-31 57-57 3-5 3-11 3-14z m37 475c142 0 256-114 256-256 0-142-114-256-256-256l-11 0c8 14 11 28 11 43 0 42-14 68-51 94-14 8-37 31-37 45 0 14 3 23 28 43 26 20 40 45 40 77 0 36-17 71-45 85l45 0 31 23-145 0c-37-3-74-17-96-43 39 85 128 145 230 145z m193-191l0 32-65 0 0 62-31 0 0-65-66 0 0-31 66 0 0-63 31 0 0 65z"/>
<glyph glyph-name="linkedin" unicode="&#102;" d="M11 330l108 0 0-330-108 0z m171-330l0 256-3 74 105 0 3-46c26 37 57 57 97 57 37 0 68-14 94-39 23-26 34-63 34-111l0-191-108 0 0 182c0 26-6 43-17 57-9 11-23 17-40 17-17 0-31-6-43-17-11-11-17-26-17-48l0-191z m-119 384c-17 0-35 6-46 17-11 11-17 26-17 43 0 17 6 31 17 40 11 8 29 17 46 17 19 0 34-6 45-17 11-12 17-26 17-43 0-17-6-31-17-43-11-11-26-14-45-14z"/>
<glyph glyph-name="twitter" unicode="&#103;" d="M512 421c-14-23-31-40-51-54l0-14c0-29-3-57-12-86-8-28-19-54-37-79-17-26-37-49-59-69-23-19-51-34-83-48-31-11-68-17-105-17-63 0-117 14-162 43 8 0 17-3 25-3 46 0 89 17 131 51-22 0-42 9-59 20-23 14-35 31-43 51 6 0 14-3 20-3 8 0 20 0 28 3-25 9-45 20-59 40-18 17-26 40-26 65 14-8 31-11 48-14-31 23-45 54-45 91 0 17 5 34 14 51 26-31 60-56 97-76 37-20 74-32 119-32-3 6-3 15-3 23 0 29 12 54 32 74 20 20 45 31 74 31 31 0 56-11 76-34 23 6 46 14 66 26-9-26-23-46-46-57 20 3 40 8 60 17z"/>
<glyph glyph-name="phone" unicode="&#104;" d="M397 171c-4 4-9 8-13 8-9 0-13 0-21-4l-13-4 72-124 13 8c4 5 13 9 13 18 0 4 0 12-4 17z m-171 59c-30 47-34 86-43 111l35 22-69 123c-17-12-38-29-47-64-17-55-4-136 52-234 55-98 119-145 175-158 34-9 59-4 76 8l-68 124-34-21c-17 17-51 42-77 89z m-17 265c-4 4-8 8-13 8-8 0-13 0-21-4l-13-4 73-124 12 9c5 4 9 8 13 17 0 4 0 13-4 17z"/>
<glyph glyph-name="listen" unicode="&#105;" d="M197 263c24 46 15 73 6 91-20 40-54 44-68 44-62 0-62-60-62-62 0 0 0 0 0-1 0-1 0-1 0-3 25-4 59-22 60-22 16-9 25-19 28-32 4-22-10-41-13-44-19-28-57-64-59-67-1-2-4-3-6-3-3 0-4 1-5 3-3 3-3 9 0 13 0 0 38 37 55 64 0 0 0 0 0 2 0 0 12 14 9 29-2 7-7 15-18 20 0 0-27 15-48 20 9-31 37-56 37-56 4-3 4-9 0-13-2-3-5-5-8-5-1 0-4 2-6 3-1 2-49 46-45 92 0 5 2 37 24 59 14 15 33 20 57 20 13 0 58-4 84-54 17-32 15-67-5-106-3-5-8-6-12-5-5 3-7 9-5 13z m156 59c-3-3-3-6 0-9 14-15 21-35 21-56 0-20-7-40-21-55-2-2-2-3-2-5 0-1 0-2 2-4 2-3 5-3 8 0 16 18 27 40 27 63 0 23-9 47-25 63-5 4-9 4-10 3z m-224 167c-59-8-95-31-119-79-3-6-9-22-10-37 0-4 3-9 9-10 4 0 9 3 10 9 0 13 7 26 9 30 20 43 50 63 104 69 52 6 102-13 133-50 29-36 36-86 20-136-7-22-22-44-36-64-9-13-19-28-28-43-9-17-16-33-22-51-15-39-26-73-69-80-6-2-12-2-17-2-31 0-53 16-62 31-7 10-13 29-13 44 0 4-3 9-9 10-4 0-9-3-10-9-1-20 7-43 16-55 13-19 40-38 78-38 7 0 14 1 22 1 52 10 67 53 82 92 5 17 11 33 20 49 7 13 18 27 26 41 15 22 31 44 40 68 17 56 9 112-25 153-34 42-91 64-149 57z m273-132c-3-2-3-6 0-9 22-25 34-57 34-91 0-33-12-65-34-90-1-2-1-3-1-5 0-1 0-3 1-4 3-1 6-1 9 0 23 28 37 63 37 98 0 37-14 70-37 98-1 4-6 4-9 3z m59 35c-2 3-6 3-9 2-3-2-3-6-1-9 29-37 43-79 43-126 0-47-16-89-43-126-2-1-2-3-2-4 0-2 2-3 3-5 3-1 6-1 9 2 31 38 47 85 47 133 0 48-16 94-47 133z"/>
<glyph glyph-name="share" unicode="&#106;" d="M467 290c-13 0-22 9-22 22 0 13 9 22 22 22 13 0 23-9 23-22 0-11-12-22-23-22m-211-108c-42 0-74 34-74 74 0 40 34 74 74 74 40 0 74-34 74-74 0-40-32-74-74-74m-109-160c-22 0-40 18-40 40 0 23 18 40 40 40 23 0 40-17 40-40 0-22-17-40-40-40m-67 354c-32 0-58 26-58 56 0 30 26 58 58 58 32 0 58-26 58-58 0-32-28-56-58-56m387-18c-25 0-45-20-45-44l-75-21c-16 35-51 59-91 59-22 0-43-8-59-21l-53 53c10 14 16 30 16 48 0 43-35 80-80 80-45 0-80-35-80-80 0-43 35-80 80-80 18 0 34 6 48 16l53-53c-13-16-21-37-21-59 0-32 16-61 40-78l-32-56c-6 1-13 3-19 3-35 0-63-27-63-63 0-35 28-62 63-62 35 0 62 27 62 62 0 20-9 37-22 48l32 56c11-4 24-8 37-8 52 0 96 44 96 96 0 5 0 10-2 15l75 21c8-15 23-24 40-24 26 0 45 20 45 44 0 28-21 48-45 48"/>
<glyph glyph-name="understand" unicode="&#107;" d="M248 424l0 80c0 5 4 8 8 8 5 0 8-4 8-8l0-79c0-5-4-8-8-8-5-1-8 2-8 7z m-88-25c3 0 4 2 5 3 3 2 3 8 0 11l-55 57c-4 2-8 2-11 0-3-4-3-8 0-12l56-56c1-1 2-3 5-3z m209-119c0-30-16-65-31-97-13-29-26-56-26-78l0-64c0-1 0-3-1-4l-15-32c-3-4-4-5-8-5l-64 0c-3 0-5 3-8 5l-16 32c-2 1-2 1-2 4l0 64c0 22-11 50-25 79-16 34-31 67-31 98 0 61 51 112 111 112 64-2 116-54 116-114z m-77-248l-71 0 8-17 55 0z m4 32l-80 0 0-17 81 0 0 17z m0 32l-80 0 0-17 81 0 0 17z m56 184c0 52-45 96-96 96-51 0-96-44-96-96 0-27 14-59 28-91 13-26 24-53 27-78l82 0c3 23 14 49 27 77 14 32 28 64 28 92z m61 190c-3 2-7 2-11 0l-56-57c-3-3-3-7 0-11 1-1 3-3 5-3 1 0 4 2 5 3l56 56c5 4 5 8 1 12z m-157-118c-40 0-72-32-72-72 0-5 4-7 8-7 5 0 8 3 8 7 0 31 24 57 56 57 5 0 8 3 8 7 0 4-3 8-8 8z"/>
<glyph glyph-name="ecommerce" unicode="&#108;" d="M183 113c-20 0-37-16-37-37 0-20 17-36 37-36 20 0 36 16 36 36 0 21-16 37-36 37z m0-53c-9 0-17 7-17 16 0 9 8 17 17 17 9 0 16-8 16-17 0-8-7-16-16-16z m190 53c-20 0-36-16-36-37 0-20 16-36 36-36 20 0 37 16 37 36 0 21-17 37-37 37z m0-53c-9 0-16 7-16 16 0 9 7 17 16 17 9 0 17-8 17-17 0-8-8-16-17-16z m50 105l-260 0-75 299c-1 5-5 8-9 8l-68 0c-6 0-10-5-10-10 0-6 4-10 10-10l60 0 74-299c1-5 5-8 10-8l268 0c5 0 10 5 10 10 0 6-5 10-10 10z m86 253c-2 2-4 4-8 4l-355 0c-5 0-10-5-10-10 0-6 5-11 10-11l67 0-39-168c0-3 0-5 2-8 1-2 3-4 6-4 2-1 4 0 6 0 1 0 2 0 4 0l268 0c5-1 9 3 10 7l41 181c1 3 0 6-2 9z m-220-177l37 160 71 0-37-160z m16 160l-37-160-71 0 36 160z m147-160l-71 0 37 160 71 0z"/>
<glyph glyph-name="email" unicode="&#109;" d="M500 79l-488 0c-7 0-12 6-12 12l0 269c0 6 5 12 12 12 7 0 12-6 12-12l0-256 464 0 0 304-442 0 210-176 188 157c4 3 8 4 13 3 4-2 7-5 8-10 0-4-2-9-5-11l-197-164c-4-4-11-4-15 0l-244 204c-4 4-5 9-3 14 1 5 6 8 11 8l488 0c7 0 12-6 12-12l0-330c0-6-5-12-12-12z"/>
<glyph glyph-name="computer" unicode="&#110;" d="M370 64l0-9c0-6-4-10-10-10l-208 0c-6 0-10 4-10 10l0 9c0 5 4 9 10 9 11 0 36 3 36 28 0 5 4 10 9 10 6 0 10-5 10-10 0-15-7-29-19-37l136 0c-12 8-20 22-19 37 0 5 4 10 9 10 6 0 10-5 10-10 0-25 25-28 36-28 3 0 5-1 7-2 2-2 3-5 3-7z m142 374l0-294c0-15-13-28-28-28l-456 0c-15 0-28 13-28 28l0 294c0 16 13 29 28 29l456 0c7 0 14-3 20-9 5-5 8-12 8-20z m-19 0c0 6-4 10-9 10l-456 0c-5 0-9-4-9-10l0-294c0-5 4-9 9-9l456 0c5 0 9 4 9 9z m-28-9l-418 0c-5 0-9-4-9-10 0-5 4-9 9-9l408 0 0-19-408 0c-5 0-9-4-9-9l0-219c0-5 4-9 9-9l418 0c5 0 9 4 9 9l0 190c0 5-4 10-9 10-6 0-10-5-10-10l0-180-398 0 0 199 408 0c5 0 9 4 9 10l0 37c0 6-4 10-9 10z"/>
<glyph glyph-name="text-message" unicode="&#111;" d="M208 263c0-17 14-31 31-31 18 0 32 14 31 31 0 18-14 32-31 32-8 0-16-4-22-10-6-6-9-14-9-22z m48 0c0-9-8-17-17-17-9 0-17 8-17 17 0 10 8 17 17 17 5 0 9-2 12-5 3-3 5-7 5-12z m51 0c0-17 14-31 31-31 18 0 32 14 32 31-1 18-15 32-32 32-8 0-16-4-22-10-6-6-9-14-9-22z m48 0c0-9-8-17-17-17-9 0-17 8-17 17 0 10 8 17 17 17 5 0 9-2 12-5 3-3 5-7 5-12z m-246 0c0-17 14-31 31-31 18 0 32 14 31 31 0 18-14 32-31 32-8 0-16-4-22-10-6-6-9-14-9-22z m48 0c0-9-8-17-17-17-9 0-17 8-17 17 0 10 8 17 17 17 5 0 9-2 12-5 3-3 5-7 5-12z m355-163c0-5-4-10-10-10-37 0-53 14-76 35l-4 3c-3 2-4 6-3 9 0 4 3 7 6 8 4 1 7 0 10-3l3-3c13-11 22-18 32-23-6 17-6 39-6 51l0 145c0 50-41 90-90 90l-265 0c-49 0-90-40-90-90l0-100c0-50 41-90 90-90l235 0c19 0 27 4 44 13 4 2 10 0 13-5 2-5 0-10-5-13-17-8-29-14-52-14l-235 0c-60 0-109 49-109 109l0 100c0 61 49 109 109 110l265 0c60-1 109-49 109-110l0-144c0-39 7-58 19-58 6 0 10-5 10-10z"/>
<glyph glyph-name="social-media" unicode="&#112;" d="M256 512c-141 0-256-115-256-256 0-141 115-256 256-256 141 0 256 115 256 256 0 141-115 256-256 256z m0-491c-130 0-235 105-235 235 0 130 105 235 235 235 130 0 235-105 235-235 0-130-105-235-235-235z m213 246l-56 0c-1 33-7 67-18 99 15 3 28 7 42 11 6 2 8 8 7 13-2 6-8 9-14 7-13-4-27-8-42-11-14 32-33 60-58 84-4 5-11 4-15 0-5-4-4-11 0-15 22-21 39-45 51-73-33-6-66-9-99-10l0 97c0 6-5 11-11 11-6 0-11-5-11-11l0-97c-33 1-66 4-99 10 11 28 29 52 51 73 4 4 5 11 0 15-4 4-10 5-15 0-25-24-44-52-57-84-15 3-30 7-43 12-6 1-12-1-13-7-2-6 1-12 7-13 13-5 27-8 41-12-11-32-17-65-18-99l-56 0c-6 0-11-5-11-10 0-6 5-11 11-11l56 0c1-34 7-67 18-99-15-4-28-7-42-12-6-1-8-8-7-13 2-6 8-8 14-7 13 4 27 8 42 12 14-32 33-61 58-84 4-5 11-4 15 0 4 4 4 11-1 15-22 21-39 45-51 73 33 6 66 9 100 10l0-98c0-6 5-11 10-11 6 0 11 5 11 11l0 97c34-1 67-4 100-10-12-28-29-52-51-73-5-4-5-11-1-15 4-4 11-5 15 0 25 24 45 52 58 84 15-3 28-7 42-11 6-2 12 1 14 7 1 5-1 11-7 13-14 4-27 8-42 11 11 32 17 66 18 99l57 0c6 0 11 5 11 11 0 6-5 11-11 11z m-331 95c35-7 71-11 107-11l0-84-125 0c1 32 7 64 18 95z m107-201c-36 0-72-4-107-11-11 31-17 63-18 95l125 0z m129-11c-35 7-71 11-107 11l0 84 126 0c-2-32-8-64-19-95z m-107 117l0 84c36 0 72 4 107 11 11-31 17-63 18-95z"/>
<glyph glyph-name="point-of-sale" unicode="&#113;" d="M502 20c-6 0-10 5-10 11l0 82-472 0 0-82c0-6-4-11-10-11-5 0-10 5-10 11l0 92c0 6 5 10 10 10l492 0c5 0 10-4 10-10l0-92c0-6-5-11-10-11z m-35 41c0 19-15 35-34 35-19 0-34-16-34-35 0-19 15-34 34-34 19 0 34 16 34 34z m-17 0c0-9-8-16-17-16-9 0-17 7-17 16 0 10 8 17 17 17 9 0 17-7 17-17z m-10 103l0 317c0 6-4 11-10 11l-348 0c-6 0-10-5-10-11l0-317c0-6 4-10 10-10 6 0 10 4 10 10l0 307 328 0 0-307c0-6 4-10 10-10 6 0 10 4 10 10z m-51 256c0 5-4 10-10 10l-246 0c-6 0-10-5-10-10 0-6 4-10 10-10l246 0c6 0 10 4 10 10z m-133-123c0 6-5 10-10 10l-113 0c-6 0-10-4-10-10 0-6 4-10 10-10l113 0c5 0 10 4 10 10z m133 0c0 6-4 10-10 10l-41 0c-6 0-10-4-10-10 0-6 4-10 10-10l41 0c6 0 10 4 10 10z m-164-51c0 5-4 10-10 10l-82 0c-6 0-10-5-10-10 0-6 4-10 10-10l82 0c6 0 10 4 10 10z m164 0c0 5-4 10-10 10l-41 0c-6 0-10-5-10-10 0-6 4-10 10-10l41 0c6 0 10 4 10 10z m-143-51c0 5-5 10-10 10l-103 0c-6 0-10-5-10-10 0-6 4-11 10-11l103 0c5 0 10 5 10 11z m143 0c0 5-4 10-10 10l-41 0c-6 0-10-5-10-10 0-6 4-11 10-11l41 0c6 0 10 5 10 11z m-20 174c0 5-5 10-11 10l-204 0c-6 0-11-5-11-10 0-6 5-11 11-11l204 0c6 0 11 5 11 11z"/>
<glyph glyph-name="outbound-dial" unicode="&#114;" d="M227 492c-96-1-178-68-198-161-1-6-6-10-12-9-6 1-9 7-8 13 22 103 112 177 218 177l4 0c106-1 197-75 218-178 1-6-3-11-9-12-5-1-10 2-11 8-19 94-102 162-198 162z m217-308c-6 0-10-5-10-10 0-76-62-139-138-139-6 9-19 15-37 15l-15 0c-23 0-39-11-39-25 0-14 16-25 39-25l15 0c18 0 31 6 37 15 87 0 157 71 158 159 0 5-5 10-10 10z m-28 128l-9 0c-5 0-10-5-10-10l0-155c0-6 5-10 10-10l5 0c6 0 11 4 11 10 0 4-2 7-6 9l0 135c37 0 67-31 66-68 0-17-7-33-19-46-4-4-4-10 0-14 4-4 11-4 14 0 34 35 34 90-1 124-16 16-38 25-61 25z"/>
<glyph glyph-name="inbound" unicode="&#115;" d="M441 253c-12 0-23-11-23-24 0-13 11-23 23-23 13 0 23 10 23 23 1 13-10 24-23 24z m13-24c0-6-6-12-13-12-6 0-12 6-12 13 0 6 6 12 13 12 6 0 12-6 12-13z m58 239l0-353c0-5-4-9-9-9l-273 0c-5 0-9 4-9 9 0 4 4 8 9 8l264 0 0 336-212 0c-4 0-8 4-8 9 0 4 4 8 8 8l221 0c5 0 9-4 9-8z m-415-353l0 353c0 4 4 8 9 8l18 0c4 0 8-4 8-8 0-5-4-9-8-9l-9 0 0-336 62 0c4 0 8-4 8-8 0-5-4-9-8-9l-71 0c-5 0-9 4-9 9z m115 44l0-71c0-1 0-1-1-2 0-1 1-1 1-2l0-1c0-41-47-74-105-74l-2 0c-58 0-105 33-105 74l0 2c0 34 33 64 79 72 5 1 10-2 11-7 0-5-3-9-7-10-39-7-65-30-65-55l0-2c0-31 39-57 87-57l2 0c48 0 87 26 87 57l0 1c0 1 0 1 1 2 0 1-1 1-1 2l0 71c0 5 4 9 9 9 5 0 9-4 9-9z m-71 17l0 292c0 19 16 35 35 35l54 0c19 0 35-16 35-35l0-292c0-19-16-35-35-35-5 0-9 4-9 9 0 5 4 9 9 9 10 0 17 8 17 17l0 292c0 9-7 17-17 17 0 0 0 0 0 0l-54 0c-9 0-17-7-17-17 0 0 0 0 0 0l0-292c0-9 7-17 17-17 0 0 0 0 1 0 4 0 8-4 8-9 0-5-4-9-8-9-20 0-36 16-36 35z m177 138c-13 0-24-10-24-23 0-13 11-23 24-23 13 0 23 10 23 23 0 13-10 23-23 23z m12-23c0-7-5-12-12-12-7 0-12 5-12 13 0 6 5 11 12 11 6 0 12-5 12-12z m147 44l0 97c0 5-4 9-9 9l-177 0c-5 0-9-4-9-9l0-97c0-5 4-9 9-9l177 0c5 0 9 4 9 9z m-18 9l-159 0 0 80 159 0z m-141-91c-13 0-24-11-24-24 0-13 11-23 24-23 13 0 23 10 23 23 0 13-10 24-23 24z m12-24c0-6-5-12-12-12-7 0-12 6-12 13 0 6 5 12 12 12 6 0 12-6 12-13z m50 24c-13 0-24-11-24-24 0-13 11-23 24-23 12 0 23 10 23 23 0 13-11 24-23 24z m12-24c0-6-5-12-12-12-7 0-12 6-12 13 0 6 5 12 12 12 6 0 12-6 12-13z m-12-38c-13 0-23-11-23-23 0-13 10-23 23-23 13 0 23 10 23 23 0 12-11 23-23 23z m12-23c0 0 0 0 0 0 0-7-5-12-12-12-7 0-12 5-12 12 0 7 5 12 12 12 6 0 12-5 12-12z m-74 23c-13 0-23-11-23-23 0-13 10-23 23-23 13 0 23 10 23 23 0 12-10 23-23 23z m12-23c0 0 0 0 0 0 0-7-5-12-12-12-7 0-12 5-12 12 0 7 5 12 12 12 6 0 12-5 12-12z m111 146c-12 0-23-10-23-23 0-13 11-23 23-23 13 0 23 10 23 23 1 13-10 23-23 23z m13-23c0-7-6-12-13-12-6 0-12 5-12 13 0 6 6 11 13 11 6 0 12-5 12-12z m-74 23c-13 0-24-10-24-23 0-13 11-23 24-23 12 0 23 10 23 23 0 13-11 23-23 23z m12-23c0-7-5-12-12-12-7 0-12 5-12 13 0 6 5 11 12 11 6 0 12-5 12-12z m49-100c-12 0-23-11-23-23 0-13 11-23 24-23 13 0 23 10 23 23 0 12-11 23-24 23z m13-23c0 0 0 0 0 0 0-7-6-12-13-12-6 0-12 5-12 12 0 7 6 12 13 12 6 0 12-5 12-12z"/>
<glyph glyph-name="qr-code" unicode="&#116;" d="M187 463l-138 0 0-138 138 0z m-20-118l-98 0 0 98 98 0z m-78-59l0-20 19 0 0 20 40 0 0 19-99 0 0-39 20 0 0 20z m59 137l-59 0 0-59 59 0z m-59-177l0 20-20 0 0-20-20 0 0-39 20 0 0 19 20 0 0-19 19 0 0 19 20 0 0 20z m0-157l59 0 0 59-59 0z m-40-40l138 0 0 138-138 0z m20 118l98 0 0-98-98 0z m177 138l-79 0 0-19 79 0z m-39-39l-40 0 0 20-19 0 0-60-20 0 0-19 59 0 0 19-20 0 0 20 20 0 0-20 20 0z m0 177l0-20 19 0 0 20z m19-39l-19 0 0-20 19 0z m-19-197l0-40 19 0 0 40z m19-59l-19 0 0-99 79 0 0 20-40 0 0 20-20 0 0 19 20 0 0 20-20 0z m20 315l-20 0 0-20 20 0z m0-40l-20 0 0-19 20 0z m0-197l-20 0 0-19 20 0z m20 60l-20 0 0-40 40 0 0 20-20 0z m20 157l-20 0 0-20 20 0z m0-177l19 0 0 20 20 0 0 19-20 0 0 79-19 0 0 20-20 0 0-20-20 0 0-20-39 0 0-39 19 0 0 20 20 0 0-40 40 0z m-20 59l0 39 20 0 0-39z m0-236l20 0 0 19-20 0z m39 374l-19 0 0-20 19 0z m20-217l0 20-20 0 0-20z m0-157l0 19-20 0 0-19z m-20-40l20 0 0 20-20 0z m40 256l0-39 19 0 0 39z m19-138l0 20-19 0 0 20-20 0 0 19-20 0 0-19-19 0 0 19-20 0 0-19-20 0 0-20 40 0 0-20-60 0 0-19 20 0 0-20 20 0 0 20 20 0 0-40 19 0 0 40 40 0 0 19z m-39 0l-20 0 0 20 20 0z m20-19l0-40 19 0 0 40z m78 275l-59 0 0-59 59 0z m-39-118l0-19 20 0 0 19z m0-118l20 0 0 20-20 0z m0-20l0-19 20 0 0 19z m-20 79l-19 0 0-20 19 0 0-19 20 0 0 39 20 0 0-39 19 0 0 39 20 0 0 20-79 0z m59-98l-19 0 0-40-40 0 0-19-19 0 0-20 19 0 0-20 79 0 0 20-20 0z m-19-79l-20 0 0 20 20 0z m19 236l0-19 20 0 0 19z m0-138l20 0 0 20-20 0z m-98 296l0-138 138 0 0 138z m118-118l-98 0 0 98 98 0z m0-79l20 0 0 20-20 0z m0-79l20 0 0 39-20 0z m20-39l0 19-20 0 0-19z m39-148l-108 0c-6 0-10 4-10 10 0 5 4 10 10 10l98 0 0 98c0 6 5 10 10 10 6 0 10-4 10-10l0-108c0-6-4-10-10-10z m0 384c-5 0-10 4-10 10l0 98-98 0c-6 0-10 5-10 10 0 6 4 10 10 10l108 0c6 0 10-4 10-10l0-108c0-6-4-10-10-10z m-492 0c-6 0-10 4-10 10l0 108c0 6 4 10 10 10l108 0c6 0 10-4 10-10 0-5-4-10-10-10l-98 0 0-98c0-6-5-10-10-10z m108-384l-108 0c-6 0-10 4-10 10l0 108c0 6 4 10 10 10 5 0 10-4 10-10l0-98 98 0c6 0 10-5 10-10 0-6-4-10-10-10z"/>
<glyph glyph-name="print-media" unicode="&#117;" d="M417 0l-1 0-323 43c-5 1-9 5-9 11l0 355c0 6 5 10 11 10 6 0 10-4 10-10l0-346 302-40 0 376-314 42c-5 1-9 5-9 11l0 11c0 5 4 10 9 10l291 39c3 1 6 0 8-2 3-3 4-6 4-9l0-28c0-6-5-11-11-11-6 0-11 5-11 11l0 16-238-32 283-38c5 0 9-5 9-10l0-398c0-6-5-11-11-11z m-43 293c1 2 0 5-2 8-2 2-4 3-7 4l-215 28c-6 1-11-3-12-9-1-6 3-11 9-12l215-29 2 0c5 0 10 4 10 10z m-19-165c0 3-1 6-2 8-2 2-5 4-8 4l-176 24c-6 0-11-4-12-10-1-6 4-11 10-12l176-23 1 0c5 0 10 4 11 9z m0 119c0 3-1 6-2 8-2 2-5 4-8 4l-176 23c-6 1-11-3-12-9-1-6 4-11 10-12l176-23 1 0c5 0 10 4 11 9z"/>
<glyph glyph-name="text-analytics" unicode="&#118;" d="M404 130l-14 0 1-5c2-12 1-23-5-34-7-10-16-18-28-19l-227-56c-23-6-47 9-53 33l-55 226c-3 12-1 23 5 34 7 10 16 18 27 20l65 15 0 14-67-18c-15-3-27-12-36-26-8-13-10-29-7-43l56-227c3-16 13-28 26-36 10-6 20-9 30-9 4 0 9 1 14 2l227 55c15 4 27 13 36 27 8 13 10 29 6 43z m4 162c0-4-3-7-7-10-4-3-8-5-14-5-3 0-6 1-9 3-4 2-7 8-7 14 0 8 5 15 16 21 5 3 12 7 19 8z m24-15c-3 0-4 1-6 5-1 1-1 4-1 8l0 42c0 9-1 16-4 21-5 9-14 14-28 14-12 0-20-3-26-9-6-5-9-10-9-15 0-3 0-4 2-7 2-2 4-2 7-2 2 0 3 1 5 1 3 1 4 4 4 8 0 1 0 2-1 4 0 2 0 4 0 5 0 3 1 6 4 7 3 2 7 3 10 3 8 0 12-3 15-7 0-3 2-8 2-15l0-8c-19-7-32-13-38-17-10-7-16-15-16-25 0-7 3-12 7-16 5-4 10-7 16-7 6 0 12 2 18 6 3 3 8 6 13 10 0-4 1-8 4-11 2-2 6-4 10-4 4 0 8 1 12 4 2 2 5 4 7 7l0 3c-3-2-5-3-6-4 2 0 1-1-1-1z m-205 46l25 58 24-58z m86-34l-54 121-4 0-45-105c-7-15-12-25-14-29-2-3-7-5-12-6l0-5 43 0 0 5c-5 1-9 1-10 1-3 1-5 5-5 8 0 2 1 4 2 8 1 2 4 12 10 25l58 0 8-20c1-3 3-6 3-9 1-2 1-4 1-5 0-2-1-5-3-6-2-1-6-1-12-1l0-5 55 0 0 5c-5 0-9 1-11 4-4 1-6 7-10 14z m177-90c0-24-20-44-44-44l-257 0c-23 0-43 20-43 44l0 257c0 24 20 43 43 43l257 0c24 0 44-19 44-43z m-43 313l-257 0c-30 0-56-25-56-56l0-257c0-31 25-56 56-56l257 0c31 0 56 24 56 56l0 257c0 31-25 56-56 56z"/>
<glyph glyph-name="predictive-analytics" unicode="&#119;" d="M359 106c0-1 0-3 0-4 0-9-7-17-17-17-9 0-17 8-17 17 0 3 1 5 2 7l-68 81c-1-1-4-1-6-1-6 0-10 1-12 5l-76-70c1-2 1-4 1-5 0-10-8-17-18-17-6 0-12 4-15 10l-101-10c-2-6-8-10-15-10-9 0-17 8-17 17 0 10 8 17 17 17 7 0 14-4 15-11l101 9c3 7 9 11 16 11 4 0 6-1 9-3l78 73c1 8 8 15 17 15 10 0 18-8 18-17 0-2-1-5-2-7l67-81c2 1 4 2 7 2 3 0 7-1 9-3l99 71c0 1 0 2 0 4 0 9 6 17 16 17 9 0 17-7 17-17 0-9-7-17-16-17-4 0-8 1-11 3z m28 235c0-1 0-3 0-5 0-9-7-17-17-17-9 0-17 8-17 17 0 2 0 3 1 4l-89 63c-1-1-4-2-6-2-5 0-8 2-11 3l-83-64c1-2 1-5 1-7 0-10-7-17-17-17-3 0-6 1-8 2l-104-58c0-1 0-1 0-2 0-10-8-17-17-17-10 0-17 7-17 17 0 9 7 17 17 17 4 0 7-2 10-4l102 58c0 2-1 3-1 5 0 9 8 17 17 17 3 0 5-1 7-2l86 67c0 1 0 2 0 3 0 9 8 17 18 17 9 0 17-8 17-17 0-3-1-4-2-7l87-61c3 1 6 2 9 2 4 0 6-1 9-2l97 59c0 10 8 18 17 18 10 0 17-8 17-18 0-9-7-17-17-17-5 0-9 2-12 6z"/>
<glyph glyph-name="analyst-tool" unicode="&#120;" d="M410 17l-311 0 14 27 170 0c5 0 8 3 9 8l14 88 51 0c3 0 6 2 7 4 23 45 25 86 8 119-4 8-8 14-13 19 6 4 11 8 16 13 2 2 3 4 5 5 6-7 12-16 16-24 13-25 24-68 1-125-1-3-1-6 1-8 1-2 4-4 7-4l5 0z m-120 319c0 23 19 42 42 42l5 0c1 0 2 0 3-1 0 0 0 0 1-1 1 0 2-1 3-1 1 0 1 0 2 0 17-6 29-22 29-40 0-7-2-13-5-18-1-1-1-2-1-3 0-1 0-1 0-1-1-1-1-2-2-2-1-1-1-1-1-1-1-1-2-2-2-3l-1-1c-3-2-5-4-7-6 0 0-1 0-1 0l-3-1c-1 0-1-1-1-1-1-1-2-1-3-1-1 0-1-1-2-1 0 0-2-1-2-1-4-1-7-1-11-1-19 0-43 17-43 42z m-31-89l-15 8-31 18-14 9 122 210 60-35-35-62c-1 0-2 1-3 1l-1 0c-1 0-2 0-2 1l-7 0c-33 0-60-27-60-60l0-6c0-2 1-3 1-5l0-1c1-2 1-3 1-5l0-1c1-2 1-3 1-5 1-2 1-3 3-4 1-2 2-3 3-5 0 0 1-2 2-4 0 0 0-1 1-1 1 0 2-2 3-3 0 0 0-1 0-1z m-42-21l-16 10 11 18 16-9z m10-43l-67 40 4 7 67-39z m192-25l-1 0c19 57 8 100-6 127-6 12-13 23-23 33 3 6 4 13 4 20 0 22-13 42-31 52l38 67c1 0 2 3 1 5-1 2-2 4-4 5l-76 43c-4 3-10 1-12-3l-130-225c-1-1-2-4-1-6 1-3 3-5 5-5l14-9-13-23-18 11c-1 1-4 2-6 1-4 0-6-2-6-4l-13-23c-3-4-1-9 3-12l83-48c1-1 3-1 4-1 3 0 6 2 8 4l13 23c1 2 1 5 1 7-1 3-3 4-5 5l-18 11 13 23 15-8c1-1 2-1 4-1 3 0 6 2 8 4l31 56c10-6 20-9 31-9 3 0 6 0 9 1 5-5 11-12 16-21 14-28 12-61-5-99l-53 0c-5 0-8-3-9-8l-2-18-160 0c-4 0-9-4-9-8 0-5 5-9 9-9l156 0-8-53-168 0c-4 0-6-2-8-4l-22-44c-1-3-1-6 1-9 1-3 4-4 7-4l334 0c4 0 8 4 8 8l0 139c0 5-4 9-9 9z"/>
<glyph glyph-name="data-science" unicode="&#121;" d="M99 407c24 0 43-19 43-43 0-24-19-44-43-44-23 0-42 21-42 45 0 24 19 42 42 42z m0-97c30 0 55 24 55 55 0 30-24 54-55 54-30 0-54-24-54-54 0-31 25-55 54-55z m0-33c7 0 13 1 18 3l-18-38-18 38c5-2 11-3 18-3z m11-69l-98 0c-1 12-2 44 15 64 9 10 22 17 38 17l30-62c1-4 8-4 10 0l29 62c25-1 42-14 50-39 1-3 4-5 7-4 3 1 4 4 4 7-10 30-31 46-64 46-1 0-1 0-2 0 0 0-1 0-1-1 0 0-1 0-1-1 0 0-10-10-27-10-17 0-27 10-27 10 0 0-1 0-1 1 0 1-1 0-1 1 0 0-1 0-2 0-21 0-38-7-50-21-24-28-17-76-17-78 0-3 3-5 5-5l104 0c3 0 5 3 5 6 0 4-3 7-6 7z m300 199c24 0 42-19 42-43 0-24-19-44-42-44-24 0-43 20-43 44-1 25 19 43 43 43z m0-97c29 0 54 24 54 55 0 30-24 54-54 54-31 0-55-24-55-54 0-31 24-55 55-55z m0-67l-18 38c5-2 11-3 18-3 7 0 13 1 17 3z m80 36c-11 14-28 21-49 21-1 0-2 0-3-1 0 0 0 0 0 0 0 0-1 0-1-1 0 0-10-10-27-10-17 0-28 10-28 10 0 0 0 0 0 1 0 0-1 0-1 0-1 1-2 1-2 1-32 0-55-16-64-46-1-3 1-7 4-7 3-1 6 0 7 4 8 24 24 37 49 38l30-61c1-2 3-3 5-3 3 0 4 2 6 3l29 61c17 0 29-6 38-16 17-20 17-52 16-64l-100 0c-3 0-6-3-6-6 0-3 3-5 6-5l104 0c3 0 5 2 5 4 0 1 6 49-18 77z m-236 115c35 0 63-29 63-64 0-34-28-63-63-63-34 0-62 29-62 63 0 35 28 64 62 64z m0-138c42 0 75 33 75 74 0 42-33 75-75 75-41 0-74-33-74-75 0-41 33-74 74-74z m127-150l-253 0c-2 16-3 65 22 96 14 15 33 23 57 24l43-89c1-4 8-4 10 0l43 89c24-1 43-9 56-24 25-31 23-80 22-96z m-127 103c13 0 23 4 31 7l-31-63-30 63c8-3 18-7 30-7z m45 28c-2 0-3-1-4-2 0 0-16-15-41-15-24 0-39 15-40 15-1 1-2 2-4 2-29 0-53-10-68-29-34-40-25-106-25-109 1-3 3-4 6-4l263 0c3 0 5 2 5 4 1 3 9 69-25 109-15 19-39 29-67 29z"/>
<glyph glyph-name="strategic-views" unicode="&#122;" d="M386 18l-261 0c-7 0-13 5-13 12 0 6 9 14 18 14l252 0c9 0 18-9 18-14-1-6-7-12-14-12z m-245 90c8 5 19 10 23 18l184 0c4-7 14-13 22-17 12-6 21-11 21-19 0-9-3-11-6-13-4-3-9-6-10-13l-238 0c-2 7-6 10-10 13-4 3-6 5-6 13 0 7 8 12 20 18z m25 35l180 0 0 10-180 0z m45 153c0 56-4 85-6 99l102 0c-2-14-6-43-6-99 0-64 21-105 35-125l-160 0c13 20 35 61 35 125z m-36 139l0 59 18 0 0-54 54 0 0 54 18 0 0-54 53 0 0 54 18 0 0-59-21-21-119 0z m36 23l18 0 0 18-18 0z m71 0l18 0 0 18-18 0z m111-397c1 0 1 0 2 0 5 5 14 11 14 29 0 19-17 28-30 34-6 3-15 7-15 10l0 31-2 2c0 0-42 41-42 128 0 77 6 99 8 103l28 28 0 86-54 0 0-18-18 0 0 18-54 0 0-18-18 0 0 18-53 0 0-84 28-29c2-4 8-27 8-102 0-87-42-128-42-128l-3-3 0-30c0-4-8-8-14-11-13-6-30-15-30-34 0-18 8-24 13-28 1 0 1-1 2-1-13-5-24-18-24-30 0-17 15-30 32-30l259 0c18 0 32 13 32 30-3 11-14 23-27 29z"/>
<glyph glyph-name="frontline-directives" unicode="&#65;" d="M293 233c1-2 4-5 4-9 0-3-2-6-4-8-3-3-5-4-9-4-3 0-7 1-8 4-3 2-5 5-5 8 0 4 2 7 5 9 1 3 5 4 8 4 4 0 6-1 9-4z m-41-9c0-6-5-12-13-12-7 0-13 5-13 12 0 7 5 13 13 13 7 0 13-6 13-13z m-48-8c-2-3-5-4-9-4-3 0-6 1-8 4-3 2-4 5-4 8 0 4 1 7 4 9 2 3 5 4 8 4 4 0 7-1 9-4 3-2 4-5 4-9-1-3-2-6-4-8z m-41 3c3-6 2-13-4-17-2-1-5-1-6-1-5 0-9 1-10 6-4 6-2 14 4 17 5 3 13 1 16-5z m-54-31c4 6 11 7 17 4 6-3 8-11 5-17-3-4-7-6-11-6-1 0-4 1-7 2-5 3-7 11-4 17z m-9-58c-3 1-4 5-4 8 0 4 1 7 4 9 2 1 5 4 8 4 4 0 7-2 9-4 2-3 4-5 4-9 0-3-2-7-4-8-2-2-5-5-9-5-3 0-6 2-8 5z m345 187c-2-2-6-4-8-4-3 0-7 2-9 4l-21 22 0-29c0-43-27-81-68-94-2-1-3-1-4-1-6 0-11 3-12 9-2 6 1 13 7 16 31 10 51 38 51 70l0 29-22-22c-2-2-6-4-8-4-3 0-7 2-9 4-4 5-4 13 0 18l44 44c2 2 6 4 8 4 4 0 7-2 9-4l43-44c4-4 4-12-1-18z m-156-217l-25-27 25-26c5-4 5-13 0-18-2-3-6-4-8-4-3 0-7 1-9 4l-25 26-26-26c-3-3-6-4-9-4-2 0-6 1-8 4-4 4-4 13 0 18l26 26-26 27c-4 4-4 13 0 18 4 4 13 4 18 0l25-27 26 27c4 4 13 4 18 0 3-5 3-13-2-18z m149 65l-26-27 26-26c4-4 4-13 0-18-3-3-6-4-9-4-2 0-7 1-8 4l-26 26-26-26c-2-3-5-4-8-4-3 0-7 1-9 4-4 4-4 13 0 18l26 26-26 27c-4 4-4 12 0 18 5 4 13 4 18 0l26-27 26 27c4 4 12 4 17 0 3-6 3-13-1-18z m-236 158l-25-27c-3-2-6-4-9-4-2 0-7 2-8 4-5 4-5 13 0 18l25 26-25 27c-5 4-5 13 0 18 4 4 12 4 17 0l26-27 26 27c4 4 12 4 18 0 4-4 4-13 0-18l-26-27 26-26c4-4 4-13 0-18-3-2-6-4-9-4-2 0-7 2-8 4z m-94-298c-12 0-23 11-23 23 0 12 11 23 23 23 13 0 23-11 23-23 0-12-10-23-23-23z m0 72c-26 0-48-22-48-48 0-27 22-49 48-49 27 0 49 22 49 49 0 27-22 48-49 48z m285 390c13 0 23-11 23-23 0-12-10-23-23-23-12 0-23 11-23 23 0 12 11 23 23 23z m0-72c27 0 49 22 49 48 0 27-22 49-49 49-26 0-48-22-48-49 0-26 22-48 48-48z"/>
<glyph glyph-name="closing-loop" unicode="&#66;" d="M191 366l3-2c3-4 3-9 0-12l-34-34c-4-3-9-3-12 0l-2 3c-11-19-18-41-18-65 0-24 7-46 18-65l2 3c4 3 9 3 12 0l34-34c3-4 3-9 0-12l-3-2c19-11 41-18 65-18 24 0 46 7 65 18l-3 2c-3 4-3 9 0 12l34 34c4 3 9 3 12 0l2-3c11 19 18 41 18 65 0 24-7 46-18 65l-2-3c-4-3-9-3-12 0l-34 34c-3 4-3 9 0 12l3 2c-19 11-41 18-65 18-24 0-46-7-65-18z m-126-256l69 69c-14 22-22 49-22 77 0 28 7 55 22 77l-69 69c-31-41-49-91-49-146 0-55 18-105 49-146z m337-45l-69 69c-22-14-49-22-77-22-28 0-55 7-77 22l-69-69c40-31 91-50 146-50 55 0 105 19 146 50z m45 337l-69-69c14-22 22-49 22-77 0-28-7-55-22-77l69-69c31 40 50 91 50 146 0 55-19 105-50 146z m-337 45l69-69c22 14 49 22 77 22 28 0 55-7 77-22l69 69c-40 31-91 50-146 50-55 0-105-19-146-50z m225-293l91-90 23 23-91 90z m0 204l23-23 91 90-23 23z m-271 68l90-91 23 23-91 90z m0-340l23-23 90 91-23 23z m-17 334c-3 3-3 8 0 11l34 34c3 3 9 3 11 0l7-7c44 34 98 54 157 54 59 0 113-20 157-54l7 7c3 3 8 3 11 0l34-34c3-3 3-9 0-11l-7-7c34-44 54-98 54-157 0-59-20-113-54-157l7-7c3-3 3-8 0-11l-34-34c-3-3-9-3-11 0l-7 7c-44-34-98-54-157-54-59 0-113 20-157 54l-7-7c-3-3-8-3-11 0l-34 34c-3 3-3 9 0 11l7 7c-34 44-54 98-54 157 0 59 20 113 54 157z"/>
<glyph glyph-name="real-time-alerts" unicode="&#67;" d="M193 314l23 0c4 0 6 2 6 5l0 22c0 3-2 6-5 6 0 0-1 0-1 0l-23 0c0 0 0 0-1 0-2 0-4-3-4-5 0 0 0-1 0-1l0-22c0-3 3-5 5-5z m6 23l12 0 0-12-12 0z m-116 4c0 3 3 6 5 6 0 0 0 0 1 0l70 0c4 0 5-3 5-6 0-3-2-5-5-5l-71 0c-2 0-5 3-5 5z m361-86l-182 0c0 0-1 0-1 0-3-1-4-2-4-5l0-136c0-3 2-5 5-5l67 0 67-45c2-1 5 0 7 2 1 2 2 4 0 6l-19 38 59 0c4 0 5 2 5 5l0 135c1 3-1 5-4 5z m-5-136l-63 0c-4 0-6-3-6-5 0-1 0-2 1-3l14-27-51 34c-1 1-2 1-3 1l-63 0 0 125 172 0 0-125z m-86 199c-14 0-28-2-40-5 7 30 7 61-2 90-21 62-77 103-139 108-21 2-42-1-63-7-83-28-128-118-101-201 26-80 111-125 191-104-3-13-5-26-5-40 0-88 71-160 159-160 88 1 159 72 159 160 0 89-71 159-159 159z m-335-11c-25 78 17 161 95 187 78 25 162-18 188-95 9-29 10-60 0-88 0-1 0-1 0-2-45-16-81-52-97-98-78-24-161 19-186 96z m335-296c-81 0-148 67-148 148 0 16 2 31 7 46 1 1 1 1 1 2 20 59 75 101 140 101 82 0 149-66 149-149-1-82-67-148-149-148z m-95 285c0 38 0 76 0 114 0 2-3 5-5 5l-188 0c0 0 0 0-1 0-2 0-5-3-5-5 0-38 0-76 0-114 0-2 3-4 5-4l187 0c4-1 7 2 7 4z m-11 5l-176 0 0 71 176 0z m0 81l-176 0 0 23 176 0z"/>
<glyph glyph-name="data-integrity" unicode="&#68;" d="M475 381c-10 0-19 8-19 18 0 10 9 19 19 19 10 0 18-9 18-19 0-10-8-18-18-18z m0 50c-18 0-32-14-32-32 0-15 10-28 25-31l0-33c0-12-10-22-21-22l-58 0c-3 0-6-2-6-6 0-4 3-6 6-6l58 0c19 0 34 15 34 35l0 33c14 3 25 16 25 31 0 17-13 31-31 31z m19-328c0-10-9-18-18-18-10 0-19 8-19 18 0 10 9 19 19 19 9 0 18-9 18-19z m-51 0c0-18 14-32 32-32 18 0 32 14 32 32 0 15-10 28-25 31l0 33c0 19-16 35-35 35l-58 0c-3 0-6-3-6-6 0-4 3-7 6-7l58 0c12 0 21-9 21-21l0-34c-13-3-25-16-25-31z m32 130c-10 0-19 8-19 18 0 10 9 19 19 19 10 0 18-9 18-19 1-10-8-18-18-18z m0 50c-15 0-28-11-31-26l-55 0c-3 0-6-2-6-6 0-4 3-6 6-6l55 0c3-14 16-25 31-25 18 0 32 14 32 32-1 17-14 31-32 31z m-424-180c0-10-8-18-18-18-10 0-19 8-19 18 0 10 9 19 19 19 10 0 18-9 18-19z m10 86l57 0c4 0 7 2 7 6 0 4-3 6-7 6l-57 0c-19 0-34-15-34-34l0-34c-15-3-26-16-26-31 0-17 14-32 32-32 18 0 32 15 32 32 0 16-10 29-25 31l0 34c-1 13 9 22 21 22z m-47 211c0 10 8 18 18 18 10 0 19-8 19-18 0-10-9-19-19-19-10 0-18 8-18 19z m104-87l-57 0c-12 0-22 10-22 22l0 33c15 3 26 16 26 31 0 18-14 32-32 32-18 0-33-14-33-31 0-16 10-29 25-31l0-33c0-20 16-35 35-35l57 0c4 0 6 2 6 6 1 4-1 6-5 6z m-85-80c-10 0-19 8-19 18 0 10 9 19 19 19 10 0 18-9 18-19 0-10-8-18-18-18z m85 25l-54 0c-4 14-16 25-31 25-18 0-32-14-32-32 0-18 14-32 32-32 15 0 28 10 31 25l54 0c4 0 7 3 7 6 0 5-3 8-7 8z m152 8c0-5-2-9-7-12-1-2-1-2-1-4l0-20c0-2-2-5-4-7-6-3-12 2-12 7l0 20c0 2 0 2-2 4-6 4-8 12-5 19 3 6 10 10 17 9 8-1 14-8 14-16z m71-59c0-7-6-12-13-12l-149 0c-7 0-12 5-12 12l0 96c0 7 5 12 12 12l149 0c7 0 13-5 13-12z m-146 161c0 33 26 59 59 59 33 0 59-26 59-59l0-40-118 0z m134-40l-2 0 0 41c0 40-33 73-73 73-40 0-73-33-73-73l0-41-2 0c-14 0-25-11-25-25l0-96c0-13 11-25 25-25l149 0c14 0 25 11 25 25l0 96c0 14-11 25-24 25z"/>
<glyph glyph-name="dropdown" unicode="&#69;" d="M29 300l242-190 7 0 241 190-51 95-197-139-191 139z"/>
<glyph glyph-name="search" unicode="&#70;" d="M502 64l-118 118c22 36 38 74 38 119 0 115-92 211-211 211-118 0-211-93-211-211 0-119 93-211 211-211 45 0 87 12 119 38l118-118c6-7 16-10 26-10 9 0 19 3 25 10 16 16 16 41 3 54z m-448 237c0 86 71 157 157 157 87 0 157-71 157-157 0-87-70-157-157-157-86 3-157 74-157 157z"/>
<glyph glyph-name="close" unicode="&#71;" d="M415 13l79 79-169 167 169 166-77 77-169-169-166 169-79-77 171-169-169-166 77-77 166 169z"/>
<glyph glyph-name="trophy" unicode="&#72;" d="M274 164l0-39c0-35 29-64 64-64 16 0 29-12 29-28l0-15c0-4-2-6-7-6l-223 0c-4 0-6 2-6 6l0 15c0 16 12 28 29 28 24 0 45 15 57 37 2 4 6 4 8 4 4-2 4-6 4-8-14-26-41-43-69-43-8 0-15-6-15-14l0-8 209 0 0 8c0 8-6 14-14 14-43 0-78 35-78 78l0 45c0 0 0 0 2 2 0 0 2 2 2 2 0 0 0 0 2 0 47 8 86 51 90 107l19 207-254 0 18-207c4-54 41-97 90-107 5 0 7-4 7-8 0-4-5-6-9-6-53 10-96 57-100 119l-20 213c0 2 0 4 2 6 2 2 2 2 4 2l268 0c2 0 4 0 4-2 2-2 2-4 2-6l-18-215c-6-58-45-105-97-117z m-12 26c43 9 76 46 80 93l8 92c0 4-2 6-6 8-4 0-6-2-8-6l-8-92c-4-41-31-74-68-80-4 0-6-4-6-8 2-2 4-7 8-7z m17 279c0 4-3 6-7 6l-122 0c-3 0-5 0-5-2-2-2-2-4-2-6l13-129c0-4 4-6 6-6 4 0 6 4 6 8l-10 121 114 0c4 0 7 4 7 8z m196-18c-2 0-4 2-6 2l-68 0c-4 0-6-2-6-7 0-4 2-6 6-6l60 0c-2-30-17-133-76-153-4-2-6-6-4-8 0-3 4-5 6-5 0 0 2 0 2 0 78 27 86 166 86 172 2 0 0 3 0 5z m-362-164c-62 20-76 123-78 151l59 0c4 0 8 2 8 6 0 5-2 7-6 7l-69 0c-2 2-2 0-4 0-3-2-3-5-3-7 0-6 9-145 86-172 0 0 3 0 3 0 2 0 6 2 6 4 2 5 0 9-2 11z"/>
<glyph glyph-name="values-simple" unicode="&#73;" d="M256 392c-35 0-69-14-94-38-1-1-3 0-4 1-2 1-2 3 0 4 26 26 61 40 98 40 63 0 119-42 137-102 0-2-1-3-2-4l-1 0c-1 0-2 1-3 2-18 58-71 97-131 97z m256-136c0-142-114-256-256-256-142 0-256 114-256 256 0 142 114 256 256 256 142 0 256-114 256-256z m-6-3l-107 0c-2-79-67-142-146-140-9 0-17 1-26 3-2 1-2 2-2 4 0 2 1 2 3 2 74-15 146 32 162 106 1 9 2 17 3 26-2 1-2 3 0 4 0 7-1 13-2 19 0 2 0 3 2 4 2 0 3-1 4-3 1-6 1-13 2-20l107 0c-3 139-118 248-256 245-133-3-241-110-244-244l108 0c0 31 12 62 31 86 1 1 3 1 5 1 1-1 1-3 0-4-19-24-29-53-30-84 1-1 1-3 0-4 1-57 38-108 91-127 2 0 3-1 3-3 0-2-2-3-4-3-1 0-1 0-1 0-57 20-95 73-96 132l-107 0c3-138 118-247 256-244 133 3 241 110 244 244z"/>
<glyph glyph-name="values-bold" unicode="&#74;" d="M256 512c-142 0-256-114-256-256 0-141 114-255 256-255 141 0 255 114 255 255 0 142-114 256-255 256z m0-6c137 0 248-110 249-247l-133 0c-1 0-3-1-3-3l0-115c-48 56-134 83-202 83l0 88c0 1-2 3-4 3l-43 0c-1 0-2-1-3-2 0-1 0-3 0-4l-12 0c-5 0-6-8-6-10l0-40-93 0c2 137 113 247 250 247z m0-499c-137 0-248 109-250 246l96 0c2 0 3 1 3 3l0 43c0 1 1 2 1 3l14 0c2 0 4 2 4 3l0 3c0 0 0 1 0 1l36 0 0-88c0-2 2-3 3-3 22 0 44-2 65-7l3-14c0 0-1-1-1-1l-4-1c-2 0-3-1-3-3 0-1 2-3 3-3l1 0 4 1c2 0 4 1 6 3 1 1 1 4 1 5l-3 12c63-15 111-48 136-80 0-1 1-2 2-2l1 0c2 1 2 2 2 4l0 121 130 0c-3-137-113-246-250-246z m-105 219c0-2-1-4-3-4l-25 0c-1 0-2-1-3-1-1 0-3 2-3 4 0 1 0 1 0 2l0 2-12 0c-3-1-5 1-6 4 0 1 0 1 0 1l0 8c0 1 1 3 3 3 2 0 3-2 3-3l0-7 15 0c2 0 4-1 4-3l0-3 24 0c2 0 3-2 3-3z m21 85c0 2 1 3 3 3 79 4 156 39 196 89 1 1 3 1 4 0 1 0 1-1 1-2l0-129c0-2-1-3-3-3-2 0-3 1-3 3l0 120c-42-48-117-80-194-84-3 0-4 1-4 3z m70-187c0-4-1-7-3-10-3-4-7-6-11-6l-35-5-2 0c-6 0-11 3-12 9l-12 79c-2 6-7 9-12 8-2 0-3 1-3 2l-1 6c0 1 1 3 3 3 2 0 3 0 3-2l1-3c7 0 14-6 15-13l13-80c0-2 3-4 6-3l35 5c3 0 5 2 7 4 1 2 2 4 1 6l0 1c-3 0-5 1-8 3-2 2-3 4-4 7l-11 68c0 2 1 4 3 4 1 1 3 0 3-2l11-69c0-1 1-2 2-3 1-1 3-1 5-1 1 0 2 0 4 0 1-1 2-2 2-4z m-118 117l-13 0 0 6 13 0z m0 12l-13 0 0 6 13 0z m0 13l-13 0 0 6 13 0z m0 12l-13 0 0 6 13 0z m0 12l-13 0 0 6 13 0z"/>
<glyph glyph-name="values-innovative" unicode="&#75;" d="M256 512c-142 0-256-114-256-256 0-142 114-256 256-256 142 0 256 114 256 256 0 142-114 256-256 256z m0-506c-137 0-248 110-250 247l169 0c2 0 3 1 3 3 0 1 0 1-1 1-10 19-15 32-15 51 0 50 40 92 90 95 53 3 97-37 100-89 1-13-1-26-6-38-1-2 0-3 2-4 2-1 3 0 3 2 20 52-6 110-58 130-13 5-27 7-41 6-54-4-96-48-96-102 1-17 5-34 14-48l-164 0c3 138 116 248 254 246 135-2 244-111 246-246l-166 0c-1 0-2-1-2-2l-3-3c-5-6-10-12-16-17-13-11-22-25-27-41 0-2 1-3 2-4l1 0c2 0 3 1 3 3 5 14 14 27 26 37 6 6 11 12 16 19l2 2 164 0c-2-138-113-248-250-248z m-34 136l0-4c0-2 1-4 3-6 2-1 5-2 6-1l56 14c4 1 8-1 9-5 0 0 0-1 0-2 0-19-15-34-34-34l-10 0c-1 0-2 0-3 0l-1 0c-2 0-3 2-2 4 0 2 1 3 3 2 1 0 1 0 2 0l11 0c15 0 28 13 28 28 0 0 0 1 0 1 0 0-1 0-1 0l-56-13c-8-2-15 2-17 9 0 2-1 2-1 3l0 7c0 1 2 2 3 3l63 16c4 1 7 4 8 8l-68 0c-2 0-3 1-3 3 0 22-10 43-27 58-1 0-1 1-2 2l-1 0c-2 1-2 3 0 4 1 2 3 2 4 0 1 0 1-1 2-1 0-1 0-1 0-2 18-14 29-36 30-59l48 0c-1 1-1 1-1 2l0 44c0 5-3 10-8 11l-11 0c-3 0-5-6-5-11l0-32c0-1-1-3-3-3-2 0-3 2-3 3l0 32c0 3 0 7 1 9 0 0-1 1-1 1l-24 62c0 2 0 3 1 5 2 0 4 0 5-2 0 0 0 0 0 0l23-59c1 2 3 2 6 2l11 0c2 0 4 0 6-2l23 59c0 2 2 2 3 2 2-1 3-3 2-4 0 0 0 0 0-1l-23-61c2-3 3-7 4-10l0-44c0-1 0-2-1-2l16 0c2 0 3-1 3-3 0-8-6-14-14-17z m11 160c0 1 1 3 3 3 2 0 3-2 3-3 0-4 2-7 5-9 3 2 5 5 4 9 0 1 1 3 3 3 2 0 3-2 3-3 0-4 1-7 4-9 4 2 5 5 5 9 0 1 1 3 3 3 2 0 3-2 3-3-1-4 1-7 4-9 3 2 5 5 5 9 0 1 1 3 3 3 1 0 3-2 3-3 0-8-5-15-11-15-3 0-5 2-7 4-3-4-8-5-12-3-1 1-2 2-3 3-2-2-4-4-7-4-6 0-11 7-11 15z"/>
<glyph glyph-name="values-human" unicode="&#76;" d="M256 512c-142 0-256-114-256-256 0-142 114-256 256-256 142 0 256 114 256 256 0 142-114 256-256 256z m0-506c-137 0-248 110-250 247l112 0c1 0 3 1 3 3 0 1 0 1 0 1-18 38 0 82 37 99 28 13 62 7 84-15 5-6 10-12 13-18 1-1 3-2 4-1 1 0 1 0 1 1 3 7 8 13 13 18 29 29 75 29 104 2 18-17 26-43 21-67 0-2 1-3 3-4 1 0 3 1 3 2 9 44-19 85-62 94-27 5-54-3-73-23-4-4-8-9-11-15-3 6-8 11-12 15-31 32-82 32-114 1-23-23-30-57-19-87l-107 0c3 138 116 248 254 246 135-2 244-111 246-246l-108 0c-1 0-2-1-2-1l-2-4c-4-7-9-13-14-19l-123-122-122 121-1 2c-2 1-2 2-4 3-1 2-3 2-4 1-1-1-1-3 0-4 1-2 2-3 3-4l126-126c2-1 3-1 5 0l124 124c6 6 10 13 15 20l1 2 106 0c-2-136-113-246-250-246z"/>
<glyph glyph-name="values-invested" unicode="&#77;" d="M256 512c-142 0-256-114-256-256 0-142 114-256 256-256 142 0 256 114 256 256 0 142-114 256-256 256z m0-506c-137 0-248 110-250 247l122 0c1 0 1 0 2 1l88 70 88 11c1 0 2 0 2 1l82 63-2-19c0-2 0-3 2-4l1 0c1 0 3 1 3 2l4 27c1 1 1 1 1 2l0 2c1 2 0 3-2 4 0 0-1 0-1 0l-32 0c-2 0-3-1-3-3 0-2 1-3 3-3l27 0-86-65-88-12c0 0-1 0-1-1l-89-70-121 0c3 138 116 248 254 246 135-2 244-111 246-246l-111 0c-2 0-3-1-3-3 0-2 1-3 3-3l111 0c-2-137-113-247-250-247z"/>
<glyph glyph-name="flag-usa" unicode="&#78;" d="M509 361l-261 0c-2 0-3 1-3 3 0 2 1 3 3 3l258 0 0 12-258 0c-2 0-3 1-3 3 0 2 1 3 3 3l261 0c2 0 3-1 3-3l0-18c0-2-1-3-3-3z m3-33l0 18c0 2-1 3-3 3l-261 0c-2 0-3-1-3-3 0-2 1-3 3-3l258 0 0-12-258 0c-2 0-3-1-3-3 0-2 1-3 3-3l261 0c2 0 3 1 3 3z m0-36l0 18c0 2-1 3-3 3l-261 0c-2 0-3-1-3-3 0-2 1-3 3-3l258 0 0-12-258 0c-2 0-3-1-3-3 0-2 1-3 3-3l261 0c2 0 3 1 3 3z m0-37l0 18c0 2-1 3-3 3l-261 0c-2 0-3-1-3-3 0-1 1-3 3-3l258 0 0-12-258 0c-2 0-3-1-3-3 0-1 1-3 3-3l261 0c2 0 3 2 3 3z m0-36l0 18c0 2-1 3-3 3l-469 0c-1 0-3-1-3-3l0-18c0-1 2-3 3-3l469 0c2 0 3 2 3 3z m-469 15l463 0 0-12-463 0z m469-51l0 18c0 2-1 3-3 3l-469 0c-1 0-3-1-3-3l0-18c0-1 2-3 3-3l469 0c2 0 3 2 3 3z m-469 15l463 0 0-12-463 0z m469-51l0 18c0 2-1 3-3 3l-469 0c-1 0-3-1-3-3l0-18c0-1 2-3 3-3l469 0c2 0 3 2 3 3z m-469 15l463 0 0-12-463 0z m193 93l0 126c0 2-2 4-3 4l-193 0c-1 0-3-2-3-4l0-126c0-1 2-3 3-3l193 0c1 0 3 2 3 3z m-193 124l187 0 0-120-187 0z m-24-313l0 319c0 1-1 3-3 3-1 0-3-2-3-3l0-319c0-2 2-3 3-3 2 0 3 2 3 3z m14 367c-1 9-8 16-17 16-9 0-16-7-16-16 0-9 7-16 16-17 9 0 17 8 17 17 0 0 0 0 0 0z m-6 0c0-6-5-11-10-11-6 0-11 5-11 11 0 6 5 10 10 10 6 0 11-4 11-10z m1-33c0 2-1 3-3 3l-18 0c-1 0-3-1-3-3 0-2 2-3 3-3l18 0c2 0 3 1 3 3z"/>
<glyph glyph-name="flag-can" unicode="&#79;" d="M161 144l-121 0c-1 0-3 2-3 3l0 234c0 2 2 4 3 4l121 0c1 0 3-2 3-4l0-234c0-1-2-3-3-3z m-118 6l115 0 0 228-115 0z m469-3l0 234c0 2-1 4-3 4l-120 0c-2 0-3-2-3-4l0-213c0-1 1-3 3-3 2 0 3 2 3 3l0 210 114 0 0-228-114 0c-2 0-3-1-3-3 0-1 1-3 3-3l117 0c2 0 3 2 3 3z m-234 15l0 42 46 0c2 0 3 2 3 3 0 1 0 1 0 2l-5 10 49 35c1 1 1 3 0 4 0 0-1 1-2 1l-12 4 11 27c1 2 0 3-2 4 0 0-1 0-1 0l-29-6-1 12c0 2-2 3-3 3-1 0-2-1-2-1l-20-19 4 46c0 1-2 3-3 3-1 0-2 0-2-1l-13-9-18 33c-1 1-2 2-3 2-1 0-2-1-2-2l-18-33-13 9c-1 1-3 1-4-1-1 0-1-1-1-1l4-45-20 19c-1 1-3 1-4 0-1-1-1-1-1-2l-1-12-29 6c-1 1-3-1-3-2 0-1 0-2 0-2l11-27-12-3c-2-1-2-2-2-4 0 0 0-1 1-2l49-34-6-12c0-2 0-3 2-5 1 0 1 0 1 0l27 0c1 0 3 2 3 3 0 2-2 3-3 3l-23 0 4 9c1 2 0 3-1 4l-45 32 8 3c2 0 3 2 3 3 0 0 0 1 0 1l-10 25 27-5c2-1 3 0 4 2 0 0 0 0 0 1l1 9 20-21c1-1 3-1 4 0 0 0 0 2 0 2l-3 48 11-8c1-1 3 0 4 1l17 31 17-31c1-1 1-1 2-1 0 0 2 0 2 0l11 8-4-47c0-2 2-3 3-3 1 0 2 0 3 0l21 21 1-9c0-2 2-3 3-3 0 0 0 0 1 0l26 6-10-25c0-2 0-3 2-4l9-2-45-32c-1-1-2-3-1-4l4-9-45 0c-2 0-3-1-3-3l0-45c0-2 1-3 3-3 2 0 3 0 3 1z m-259-96l0 319c0 1-1 3-3 3-1 0-3-2-3-3l0-319c0-2 2-3 3-3 2 0 3 2 3 3z m-3 350c-9 0-16 8-16 17 0 9 7 16 16 16 9 0 17-7 17-16 0-9-8-16-17-17z m0 27c-6 0-10-4-10-10 0-6 4-11 10-11 6 0 11 5 11 11 0 6-5 10-11 10z m12-43c0 2-1 3-3 3l-18 0c-1 0-3-1-3-3 0-2 2-3 3-3l18 0c2 0 3 1 3 3z"/>
<glyph glyph-name="flag-eng" unicode="&#80;" d="M251 144c-2 0-3 2-3 3l0 93-208 0c-1 0-3 2-3 3 0 2 2 3 3 3l211 0c1 0 3-1 3-3l0-96c0-1-2-3-3-3z m3 142l0 96c0 2-2 3-3 3-2 0-3-1-3-3l0-93-208 0c-1 0-3-1-3-3 0-2 2-3 3-3l211 0c1 0 3 1 3 3z m258 0c0 2-1 3-3 3l-207 0 0 93c0 2-2 3-3 3-2 0-3-1-3-3l0-96c0-2 1-3 3-3l210 0c2 0 3 1 3 3z m-210-139l0 93 207 0c2 0 3 2 3 3 0 2-1 3-3 3l-210 0c-2 0-3-1-3-3l0-96c0-1 1-3 3-3 1 0 3 2 3 3z m-66 0c0 2-2 3-3 3l-119 0 120 60c1 1 2 3 1 5-1 1-2 1-4 1l-131-66c-1-1-3-3-1-4 0-2 1-2 3-2l132 0c0 0 2 2 2 3z m-177-2l156 78c2 1 3 2 2 4-1 2-2 3-4 2 0 0 0 0-1 0l-156-78c-1-1-2-2-1-4 0-1 2-2 3-2 0-1 0 0 1 0z m-17 29l96 49c2 1 2 2 2 4-1 1-3 2-4 1l-93-46 0 43c0 2-1 3-3 3-1 0-3-1-3-3l0-48c0-2 2-3 3-3 1 0 1 0 2 0z m409-27c1 1 0 3-2 3l-131 66c-1 1-3 1-4-1-1-1-1-3 1-4 0 0 0 0 0 0l121-60-119 0c-2 0-3-1-3-3 0-2 1-3 3-3l131 0c1 0 3 1 3 2z m60 8c1 1 0 3-1 4l-139 69c-1 1-3 1-4-1-1-1-1-3 1-4 0 0 0 0 1 0l139-70c1 0 3 0 3 2z m-1 19c1 1 1 2 1 3l0 48c0 2-1 3-3 3-2 0-3-1-3-3l0-43-92 46c-1 1-3 1-4-1-1-1-1-3 1-4 0 0 0 0 0 0l97-49c1 0 2 0 3 0z m-192 139l131 66c2 1 2 2 2 4-1 2-2 2-3 2l-131 0c-2 0-3-2-3-4 0-1 1-3 3-3l119 0-121-60c-1 0-2-2-1-4 0-2 2-2 4-1z m19-12l156 78c2 1 3 2 2 4-1 2-2 3-4 2 0 0 0 0-1 0l-156-78c-1-1-2-2-1-4 0-2 2-3 4-2z m76 0l93 46 0-43c0-2 1-3 3-3 2 0 3 1 3 3l0 49c0 1-1 3-3 3-1 0-1 0-1-1l-97-48c-1-1-2-2-1-4 0-2 2-3 3-2z m-178 14c1 1 0 3-1 4l-120 60 119 0c1 0 3 1 3 3 0 2-2 3-3 3l-133 0c-1 0-3-1-3-3 0-1 1-2 2-3l132-66c2-1 3 0 4 2 0-1 0 0 0 0z m-53-12c1 1 0 3-1 4l-139 69c-2 1-3 1-5-1 0-1 0-3 2-4 0 0 0 0 0 0l139-70c1-1 3 0 4 2 0-1 0-1 0 0z m-42 0c1 1 0 3-1 4l-97 48c-1 1-3 0-4-1 0-1-1-1-1-1l0-48c0-2 2-3 3-3 2 0 3 1 3 3l0 43 93-46c1-2 3-1 4 1 0-1 0-1 0 0z m-121-237l0 319c0 1-1 3-3 3-1 0-3-2-3-3l0-319c0-2 2-3 3-3 2 0 3 2 3 3z m14 367c-1 9-8 16-17 16-9 0-16-7-16-16 0-9 7-16 16-17 9 0 17 8 17 17 0 0 0 0 0 0z m-6 0c0-6-5-11-10-11-6 0-11 5-11 11 0 6 5 10 10 10 6 0 11-4 11-10z m1-33c0 2-1 3-3 3l-18 0c-1 0-3-1-3-3 0-2 2-3 3-3l18 0c2 0 3 1 3 3z"/>
<glyph glyph-name="inmoment-dot-green" unicode="&#81;" d="M136 32c-5 0-11 2-16 5-75 46-120 126-120 214 0 43 11 85 32 122 8 14 26 19 40 11 14-8 19-26 11-40-16-29-24-61-24-93 0-67 34-128 91-163 15-8 20-27 10-42-5-8-14-14-24-14m122-32c-16 0-29 13-31 29 0 16 13 30 29 30 102 3 184 85 187 187l0 5c0 16 13 31 31 31 16 0 30-13 30-31l0-5c-3-134-112-243-246-246m184 336c-10 0-20 5-26 14-35 58-96 93-163 93-32 0-64-8-93-24-14-8-34-3-42 13-8 14-3 32 13 40 37 21 79 30 122 30 88 0 169-44 214-121 8-15 5-32-9-42-7-1-12-3-16-3"/>
</font>
</defs>
</svg>
