<svg id="Layer_1" data-name="Layer 1" xmlns="http://www.w3.org/2000/svg" viewBox="0 0 640 640"><defs><style>.cls-1{fill:#fff}</style></defs><title>hexagon-pattern</title><path class="cls-1" d="M640 27.31v-.22l-16.85-9.36V0h-.2v17.72L591 35.44l-31.8-17.67L591.25 0h-.4l-31.7 17.61V0h-.2v17.72l-31.8 17.67V0h-.2v35.39l-31.8-17.67V0h-.2v17.72L463 35.44l-31.8-17.67L463.25 0h-.4l-31.7 17.61V0h-.2v17.72l-31.8 17.67V0h-.2v35.39l-31.8-17.67V0h-.2v17.72L335 35.44l-31.8-17.67L335.25 0h-.4l-31.7 17.61V0h-.2v17.72l-31.8 17.67V0h-.2v35.39l-31.8-17.67V0h-.2v17.72L207 35.44l-31.8-17.67L207.25 0h-.4l-31.7 17.61V0h-.2v17.72l-31.8 17.67V0h-.2v35.39l-31.8-17.67V0h-.2v17.72L79 35.44 47.25 17.78 79.25 0h-.4l-31.7 17.61V0h-.2v17.72l-31.8 17.67V0h-.2v35.39L0 27.09v.22l14.95 8.3v35.33L0 62.64v.22l14.85 8.25L0 79.36v.22l15-8.36 14.69 8.16 17.21 9.56v35.33L0 98.2v.22l46.85 26L15 142.11l-15-8.36v.25l5.91 3.28 9 5v35.44L0 186v.22l15-8.36.27.14 31.57 17.54L0 221.58v.22l46.95-26.08v35.33L15 248.78l-15-8.36v.22l14.95 8.3v35.33L0 276v.22l14.85 8.25L4.93 290 0 292.69v.22l15-8.36 21.27 11.81 10.53 5.85L0 328.25v.22l46.95-26.08v35.33L15 355.44l-15-8.36v.22l14.85 8.25L0 363.8v.2l14.95-8.3v35.33L0 399.36v.23l14.95-8.31v70.78l-3.27-1.81L0 453.75v.25l9.58 5.32 5.27 2.93L0 470.47v.22l14.95-8.3v35.33L0 506v.22l15-8.36 31.9 17.72v35.33L0 524.86v.22l46.85 26-10.75 6-21.1 11.7-15-8.36v.22l14.95 8.3v35.44L0 612.69v.22l6.88-3.82 8.06-4.48V640h.2v-35.39l3.29 1.82 28.51 15.84V640h.2v-17.72L79 604.56 90.6 611l20.25 11.25-32 17.75h.4l31.7-17.61V640h.2v-17.72l17.1-9.5 14.7-8.17V640h.2v-35.39l31.8 17.67V640h.2v-17.72L207 604.56l11.6 6.44 20.25 11.25-32 17.78h.4l31.7-17.61V640h.2v-17.72l17.1-9.5 14.7-8.17V640h.2v-35.39l31.8 17.67V640h.2v-17.72L335 604.56l11.6 6.44 20.25 11.25-32 17.78h.4l31.7-17.61V640h.2v-17.72l17.1-9.5 14.7-8.17V640h.2v-35.39l31.8 17.67V640h.2v-17.72L463 604.56l11.6 6.44 20.25 11.25-32 17.78h.4l31.7-17.61V640h.2v-17.72l17.1-9.5 14.7-8.17V640h.2v-35.39l31.8 17.67V640h.2v-17.72L591 604.56l11.6 6.44 20.25 11.25-32 17.78h.4l31.7-17.61V640h.2v-17.72l16.85-9.36v-.22l-16.85 9.36v-70.78l16.85 9.36v-.22l-16.85-9.36v-35.34l16.85 9.37v-.22l-16.75-9.31 16.75-9.31V506l-17 9.42-16.42-9.13-15.37-8.54L640 470.69v-.22l-48.85 27.14v-35.33L623 444.56l17 9.44v-.22l-16.85-9.36v-35.47l16.85-9.37v-.23L626.19 407l-3.19 1.78-16.75-9.31-15-8.36L640 364v-.2l-48.85 27.14v-35.33L623 337.89l17 9.42v-.22l-16.75-9.31 16.75-9.31v-.22l-16.85 9.36v-35.33l16.85-9.36v-.22l-17 9.42-31.9-17.72v-35.34L640 276.2v-.2l-48.75-27.08 31.75-17.7 15.08 8.38 1.87 1v-.22l-12.19-6.77-4.57-2.54 16.81-9.26v-.22l-16.85 9.36v-35.34l16.85-9.36V186l-16.85 9.36v-70.75L640 134v-.22l-16.85-9.36V89.05L640 98.42v-.22l-16.75-9.31L640 79.58v-.22l-17 9.42-31.9-17.72V35.72L640 62.86v-.22l-48.75-27.08L623 17.89zm-81 381.47l-31.9-17.72v-35.34l63.7 35.39zm.1 35.83l24.95 13.86 6.85 3.81v35.44l-3.62 2-28.18 15.66v-70.77zM527 142.11l-31.9-17.72V89.05l63.7 35.39zm32-17.55l31.8 17.67-63.7 35.39v-35.34zM515.58 136l11.37 6.31v35.44l-31.8 17.67v-70.81zM527 177.89l31.8 17.67-63.7 35.39v-35.34zm-71.82 279.85l-24-13.35v-35.33l63.7 35.39L463 462.11zm7.77 4.54v35.44l-3.62 2-28.18 15.66v-70.77l24.95 13.86zm-31.7-53.39L463 391.22l15.08 8.38 16.82 9.34v35.33zm-104.07 48.85l-24-13.35v-35.33l63.7 35.39L335 462.11zm7.76 4.54v35.44l-3.62 2-28.18 15.66v-70.77l24.95 13.86zm-31.7-53.39L335 391.22l15.08 8.38 16.82 9.34v35.33zm-104.06 48.85l-24-13.35v-35.33l63.7 35.39L207 462.11zm7.77 4.54v35.44l-3.62 2-28.18 15.66v-70.77l24.95 13.86zm-31.7-53.39L207 391.22l15.08 8.38 16.82 9.34v35.33zm-29.84-161.43l-2.41 1.32-27.23-15.13-4.57-2.54 63.7-35.39v35.33zm29.54-16.19v70.78l-8.15-4.53-23.65-13.14v-35.44zm-10.63 65.09l10.53 5.85-63.7 35.39v-35.32L134 289.6l9.08-5zM111 302.11l-31.9-17.72v-35.33l63.7 35.39zm-.1.17v35.44l-3.62 2-28.13 15.67v-70.78zm.1 35.61l31.8 17.67-63.7 35.39v-35.34zm31.9 17.83v35.33l-28.76 16-3.14 1.73-16.7-9.31-15-8.36zm-31.7-17.94l63.7-35.39v35.33L143 355.44zm63.8.11l26.12 14.51 5.78 3.21v35.33l-63.7-35.39zm31.9-53.28v70.78l-3.43-1.9-28.37-15.76v-35.45zm-31.8 17.44v-70.77l31.8 17.67v35.44zm127.8-71l-29.54 16.41-2.36 1.32-27.23-15.13-4.57-2.54 63.7-35.39v35.33zm0 .22v70.78l-8.15-4.53-23.65-13.14v-35.44zm-10.63 65.09l10.53 5.85-63.7 35.39v-35.32L262 289.6l9.07-5zM239 302.11l-31.9-17.72v-35.33l63.7 35.39zm-.1.17v35.44l-3.62 2-28.18 15.66v-70.77zm.1 35.61l31.8 17.67-63.7 35.39v-35.34zm-16.7 61.58l-15-8.36 63.7-35.39v35.33l-28.76 16-3.24 1.73zm17-61.69l63.7-35.39v35.33l-32 17.72zm63.8.11l26.12 14.51 5.78 3.21v35.33l-63.7-35.39zm31.9-53.28v70.78l-3.42-1.9-28.38-15.76v-35.45zm-31.8 17.44v-70.77l31.8 17.67v35.44zm127.8-71l-29.54 16.41-2.46 1.32-27.23-15.13-4.57-2.54 63.7-35.39v35.33zm0 .22v70.78l-8.15-4.53-23.65-13.14v-35.44zm-10.63 65.09l10.53 5.85-63.7 35.39v-35.32L390 289.6l9.07-5zM367 302.11l-31.9-17.72v-35.33l63.7 35.39zm-.1.17v35.44l-3.62 2-28.18 15.66v-70.77zm.1 35.61l31.8 17.67-63.7 35.39v-35.34zm-16.7 61.58l-15-8.36 63.7-35.39v35.33l-28.76 16-3.24 1.73zm16.95-61.69l63.7-35.39v35.33L399 355.44zm63.8.11l26.12 14.51 5.78 3.21v35.33l-63.7-35.39zm31.9-53.28v70.78l-3.42-1.9-28.37-15.76v-35.45zm-31.8 17.44v-70.77l31.8 17.67v35.44zm63.9.06l-31.9-17.72v-35.33l63.7 35.39zm32-17.56l21.27 11.81 10.53 5.85-63.7 35.39v-35.32L518 289.6zm-32.1 17.72v35.44l-3.62 2-28.18 15.66v-70.76zm.1 35.61l31.8 17.67-63.7 35.39v-35.33zm-16.75 61.59l-15-8.36 63.7-35.39v35.33l-28.76 16-3.24 1.73zm17-61.69l63.7-35.39v35.33l-32 17.72zm55.55-40.25l-23.65-13.14v-35.45l31.8-17.67v70.78zm8.15-66.47l-29.54 16.41-2.46 1.31-27.23-15.13-4.57-2.54 63.7-35.39v35.33zm-48.82 8.55l16.82 9.34v35.33l-63.7-35.39 31.7-17.67zM463 248.78l-31.9-17.72v-35.34l63.7 35.39zm-32-53.33l-31.8-17.67 63.7-35.39v35.33zm31.8-53.22l-63.7 35.39v-35.34l31.9-17.72zm-31.7-17.83V88.95l31.8-17.67v70.78l-5.48-3.06zM399 142.11l-31.9-17.72V89.05l63.7 35.39zM387.58 136l11.37 6.31v35.44l-31.8 17.67v-70.81zM399 177.89l31.8 17.67-63.7 35.39v-35.34zm-16.87 61.71l16.82 9.34v35.33l-63.7-35.39L367 231.22zM335 248.78l-31.9-17.72v-35.34l63.7 35.39zm-32-53.33l-31.8-17.67 63.7-35.39v35.33zm31.8-53.22l-63.7 35.39v-35.34l31.9-17.72zm-31.7-17.83V88.95l31.8-17.67v70.78l-5.48-3.06zM271 142.11l-31.9-17.72V89.05l63.7 35.39zM259.58 136l11.37 6.31v35.44l-31.8 17.67v-70.81zM271 177.89l31.8 17.67-63.7 35.39v-35.34zm-16.87 61.71l16.82 9.34v35.33l-63.7-35.39L239 231.22zM207 248.78l-31.9-17.72v-35.34l63.7 35.39zm-32-53.33l-31.8-17.67 63.7-35.39v35.33zm31.8-53.22l-63.7 35.39v-35.34l31.9-17.72zm-31.7-17.83V88.95l31.8-17.67v70.78l-5.48-3.06zM143 142.11l-31.9-17.72V89.05l63.7 35.39zM131.58 136l11.37 6.31v35.44l-31.8 17.67v-70.81zM143 177.89l31.8 17.67-63.7 35.39v-35.34zm-16.87 61.71l16.82 9.34v35.33l-63.7-35.39L111 231.22zM79 248.78l-31.9-17.72v-35.34l63.7 35.39zm-.1.17v35.44l-31.8 17.67v-70.78l11.8 6.55zm-31.8 53.33l31.8-17.67v70.78l-2-1.13-29.75-16.54v-35.44zM79 391.22l15.08 8.38 16.82 9.34v35.33l-63.7-35.39zm31.8 53.22L79 462.11l-12.38-6.88-19.47-10.84v-35.33zm-43.48 11.38l11.62 6.46v35.44l-3.59 2-28.2 15.67v-70.78zM79 497.89l15.38 8.54 16.42 9.12-63.7 35.39v-35.33zm.1-35.61l31.9-17.72 28.31 15.73 3.49 1.94-63.7 35.39v-35.34zM141 461l-29.81-16.56v-35.49l31.8-17.67v70.78zm2 36.89l31.9 17.72v35.33l-63.7-35.39zm.1-.17v-35.44l31.8-17.67v70.78zm0-35.67v-70.77l31.8 17.67v35.44zm0-71v-35.33l63.7 35.39-31.8 17.67zm32 124.56l31.9-17.72 15.38 8.54 16.42 9.12-63.7 35.39v-35.33zm32-53.33l31.9-17.72 28.31 15.73 3.49 1.94-63.7 35.39v-35.34zM269 461l-29.81-16.56v-35.49l31.8-17.67v70.78zm2 36.89l31.9 17.72v35.33l-63.7-35.39zm.1-.17v-35.44l31.8-17.67v70.78zm0-35.67v-70.77l31.8 17.67v35.44zm0-71v-35.33l63.7 35.39-31.8 17.67zm32 124.56l31.9-17.72 15.38 8.54 16.42 9.12-63.7 35.39v-35.33zm32-53.33l31.9-17.72 28.31 15.73 3.49 1.94-63.7 35.39v-35.34zM397 461l-29.81-16.56v-35.49l31.8-17.67v70.78zm2 36.89l31.9 17.72v35.33l-63.7-35.39zm.1-.17v-35.44l31.8-17.67v70.78zm0-35.67v-70.77l31.8 17.67v35.44zm0-71v-35.33l63.7 35.39-31.8 17.67zm32 124.56l31.9-17.72 15.38 8.54 16.42 9.12-63.7 35.39v-35.33zm32-53.33l31.9-17.72 28.31 15.73 3.49 1.94-63.7 35.39v-35.34zM525 461l-29.81-16.56v-35.49l31.8-17.67v70.78zm2 36.89l31.9 17.72v35.33l-63.7-35.39zm.1-.17v-35.44l31.8-17.67v70.78zm0-35.67v-70.77l31.8 17.67v35.44zm.1-106.5l31.8-17.66 26.12 14.51 5.78 3.21v35.33zm60.27-2.07l-28.38-15.76v-35.44l31.8-17.67v70.78zm-28.38-51.43v-70.77l31.8 17.67v35.44zM559 195.44l-31.8-17.67 63.7-35.39v35.33zM585.42 139l-26.27-14.6V88.95l31.8-17.67v70.78zM559 88.78l-13.67-7.59-18.08-10.08 63.7-35.39v35.34zm-31.9-53.17L559 17.89l5.67 3.11 26.18 14.54-63.7 35.39V35.61zm13.57 43.2l18.23 10.13v35.33l-63.7-35.39L527 71.22zM495 17.89l31.9 17.72v35.33l-63.7-35.39zm-31.9 17.83l63.7 35.39L495 88.78l-31.9-17.72V35.72zm0 35.56l31.8 17.67v35.44l-31.8 17.67V71.28zm0 71l31.8-17.67v70.78l-7.39-4.1-24.41-13.56v-35.45zm31.8 53.33v35.33l-63.7-35.39 31.8-17.66zm-32-124.56L431 88.78l-13.67-7.59-18.08-10.08 63.7-35.39v35.34zm-63.8-35.44L431 17.89l5.67 3.11 26.17 14.54-63.7 35.39V35.61zm13.56 43.2l18.23 10.13v35.33l-63.7-35.39L399 71.22zM367 17.89l31.9 17.72v35.33l-63.7-35.39zm-31.9 17.83l63.7 35.39L367 88.78l-31.9-17.72V35.72zm0 35.56l31.8 17.67v35.44l-31.8 17.67V71.28zm0 71l31.8-17.67v70.78l-7.39-4.1-24.41-13.56v-35.45zm31.8 53.33v35.33l-63.7-35.39 31.8-17.66zm-32-124.56L303 88.78l-13.67-7.59-18.08-10.08 63.7-35.39v35.34zm-63.8-35.44L303 17.89l5.67 3.11 26.17 14.54-63.7 35.39V35.61zm-.1 35.61l13.67 7.59 18.23 10.13v35.33l-63.7-35.39zm-32-53.33l31.9 17.72v35.33l-63.7-35.39zm-31.9 17.83l63.7 35.39L239 88.78l-31.9-17.72V35.72zm0 35.56l31.8 17.67v35.44l-31.8 17.67V71.28zm31.8 53.33v70.78l-7.39-4.1-24.41-13.56v-35.45zm0 71v35.33l-63.7-35.39 31.8-17.66zm-32-124.56L175 88.78l-13.67-7.59-18.08-10.08 63.7-35.39v35.34zm-63.8-35.44L175 17.89l5.67 3.11 26.18 14.54-63.7 35.39V35.61zm-.1 35.61l13.67 7.59 18.23 10.13v35.33l-63.7-35.39zm-32-53.33l31.9 17.72v35.33L79.25 35.56zM79.15 35.72l63.7 35.39L111 88.78 79.15 71.06V35.72zm0 35.56l31.8 17.67v35.44l-31.8 17.67V71.28zm0 71l31.8-17.67v70.78l-7.39-4.1-24.41-13.57v-35.44zm31.8 53.33v35.33l-63.7-35.39L79 177.89zm-32-53.56l-4.7-2.61-27.1-15.05V88.95l31.8-17.67v70.78zM15.15 35.61L47 17.89l.31.11 31.54 17.56-63.7 35.38V35.61zM44 87.07l-28.73-16 63.7-35.39v35.38L47 88.78zm-28.85 55.21L47 124.56l31.8 17.67-63.7 35.39v-35.34zm.1 35.5l63.7-35.39v35.33L47 195.44zm23.64 119.8l-23.74-13.19v-35.45l31.8-17.67v70.78zM47 337.89l28.12 15.62 3.78 2.1v35.33l-63.7-35.39zm-31.9 35.46v-17.63l63.7 35.39L47 408.78l-31.9-17.72v-17.71zm31.8 35.6v35.44l-31.8 17.67v-70.78zm-31.8 88.78v-35.45l31.8-17.67v70.78zM47 622.11l-23.1-12.86-8.75-4.86v-35.33l63.7 35.39zm31.9-17.83l-63.7-35.39 18.93-10.49L47 551.22l25.41 14.12 6.48 3.6v35.33zm32 17.78L89.78 610.3l-10.63-5.91v-35.44l31.8-17.67v70.78zm0-88.74v17.74L79 568.78l-7.53-4.18-24.22-13.49 63.7-35.39v17.6zm.1-17.87l-16.42-9.13-15.38-8.54 63.7-35.39v35.33zm31.9 88.94l-14 7.78-17.8 9.89v-70.78l31.8 17.67v35.44zm.1-35.61l-31.9-17.72v-35.34l63.7 35.39-7.16 4zm42.63 47.43l-10.63 5.9-31.9-17.72v-35.33l63.7 35.39zm21.27-11.93l-63.7-35.39 21.81-12.12 10-5.55 21.3 11.78 10.63 5.91v35.33zm32 17.78l-21.12-11.76-10.63-5.91v-35.44l31.8-17.67v70.78zm0-88.74v17.74L207 568.78l-11.53-6.4-20.27-11.26 63.7-35.39v17.6zm.1-17.87l-16.42-9.13-15.38-8.54 63.7-35.39v35.33zm31.9 88.94l-14 7.78-17.8 9.89v-70.78l31.8 17.67v35.44zm.1-35.61l-31.9-17.72v-35.34l63.7 35.39-7.16 4zm42.63 47.43l-10.63 5.9-31.9-17.72v-35.33l63.7 35.39zm21.27-11.93l-63.7-35.39 21.81-12.12 10-5.55 21.3 11.78 10.63 5.91v35.33zm32 17.78l-21.12-11.76-10.63-5.91v-35.44l31.8-17.67v70.78zm0-88.74v17.74L335 568.78l-11.53-6.4-20.27-11.26 63.7-35.39v17.6zm.1-17.87l-16.42-9.13-15.37-8.54 63.7-35.39v35.33zm31.9 88.94l-14 7.78-17.8 9.89v-70.78l31.8 17.67v35.44zm.1-35.61l-31.9-17.72v-35.34l63.7 35.39-7.16 4zm42.63 47.43l-10.63 5.9-31.9-17.72v-35.33l63.7 35.39zm21.27-11.93l-63.7-35.39 21.81-12.12 10-5.55 21.3 11.78 10.63 5.91v35.33zm32 17.78l-21.12-11.76-10.63-5.91v-35.44l31.8-17.67v70.78zm0-88.74v17.74L463 568.78l-11.53-6.4-20.27-11.26 63.7-35.39v17.6zm-16.32-27l-15.37-8.54 63.7-35.39v35.33L495 515.45zm48.32 98.07l-14 7.78-17.8 9.89v-70.78l31.8 17.67v35.44zm.1-35.61l-31.9-17.72v-35.34l63.7 35.39-7.16 4zm42.63 47.43l-10.63 5.9-31.9-17.72v-35.33l63.7 35.39zm21.27-11.93l-63.7-35.39 21.81-12.12 10-5.55 21.3 11.78 10.63 5.91v35.33zm32 17.78l-21.12-11.76-10.63-5.91v-35.44l31.8-17.67v70.78zm0-88.74v17.74L591 568.78l-11.53-6.4-20.27-11.26 63.7-35.39v17.6zm-16.52-26.89l16.42 9.12-63.7 35.39v-35.33l31.9-17.72zM591 462.11l-7.86-4.37-24-13.35v-35.33l63.7 35.39zm15.09-62.51l16.81 9.34v35.33l-63.7-35.39 31.8-17.66zm16.82-97.32v35.44l-3.62 2-28.18 15.66v-70.77zM591 248.78l-31.9-17.72v-35.34l63.7 35.39zm31.9-17.83l-63.7-35.39 31.8-17.67 31.9 17.72v35.33zm0-35.56l-7.39-4.1-24.41-13.56v-35.45l31.8-17.67v70.78zm0-106.44v35.44l-31.8 17.67V71.28z"/></svg>