<svg id="Layer_1" data-name="Layer 1" xmlns="http://www.w3.org/2000/svg" viewBox="0 0 1870.42 351.63"><defs><style>.cls-1{fill:#fff}.cls-2{fill:url(#linear-gradient)}.cls-3{mask:url(#mask)}.cls-4{fill:#afd8eb}.cls-5{fill:#e3f3fb}</style><linearGradient id="linear-gradient" x1="354.97" y1="-863.15" x2="391.67" y2="-863.15" gradientTransform="rotate(-67.8 1848.79 -1479.124)" gradientUnits="userSpaceOnUse"><stop offset="0" stop-opacity="0"/><stop offset=".97"/></linearGradient><mask id="mask" x="9" y="-45.67" width="1897.2" height="472.48" maskUnits="userSpaceOnUse"><path class="cls-1" d="M629-20.99h1277.2v472.48H629z" transform="translate(0 -24.69)"/><path class="cls-2" d="M1878.42 107.38l-12.91 33.8-20.79-9.07 12.9-33.8 20.8 9.07z" transform="translate(0 -24.69)"/></mask></defs><title>img-home-graphic-empty</title><path class="cls-3 cls-4" d="M1241 358.5H9v-3h1232c53.38 0 78.07-53.9 99.86-101.46 16.48-36 30.71-67 54.43-67 28.88 0 44.92 27.85 60.43 54.77 13.4 23.26 26 45.23 45.47 45.23 25.85 0 49.67-59.1 72.71-116.26 25.41-63 51.68-128.24 84.4-128.24 22.79 0 41.61 39.27 61.54 80.85 20.89 43.58 42.48 88.65 68.88 88.65 40.1 0 78.5-107.91 78.88-109l2.83 1a438.23 438.23 0 0 1-24.63 55.22c-20 37-39.22 55.79-57.08 55.79-28.28 0-50.29-45.93-71.58-90.35-18.65-38.91-37.93-79.15-58.83-79.15-30.69 0-56.58 64.24-81.62 126.37-24.5 60.7-47.62 118.08-75.5 118.08-21.16 0-34.23-22.7-48.07-46.73-15.12-26.19-30.69-53.27-57.83-53.27-21.79 0-35.65 30.26-51.7 65.29-10.6 23.13-22.61 49.35-38.53 69.18-18.4 22.9-39.35 34.03-64.06 34.03z" transform="translate(0 -24.69)"/><path class="cls-1" d="M1395.29 207.82a19.32 19.32 0 1 1 19.32-19.32 19.34 19.34 0 0 1-19.32 19.32zm0-36.63a17.32 17.32 0 1 0 17.32 17.31 17.33 17.33 0 0 0-17.32-17.31z" transform="translate(0 -24.69)"/><circle class="cls-5" cx="1395.29" cy="163.81" r="12"/><path class="cls-1" d="M1501.19 307.82a19.32 19.32 0 1 1 19.31-19.32 19.34 19.34 0 0 1-19.31 19.32zm0-36.63a17.32 17.32 0 1 0 17.31 17.32 17.33 17.33 0 0 0-17.31-17.33z" transform="translate(0 -24.69)"/><circle class="cls-5" cx="1501.19" cy="263.81" r="12"/><path class="cls-1" d="M1658.29 63.31A19.31 19.31 0 1 1 1677.61 44a19.34 19.34 0 0 1-19.32 19.31zm0-36.63A17.31 17.31 0 1 0 1675.61 44a17.33 17.33 0 0 0-17.32-17.31z" transform="translate(0 -24.69)"/><circle class="cls-5" cx="1658.29" cy="19.31" r="12"/><path class="cls-1" d="M1241 376.32a19.32 19.32 0 1 1 19.32-19.32 19.34 19.34 0 0 1-19.32 19.32zm0-36.63a17.32 17.32 0 1 0 17.32 17.31 17.33 17.33 0 0 0-17.32-17.32z" transform="translate(0 -24.69)"/><circle class="cls-5" cx="1241" cy="332.31" r="12"/><path class="cls-1" d="M1788.71 232.82A19.32 19.32 0 1 1 1808 213.5a19.34 19.34 0 0 1-19.29 19.32zm0-36.63A17.32 17.32 0 1 0 1806 213.5a17.33 17.33 0 0 0-17.29-17.31z" transform="translate(0 -24.69)"/><circle class="cls-5" cx="1788.71" cy="188.81" r="12"/><path class="cls-4" d="M0 330.81h634.3v3H0z"/></svg>