<svg id="Layer_1" xmlns="http://www.w3.org/2000/svg" viewBox="0 0 136 613"><style>.st0{opacity:.6}.st1{opacity:.7}.st2{fill:#00b3dc}</style><title>img-wires-left</title><g id="Solution" class="st0"><g id="Solution_UI" transform="translate(0 -987)"><g id="ValueProp" transform="translate(0 962)"><g id="Mask-_x2B_-Page-1-Copy-_x2B_-Page-1" transform="translate(0 25)"><g id="img-wires-left" transform="translate(-864 -246)" class="st1"><g id="Page-1"><path id="Fill-22" class="st2" d="M936.1 136.8l-107 151.4 114.3-25.4-7.3-126zM828.7 288.7l-.2-.3 107.6-152.3.4.1 7.5 126.7-.2.2-115.1 25.6z"/><path id="Fill-23" class="st2" d="M829 288.6l71.5 119.2 42.9-144.6L829 288.6zm71.4 119.8l-71.9-119.8.1-.3 115-25.6.2.3-43.1 145.3-.3.1z"/><path id="Fill-44" class="st2" d="M829 527.9l166.5 50.9-94.9-170.2L829 527.9zm166.8 51.4l-167.2-51.1-.1-.3 71.9-119.8h.3L996 579l-.2.3z"/><path id="Fill-45" class="st2" d="M829.1 528.4l71.5 119.1 94.8-68.3-166.3-50.8zM900.7 648l-.3-.1-71.9-119.8.2-.3 167.2 51.1.1.4-95.3 68.7z"/><path id="Fill-64" class="st2" d="M722.6 144.9l106.1 143.2 107.2-151.7-213.3 8.5zm105.9 143.7L722 144.9l.2-.3 214.1-8.5.2.3-107.7 152.2h-.3z"/><path id="Fill-75" class="st2" d="M736.7 755.1l-14.3 108.1 181.2-61.4-166.9-46.7zm-14.5 108.5l-.3-.2 14.4-108.6.3-.2 167.7 46.8v.4l-182.1 61.8z"/><path id="Fill-76" class="st2" d="M904.2 801.9l-180.6 61.3 212.3-8.5-31.7-52.8zm-182 61.7l-.1-.4 182.1-61.8.2.1 31.9 53.2-.2.3-213.9 8.6z"/><path id="Fill-77" class="st2" d="M788.5 362.9l111.6 44.9-71.4-119-40.2 74.1zm112 45.5l-112.4-45.2-.1-.3 40.5-74.5h.3l71.9 119.8-.2.2z"/><path id="Fill-78" class="st2" d="M788.5 363.3l40.3 164.2 71.5-119.2-111.8-45zm40.3 164.8l-.4-.1L788 363l.3-.2L900.7 408l.1.3-72 119.8z"/><path id="Fill-79" class="st2" d="M828.7 528.5l-63.6 166.4 135.1-47.2-71.5-119.2zm-63.9 166.9l-.3-.3 64-167.1h.4l71.9 119.8-.1.3-135.9 47.3z"/><path id="Fill-80" class="st2" d="M736.8 754.7l166.5 46.5-138.4-105.7-28.1 59.2zm167.4 47.2L736.5 755l-.1-.3 28.2-59.6.3-.1 139.5 106.5-.2.4z"/><path id="Fill-81" class="st2" d="M765.2 695.3l138.9 106-3.7-153.2-135.2 47.2zm139 106.5L764.7 695.3l.1-.3 135.8-47.4.3.2 3.7 153.9-.4.1z"/><g id="Group-198"><path id="Fill-105" class="st2" d="M943.7 259.6c-1.8 0-3.3 1.5-3.3 3.3 0 1.8 1.5 3.3 3.3 3.3 1.8 0 3.3-1.5 3.3-3.3 0-1.8-1.5-3.3-3.3-3.3"/><path id="Fill-127" class="st2" d="M995.9 575.8c-1.8 0-3.3 1.5-3.3 3.3 0 1.8 1.5 3.3 3.3 3.3 1.8 0 3.3-1.5 3.3-3.3 0-1.8-1.5-3.3-3.3-3.3"/><path id="Fill-170" class="st2" d="M936.2 851.6c-1.8 0-3.3 1.5-3.3 3.3 0 1.8 1.5 3.3 3.3 3.3 1.8 0 3.3-1.5 3.3-3.3.1-1.8-1.4-3.3-3.3-3.3"/><path id="Fill-174" class="st2" d="M900.6 411.6c1.8 0 3.3-1.5 3.3-3.3 0-1.8-1.5-3.3-3.3-3.3-1.8 0-3.3 1.5-3.3 3.3-.1 1.8 1.4 3.3 3.3 3.3"/><path id="Fill-180" class="st2" d="M903.9 647.8c0-1.8-1.5-3.3-3.3-3.3-1.8 0-3.3 1.5-3.3 3.3 0 1.8 1.5 3.3 3.3 3.3 1.8 0 3.3-1.5 3.3-3.3"/><path id="Fill-182" class="st2" d="M904.3 798.3c-1.8 0-3.3 1.5-3.3 3.3 0 1.8 1.5 3.3 3.3 3.3 1.8 0 3.3-1.5 3.3-3.3 0-1.8-1.5-3.3-3.3-3.3"/></g></g></g></g></g></g></g></svg>