<svg id="Layer_1" xmlns="http://www.w3.org/2000/svg" viewBox="0 0 167 827"><style>.st0{opacity:.6}.st1{opacity:.7}.st2{fill:#4ccae7}</style><title>img-wires-right</title><g id="Solution" class="st0"><g id="Solution_UI" transform="translate(-1113 -1025)"><g id="ValueProp" transform="translate(0 962)"><g id="Group-9" transform="translate(60)"><g id="img-wires-right" transform="translate(1053 17)" class="st1"><path id="Fill-5" class="st2" d="M25 51.3L5 202.6l253.7-86L25 51.3zm-20.3 152l-.3-.3L24.5 51l.4-.2 234.8 65.6v.5l-255 86.4z"/><path id="Fill-10" class="st2" d="M259.5 116.9L6.6 202.7l297.3-11.8-44.4-74zM4.7 203.3l-.1-.5 255-86.5.3.1 44.7 74.5-.2.4-299.7 12z"/><path id="Fill-15" class="st2" d="M304.1 191.9L154.4 403.8l160.1-35.6-10.4-176.3zM153.8 404.5l-.3-.4 150.6-213.2.5.1L315 368.4l-.2.3-161 35.8z"/><path id="Fill-17" class="st2" d="M5.2 203.3l148.5 200.5 150-212.4L5.2 203.3zm148.3 201.1L4.4 203.2l.2-.4 299.7-11.9.2.4L154 404.4h-.5z"/><path id="Fill-21" class="st2" d="M154.2 404.4l100.1 166.8 60.1-202.4-160.2 35.6zm100 167.7L153.5 404.4l.2-.4 161-35.8.3.4L254.7 572l-.5.1z"/><path id="Fill-32" class="st2" d="M97.5 508.5l156.2 62.9-100-166.6-56.2 103.7zm156.8 63.7L97 508.9l-.1-.4 56.7-104.3h.5l100.6 167.7-.4.3z"/><path id="Fill-37" class="st2" d="M154.2 739.5l233.1 71.2-132.9-238.2-100.2 167zm233.5 72L153.6 740l-.2-.4L254 571.9h.5l133.4 239.2-.2.4z"/><path id="Fill-39" class="st2" d="M97.5 509.1L153.9 739 254 572.1l-156.5-63zM154 739.8l-.5-.1-56.7-231 .4-.3 157.3 63.3.1.4L154 739.8z"/><path id="Fill-43" class="st2" d="M154.4 740.1l100.1 166.8 132.7-95.6-232.8-71.2zm100.2 167.5l-.4-.1-100.7-167.7.3-.4 234.1 71.5.1.5-133.4 96.2z"/><g id="Group-198"><path id="Fill-85" class="st2" d="M24.8 46.3c-2.6 0-4.7 2.1-4.7 4.7s2.1 4.7 4.7 4.7 4.7-2.1 4.7-4.7c-.1-2.6-2.1-4.7-4.7-4.7"/><path id="Fill-97" class="st2" d="M4.7 198.4c-2.6 0-4.7 2.1-4.7 4.7s2.1 4.7 4.7 4.7 4.7-2.1 4.7-4.7c-.1-2.6-2.2-4.7-4.7-4.7"/><path id="Fill-115" class="st2" d="M153.8 399.6c-2.6 0-4.7 2.1-4.7 4.7s2.1 4.7 4.7 4.7 4.7-2.1 4.7-4.7c-.1-2.6-2.2-4.7-4.7-4.7"/><path id="Fill-119" class="st2" d="M97.1 503.9c-2.6 0-4.7 2.1-4.7 4.7s2.1 4.7 4.7 4.7 4.7-2.1 4.7-4.7-2.1-4.7-4.7-4.7"/><path id="Fill-137" class="st2" d="M153.8 735c-2.6 0-4.7 2.1-4.7 4.7s2.1 4.7 4.7 4.7 4.7-2.1 4.7-4.7c-.1-2.6-2.2-4.7-4.7-4.7"/></g></g></g></g></g></g></svg>