<svg id="Layer_1" xmlns="http://www.w3.org/2000/svg" viewBox="0 0 2347.5 443.9"><style>.st0{fill:#afd8eb}.st1{fill:#fff}.st2{fill:#e3f3fb}.st3{fill:#f5f6f9}.st4{fill:#b4d9ec}.st5{fill:#f05d5c}.st6{fill:#6c6c6c}.st7{fill:#50b942}</style><title>img-home-graphic</title><path class="st0" d="M792.4 426H0v-3h792.4c69.4 0 101.4-69.9 129.7-131.6 21.3-46.4 39.6-86.5 70.1-86.5 37.1 0 57.8 35.9 77.9 70.7 17.4 30.2 33.9 58.8 59.3 58.8 33.8 0 64.7-76.7 94.5-150.8 32.8-81.5 66.8-165.8 108.9-165.8 39 0 69.6 65.4 101.9 134.7 36.4 77.9 74 158.5 127.1 158.5h785.8v3h-785.8c-55 0-93-81.5-129.8-160.3-31.9-68.4-62.1-133-99.2-133-40 0-73.6 83.3-106.1 163.9-31.6 78.5-61.5 152.7-97.3 152.7-27.1 0-44-29.3-61.9-60.3-19.6-34-39.9-69.2-75.3-69.2-28.5 0-46.5 39.3-67.3 84.8-13.7 29.9-29.2 63.8-49.8 89.5-23.8 29.6-50.9 43.9-82.7 43.9z"/><path class="st1" d="M1129.3 355.2c-10.7 0-19.3-8.7-19.3-19.3s8.7-19.3 19.3-19.3 19.3 8.7 19.3 19.3-8.7 19.3-19.3 19.3zm0-36.6c-9.6 0-17.3 7.8-17.3 17.3s7.8 17.3 17.3 17.3 17.3-7.8 17.3-17.3-7.8-17.3-17.3-17.3z"/><circle class="st2" cx="1129.3" cy="335.9" r="12"/><path class="st1" d="M992.1 225.7c-10.7 0-19.3-8.7-19.3-19.3s8.7-19.3 19.3-19.3c10.7 0 19.3 8.7 19.3 19.3s-8.6 19.3-19.3 19.3zm0-36.6c-9.6 0-17.3 7.8-17.3 17.3s7.8 17.3 17.3 17.3 17.3-7.8 17.3-17.3-7.7-17.3-17.3-17.3z"/><circle class="st2" cx="992.2" cy="206.4" r="12"/><path class="st1" d="M792.4 443.9c-10.7 0-19.3-8.7-19.3-19.3 0-10.7 8.7-19.3 19.3-19.3 10.7 0 19.3 8.7 19.3 19.3 0 10.6-8.7 19.3-19.3 19.3zm0-36.7c-9.6 0-17.3 7.8-17.3 17.3s7.8 17.3 17.3 17.3 17.3-7.8 17.3-17.3-7.8-17.3-17.3-17.3z"/><circle class="st2" cx="792.4" cy="424.6" r="12"/><path class="st1" d="M1561.7 331.9c-10.7 0-19.3-8.7-19.3-19.3 0-10.7 8.7-19.3 19.3-19.3s19.3 8.7 19.3 19.3c0 10.6-8.7 19.3-19.3 19.3zm0-36.7c-9.6 0-17.3 7.8-17.3 17.3 0 9.6 7.8 17.3 17.3 17.3s17.3-7.8 17.3-17.3-7.8-17.3-17.3-17.3z"/><circle class="st2" cx="1561.7" cy="312.5" r="12"/><path class="st1" d="M1332.7 38.6c-10.7 0-19.3-8.7-19.3-19.3 0-10.7 8.7-19.3 19.3-19.3 10.7 0 19.3 8.7 19.3 19.3 0 10.7-8.7 19.3-19.3 19.3zm0-36.6c-9.5 0-17.3 7.8-17.3 17.3s7.8 17.3 17.3 17.3c9.6 0 17.3-7.8 17.3-17.3S1342.2 2 1332.7 2z"/><circle class="st2" cx="1332.7" cy="19.3" r="12"/><path class="st3" d="M1248.1 146.1h169.2c3 0 5.4-2.4 5.4-5.4V61.5c0-3-2.4-5.4-5.4-5.4H1342l-9.3-8.5-9.3 8.5h-75.3c-3 0-5.4 2.4-5.4 5.4v79.2c0 3 2.4 5.4 5.4 5.4z"/><path class="st4" d="M1417.3 146.6h-169.2c-3.2 0-5.9-2.6-5.9-5.9V61.5c0-3.2 2.6-5.9 5.9-5.9h75.1l9.5-8.7 9.5 8.7h75.1c3.2 0 5.9 2.6 5.9 5.9v79.2c0 3.3-2.7 5.9-5.9 5.9zm-169.2-89.9c-2.7 0-4.9 2.2-4.9 4.9v79.2c0 2.7 2.2 4.9 4.9 4.9h169.2c2.7 0 4.9-2.2 4.9-4.9V61.5c0-2.7-2.2-4.9-4.9-4.9h-75.5l-9.1-8.3-9.1 8.3h-75.5z"/><path class="st5" d="M1295.3 73.9h74.8c1.3 0 2.3 1.1 2.3 2.3v14.3c0 1.3-1.1 2.3-2.3 2.3h-74.8c-1.3 0-2.3-1.1-2.3-2.3V76.2c-.1-1.2 1-2.3 2.3-2.3z"/><path class="st1" d="M1309.1 80.7h1l3.4 4.4v-4.4h1.1V87h-.9l-3.4-4.5V87h-1.1v-6.3h-.1zM1316.2 80.7h4.7v1h-3.6v1.6h3.2v1h-3.2V86h3.6v1h-4.7v-6.3zM1322 83.9c0-1.8 1.4-3.2 3.2-3.3h.1c.9 0 1.8.3 2.4.9l-.7.8c-.5-.5-1.1-.7-1.8-.7-1.2.1-2.1 1.1-2 2.2-.1 1.2.8 2.2 1.9 2.2h.2c.5 0 1.1-.2 1.5-.5v-1.2h-1.6v-1h2.7V86c-.7.6-1.7 1-2.6 1-1.7.1-3.2-1.2-3.3-2.9v-.2zM1331.5 80.7h1l2.8 6.4h-1.2l-.6-1.5h-3l-.7 1.5h-1.1l2.8-6.4zm1.6 3.8L1332 82l-1.1 2.5h2.2zM1338 81.8h-2v-1h5.1v1h-2v5.3h-1.1v-5.3zM1342.3 80.7h1.1V87h-1.1v-6.3zM1344.6 80.7h1.2l1.9 4.8 1.9-4.8h1.2l-2.6 6.3h-1l-2.6-6.3zM1351.8 80.7h4.7v1h-3.6v1.6h3.2v1h-3.2V86h3.6v1h-4.7v-6.3z"/><path class="st6" d="M1260.6 106.6h5.5v.8h-4.7v2.8h4.2v.8h-4.2v3.4h-.9l.1-7.8zM1267.6 108.6h.9v1.5c.4-1 1.3-1.6 2.3-1.6v.9h-.1c-1.2 0-2.2.9-2.2 2.6v2.3h-.8l-.1-5.7zM1272 112.1v-3.5h.8v3.3c-.1.8.5 1.6 1.3 1.7h.3c.9 0 1.7-.7 1.7-1.6v-3.4h.8v5.7h-.8v-1c-.4.7-1.1 1.1-1.9 1.1-1.1.1-2.1-.8-2.2-2v-.3zM1278.4 113.5l.4-.6c.6.5 1.3.7 2 .7.5.1 1.1-.3 1.2-.8v-.1c0-.6-.7-.8-1.4-1s-1.9-.6-1.9-1.6c0-.9.8-1.7 1.8-1.6h.1c.7 0 1.4.2 2 .6l-.4.6c-.5-.3-1.1-.5-1.7-.6-.5-.1-1 .2-1.1.8v.1c0 .5.7.8 1.5 1s1.8.6 1.8 1.6-.9 1.8-1.9 1.7h-.1c-.8.1-1.6-.3-2.3-.8zM1284.6 112.7v-3.4h-.8v-.7h.8v-1.7h.9v1.7h1.8v.8h-1.8v3.2c-.1.5.2.9.7 1h.3c.3 0 .6-.1.8-.2v.7c-.3.2-.7.2-1 .2-.8.1-1.5-.4-1.7-1.2v-.4zM1288.8 108.6h.8v1.5c.4-1 1.3-1.6 2.3-1.6v.9h-.1c-1.2 0-2.2.9-2.2 2.6v2.3h-.8v-5.7zM1292.8 112.6c0-1.2 1-1.8 2.4-1.8.6 0 1.2.1 1.8.2v-.2c.1-.8-.6-1.5-1.4-1.6h-.3c-.6 0-1.2.2-1.7.4l-.2-.7c.6-.3 1.4-.5 2.1-.5.7 0 1.3.2 1.8.6.4.5.6 1.1.6 1.7v3.5h-.8v-.9c-.5.6-1.3 1-2.1 1-1.1.1-2-.7-2.1-1.7h-.1zm4.2-.5v-.6c-.5-.2-1.1-.2-1.7-.2-1.1 0-1.7.5-1.7 1.2.1.7.7 1.2 1.4 1.1h.1c.9.1 1.8-.5 1.9-1.5zM1299.9 112.7v-3.4h-.8v-.7h.8v-1.7h.8v1.7h1.8v.8h-1.8v3.2c-.1.5.2.9.7 1h.3c.3 0 .6-.1.8-.2v.7c-.3.2-.7.2-1 .2-.8.1-1.5-.4-1.7-1.2.1-.2.1-.3.1-.4zM1304.1 106.4h1v.9h-1v-.9zm0 2.1h.8v5.7h-.8v-5.7zM1306.9 108.6h.8v1c.4-.7 1.1-1.1 1.9-1.1 1.1-.1 2.1.8 2.2 2v3.8h-.8V111c.1-.8-.5-1.6-1.3-1.7h-.3c-.9 0-1.7.7-1.7 1.6v3.5h-.8v-5.8zM1313.7 115.2l.4-.7c.6.5 1.4.7 2.2.7 1 .1 2-.6 2.1-1.7v-1c-.5.7-1.3 1.2-2.2 1.2-1.5 0-2.6-1.1-2.7-2.6v-.1c0-1.5 1.2-2.7 2.7-2.7.9 0 1.7.4 2.2 1.1v-1h.8v4.7c0 .7-.2 1.5-.7 2-.6.5-1.4.8-2.2.8-1 .1-1.9-.2-2.6-.7zm4.6-4.1c0-1.1-1-2-2.1-1.9-1-.1-1.9.7-2 1.8v.2c0 1.1.8 1.9 1.9 1.9h.1c1.1 0 2.1-.9 2.1-2zM1324 111.4c-.1-1.5 1.1-2.9 2.6-3h.1c1.5 0 2.7 1.3 2.7 2.8v.5h-4.5c0 1.1.9 1.9 2 1.9.7 0 1.3-.3 1.8-.8l.5.5c-.6.7-1.4 1.1-2.3 1.1-1.6 0-2.8-1.2-2.9-2.8v-.2zm4.5-.3c0-1-.8-1.9-1.8-1.9-1 .1-1.8.9-1.8 1.9h3.6zM1330.8 108.6h.8v1c.4-.7 1.1-1.1 1.9-1.1 1.1-.1 2.1.8 2.2 2v3.8h-.8V111c.1-.8-.5-1.6-1.3-1.7h-.3c-.9 0-1.7.7-1.7 1.6v3.5h-.8v-5.8zM1337.3 111.4c0-1.7 1.4-3 3-2.9.8 0 1.6.4 2.1.9l-.6.6c-.4-.5-1.1-.8-1.7-.9-1.2.1-2.1 1-2 2.2 0 1.2.9 2.2 2 2.2h.1c.7 0 1.3-.3 1.7-.9l.5.5c-1 1.3-2.8 1.5-4.1.5-.6-.4-1-1.3-1-2.2zM1343.5 111.4c.3-1.6 1.8-2.8 3.4-2.5 1.3.2 2.3 1.2 2.5 2.5 0 1.7-1.3 3-3 3-1.6 0-2.9-1.3-2.9-2.9v-.1zm5.1 0c0-1.2-.9-2.2-2.1-2.2-1.2 0-2.1 1-2.1 2.1v.1c0 1.2.9 2.1 2.1 2.2 1.2 0 2.1-1 2.1-2.2zM1350.9 112.1v-3.5h.8v3.3c-.1.8.5 1.6 1.3 1.7h.3c.9 0 1.7-.7 1.7-1.6v-3.4h.8v5.7h-.8v-1c-.4.7-1.1 1.1-1.9 1.1-1.1.1-2.1-.8-2.2-2v-.3zM1357.8 108.6h.8v1c.4-.7 1.1-1.1 1.9-1.1 1.1-.1 2.1.8 2.2 2v3.8h-.8V111c.1-.8-.5-1.6-1.3-1.7h-.3c-.9 0-1.7.7-1.7 1.6v3.5h-.8v-5.8zM1364.8 112.7v-3.4h-.8v-.7h.8v-1.7h.8v1.7h1.8v.8h-1.8v3.2c-.1.5.2.9.7 1h.3c.3 0 .6-.1.8-.2v.7c-.3.2-.7.2-1 .2-.8.1-1.5-.4-1.7-1.2.1-.1.1-.3.1-.4zM1368.6 111.4c-.1-1.5 1.1-2.9 2.6-3h.1c1.5 0 2.7 1.3 2.7 2.8v.5h-4.5c0 1.1.9 1.9 2 1.9.7 0 1.3-.3 1.8-.8l.5.5c-.6.7-1.4 1.1-2.3 1.1-1.6 0-2.8-1.3-2.8-2.8-.1-.1-.1-.2-.1-.2zm4.6-.3c0-1-.8-1.9-1.8-1.9-1 .1-1.8.9-1.8 1.9h3.6zM1375.5 108.6h.8v1.5c.4-1 1.3-1.6 2.3-1.6v.9h-.1c-1.2 0-2.2.9-2.2 2.6v2.3h-.8v-5.7zM1382.8 108.6h.9l1.5 4.6 1.5-4.6h.7l1.5 4.6 1.5-4.6h.9l-2 5.7h-.7l-1.5-4.5-1.5 4.5h-.8l-2-5.7zM1392.8 106.4h1v.9h-1v-.9zm0 2.1h.8v5.7h-.8v-5.7zM1395.9 112.7v-3.4h-.8v-.7h.8v-1.7h.8v1.7h1.8v.8h-1.8v3.2c-.1.5.2.9.7 1h.3c.3 0 .6-.1.8-.2v.7c-.3.2-.7.2-1 .2-.8.1-1.5-.4-1.7-1.2.1-.1.1-.3.1-.4zM1400.1 106.2h.8v3.4c.4-.7 1.1-1.1 1.9-1.1 1.1-.1 2.1.8 2.2 2v3.8h-.8V111c.1-.8-.5-1.6-1.3-1.7h-.3c-.9 0-1.7.7-1.7 1.6v3.5h-.8v-8.2zM1253.7 123.3h-.8v-.7h.8v-.5c0-.5.1-1.1.5-1.5.3-.3.8-.5 1.2-.4.3 0 .6 0 .9.1v.7c-.3-.1-.5-.1-.8-.1-.6 0-1 .4-1 1V122.5h1.8v.7h-1.8v4.9h-.8v-4.8zM1257.4 122.6h.8v1.5c.4-1 1.3-1.6 2.3-1.6v.9h-.1c-1.2 0-2.2.9-2.2 2.6v2.3h-.8v-5.7zM1261.5 125.4c.3-1.6 1.8-2.8 3.4-2.5 1.3.2 2.3 1.2 2.5 2.5 0 1.7-1.3 3-3 3-1.6 0-2.9-1.3-2.9-2.9v-.1zm5.1 0c0-1.2-.9-2.2-2.1-2.2-1.2 0-2.1 1-2.1 2.1v.1c0 1.2.9 2.1 2.1 2.2 1.2-.1 2.1-1 2.1-2.2zM1269 122.6h.8v1c.4-.7 1.1-1.1 1.9-1.1 1.1-.1 2.1.8 2.2 2v3.8h-.8V125c.1-.8-.5-1.6-1.3-1.7h-.3c-.9 0-1.7.7-1.7 1.6v3.5h-.8v-5.8zM1276 126.7v-3.4h-.8v-.7h.8v-1.7h.8v1.7h1.8v.8h-1.8v3.2c-.1.5.2.9.7 1h.3c.3 0 .6-.1.8-.2v.7c-.3.2-.7.2-1 .2-.8.1-1.5-.4-1.7-1.2.1-.1.1-.3.1-.4zM1280.3 120.2h.8v8h-.8v-8zM1283.1 120.4h1v.9h-1v-.9zm.1 2.1h.8v5.7h-.8v-5.7zM1286 122.6h.8v1c.4-.7 1.1-1.1 1.9-1.1 1.1-.1 2.1.8 2.2 2v3.8h-.8V125c.1-.8-.5-1.6-1.3-1.7h-.3c-.9 0-1.7.7-1.7 1.6v3.5h-.8v-5.8zM1292.4 125.4c-.1-1.5 1.1-2.9 2.6-3h.1c1.5 0 2.7 1.3 2.7 2.8v.5h-4.5c0 1.1.9 1.9 2 1.9.7 0 1.3-.3 1.8-.8l.5.5c-.6.7-1.4 1.1-2.3 1.1-1.6 0-2.8-1.2-2.9-2.8v-.2zm4.5-.3c0-1-.8-1.9-1.8-1.9-1 .1-1.8.9-1.8 1.9h3.6zM1302.1 127.5l.4-.6c.6.5 1.3.7 2 .7.5.1 1.1-.3 1.2-.8v-.1c0-.6-.7-.8-1.4-1s-1.9-.6-1.9-1.6c0-.9.8-1.7 1.8-1.6h.1c.7 0 1.4.2 2 .6l-.4.6c-.5-.3-1.1-.5-1.7-.6-.5-.1-1 .2-1.1.8v.1c0 .5.7.8 1.5 1s1.9.5 1.9 1.5-.9 1.8-1.9 1.7h-.1c-.9.1-1.7-.2-2.4-.7zM1308.3 126.7v-3.4h-.8v-.7h.8v-1.7h.8v1.7h1.8v.8h-1.8v3.2c-.1.5.2.9.7 1h.3c.3 0 .6-.1.8-.2v.7c-.3.2-.7.2-1 .2-.8.1-1.5-.4-1.6-1.2v-.4zM1312.1 126.6c0-1.2 1-1.8 2.4-1.8.6 0 1.2.1 1.8.2v-.2c.1-.8-.6-1.5-1.4-1.6h-.3c-.6 0-1.2.2-1.7.4l-.2-.7c.6-.3 1.4-.5 2.1-.5.7 0 1.3.2 1.8.6.4.5.6 1.1.6 1.7v3.5h-.8v-.9c-.5.6-1.3 1-2.1 1-1.1.1-2-.7-2.1-1.7h-.1zm4.1-.5v-.6c-.5-.2-1.1-.2-1.7-.2-1.1 0-1.7.5-1.7 1.2.1.7.7 1.2 1.4 1.1h.1c1 .1 1.8-.5 1.9-1.5zM1319.2 123.3h-.8v-.7h.8v-.5c0-.5.1-1.1.5-1.5.3-.3.8-.5 1.2-.4.3 0 .6 0 .9.1v.7c-.3-.1-.5-.1-.8-.1-.6 0-1 .4-1 1V122.5h1.8v.7h-1.8v4.9h-.8v-4.8zM1323.2 123.3h-.8v-.7h.8v-.5c0-.5.1-1.1.5-1.5.3-.3.8-.5 1.2-.4.3 0 .6 0 .9.1v.7c-.3-.1-.5-.1-.8-.1-.6 0-1 .4-1 1V122.5h1.8v.7h-1.8v4.9h-.8v-4.8zM1330.2 122.6h.8v1c.4-.7 1.1-1.1 1.8-1.1.8 0 1.5.4 1.8 1.1.4-.7 1.2-1.1 2-1.1 1.1-.1 2.1.8 2.1 1.9v3.9h-.8V125c.1-.8-.4-1.6-1.2-1.7h-.3c-.9 0-1.6.7-1.6 1.6v3.4h-.8V125c.1-.8-.4-1.6-1.2-1.7h-.2c-.9 0-1.6.8-1.6 1.7V128.3h-.8v-5.7zM1340.3 125.4c-.1-1.5 1.1-2.9 2.6-3h.1c1.5 0 2.7 1.3 2.7 2.8v.5h-4.5c0 1.1.9 1.9 2 1.9.7 0 1.3-.3 1.8-.8l.5.5c-.6.7-1.4 1.1-2.3 1.1-1.6 0-2.8-1.2-2.9-2.8v-.2zm4.5-.3c0-1-.8-1.9-1.8-1.9-1 .1-1.8.9-1.8 1.9h3.6zM1347.2 122.6h.8v1c.4-.7 1.1-1.1 1.8-1.1.8 0 1.5.4 1.8 1.1.4-.7 1.2-1.1 2-1.1 1.1-.1 2.1.8 2.1 1.9v3.9h-.8V125c.1-.8-.4-1.6-1.2-1.7h-.3c-.9 0-1.6.7-1.6 1.6v3.4h-.8V125c.1-.8-.4-1.6-1.2-1.7h-.2c-.9 0-1.6.8-1.6 1.7V128.3h-.8v-5.7zM1358.5 127.1v1.1h-.8v-8h.8v3.5c.5-.8 1.3-1.3 2.2-1.3 1.5 0 2.8 1.3 2.7 2.8v.1c.1 1.5-1 2.9-2.6 3h-.1c-.9.1-1.7-.4-2.2-1.2zm4-1.7c.1-1.1-.7-2.1-1.8-2.2h-.2c-1.2 0-2.1 1-2.1 2.2 0 1.2.9 2.1 2.1 2.2 1.1 0 2-.9 2-2v-.2zM1364.6 125.4c-.1-1.5 1.1-2.9 2.6-3h.1c1.5 0 2.7 1.3 2.7 2.8v.5h-4.5c0 1.1.9 1.9 2 1.9.7 0 1.3-.3 1.8-.8l.5.5c-.6.7-1.4 1.1-2.3 1.1-1.6 0-2.8-1.2-2.9-2.8v-.2zm4.5-.3c0-1-.8-1.9-1.8-1.9-1 .1-1.8.9-1.8 1.9h3.6zM1371.5 122.6h.8v1.5c.4-1 1.3-1.6 2.3-1.6v.9h-.1c-1.2 0-2.2.9-2.2 2.6v2.3h-.8v-5.7zM1375.5 129.2c.5-.1.8-.5.7-1h-.4V127h1v1c.1.7-.4 1.4-1.2 1.5l-.1-.3zM1382.1 120.6h2.9c1.7 0 2.9.9 2.9 2.4 0 1.7-1.4 2.5-3 2.5h-1.9v2.7h-.9v-7.6zm2.7 4.1c1.3 0 2.1-.7 2.1-1.7 0-1.1-.8-1.7-2.1-1.7h-1.9v3.4h1.9zM1388.9 125.4c-.1-1.5 1.1-2.9 2.6-3h.1c1.5 0 2.7 1.3 2.7 2.8v.5h-4.5c0 1.1.9 1.9 2 1.9.7 0 1.3-.3 1.8-.8l.5.5c-.6.7-1.4 1.1-2.3 1.1-1.6 0-2.8-1.2-2.9-2.8v-.2zm4.5-.3c0-1-.8-1.9-1.8-1.9-1 .1-1.8.9-1.8 1.9h3.6zM1396.1 126.7v-3.4h-.8v-.7h.8v-1.7h.8v1.7h1.8v.8h-1.8v3.2c-.1.5.2.9.7 1h.3c.3 0 .6-.1.8-.2v.7c-.3.2-.7.2-1 .2-.8.1-1.5-.4-1.7-1.2.1-.1.1-.3.1-.4zM1399.9 125.4c-.1-1.5 1.1-2.9 2.6-3h.1c1.5 0 2.7 1.3 2.7 2.8v.5h-4.5c0 1.1.9 1.9 2 1.9.7 0 1.3-.3 1.8-.8l.5.5c-.6.7-1.4 1.1-2.3 1.1-1.6 0-2.8-1.2-2.9-2.8v-.2zm4.5-.3c0-1-.8-1.9-1.8-1.9-1 .1-1.8.9-1.8 1.9h3.6zM1406.7 122.6h.8v1.5c.4-1 1.3-1.6 2.3-1.6v.9h-.1c-1.2 0-2.2.9-2.2 2.6v2.3h-.8v-5.7zM1411.1 127.1h1v1.2h-1v-1.2z"/><path class="st3" d="M1213.9 209.1h-169.2c-3 0-5.4 2.4-5.4 5.4v79.2c0 3 2.4 5.4 5.4 5.4h75.3l9.3 8.5 9.3-8.5h75.3c3 0 5.4-2.4 5.4-5.4v-79.2c0-3-2.4-5.4-5.4-5.4z"/><path class="st4" d="M1129.3 308.2l-9.5-8.7h-75.1c-3.2 0-5.9-2.6-5.9-5.9v-79.2c0-3.2 2.6-5.9 5.9-5.9h169.2c3.2 0 5.9 2.6 5.9 5.9v79.2c0 3.2-2.6 5.9-5.9 5.9h-75.1l-9.5 8.7zm-84.6-98.6c-2.7 0-4.9 2.2-4.9 4.9v79.2c0 2.7 2.2 4.9 4.9 4.9h75.5l9.1 8.3 9.1-8.3h75.5c2.7 0 4.9-2.2 4.9-4.9v-79.2c0-2.7-2.2-4.9-4.9-4.9h-169.2z"/><path class="st7" d="M1091.9 225.1h74.8c1.3 0 2.3 1.1 2.3 2.4v14.3c0 1.3-1.1 2.4-2.3 2.4h-74.8c-1.3 0-2.3-1.1-2.3-2.4v-14.3c-.1-1.4 1-2.4 2.3-2.4z"/><path class="st1" d="M1108.2 231.9h2.5c1.2-.2 2.2.7 2.4 1.8v.3c0 1.4-1.1 2.1-2.5 2.1h-1.2v2h-1.1l-.1-6.2zm2.4 3.3c.7.1 1.3-.4 1.3-1v-.1c0-.6-.5-1.1-1.2-1.1h-1.5v2.3l1.4-.1zM1113.9 235.1c.1-1.8 1.7-3.2 3.5-3.1 1.7.1 3 1.4 3.1 3.1-.1 1.8-1.7 3.2-3.5 3.1-1.6-.1-3-1.4-3.1-3.1zm5.5 0c0-1.2-.9-2.2-2.1-2.2h-.1c-1.2 0-2.1 1-2.1 2.1v.1c0 1.2.9 2.2 2.1 2.2h.1c1.1 0 2.1-1 2.1-2.2zM1121.5 237.3l.7-.8c.5.5 1.3.8 2 .8.5.1 1-.2 1.1-.7v-.1c0-.5-.2-.7-1.4-1-1.3-.3-2.1-.7-2.1-1.9 0-1.1 1-1.9 2-1.8h.1c.8 0 1.6.3 2.3.8l-.6.8c-.5-.4-1.1-.6-1.7-.6-.5-.1-.9.2-1 .7 0 .5.3.7 1.5 1s2 .8 2 1.9c0 1.2-.9 1.9-2.2 1.9-1 0-2-.3-2.7-1zM1127.7 231.9h1.1v6.3h-1.1v-6.3zM1132 232.9h-2v-1h5.1v1h-2v5.3h-1.1v-5.3zM1136.4 231.9h1.1v6.3h-1.1v-6.3zM1138.6 231.9h1.2l1.9 4.8 1.9-4.8h1.2l-2.6 6.4h-1l-2.6-6.4zM1145.9 231.9h4.7v1h-3.6v1.6h3.2v1h-3.2v1.7h3.6v1h-4.7v-6.3z"/><path class="st6" d="M1057.1 257.7h5.6v.8h-4.7v2.6h4.2v.8h-4.2v2.7h4.8v.8h-5.6v-7.7h-.1zM1064.3 259.7h.8v1c.4-.7 1.1-1.1 1.8-1.1.8 0 1.5.4 1.8 1.1.4-.7 1.2-1.1 2-1.1 1.1-.1 2.1.8 2.1 1.9v3.9h-.8v-3.3c.1-.8-.4-1.6-1.2-1.7h-.3c-.9 0-1.6.7-1.6 1.6v3.5h-.8v-3.3c.1-.8-.4-1.5-1.2-1.7h-.2c-.9 0-1.6.8-1.6 1.7V265.5h-.8v-5.8zM1074.4 262.5c.3-1.6 1.8-2.8 3.4-2.5 1.3.2 2.3 1.2 2.5 2.5 0 1.7-1.3 3-3 3-1.6 0-2.9-1.3-2.9-2.9v-.1zm5.1 0c0-1.2-.9-2.2-2.1-2.2-1.2 0-2.1 1-2.1 2.1v.1c0 1.2.9 2.2 2 2.2h.1c1.2 0 2.1-.9 2.1-2.1v-.1zM1082.2 263.9v-3.4h-.8v-.8h.8V258h.8v1.7h1.8v.8h-1.8v3.3c-.1.5.2.9.7 1h.3c.3 0 .6-.1.8-.2v.7c-.3.2-.7.2-1 .2-.8.1-1.5-.4-1.7-1.2.1-.1.1-.3.1-.4zM1086.3 257.5h1v.9h-1v-.9zm.1 2.2h.8v5.7h-.8v-5.7zM1088.9 262.5c.3-1.6 1.8-2.8 3.4-2.5 1.3.2 2.3 1.2 2.5 2.5 0 1.7-1.3 3-3 3-1.6 0-2.9-1.3-2.9-2.9v-.1zm5 0c0-1.2-.9-2.2-2.1-2.2-1.2 0-2.1 1-2.1 2.1v.1c0 1.2.9 2.2 2 2.2h.1c1.2 0 2.1-.9 2.1-2.2 0 .1 0 .1 0 0zM1096.3 259.7h.8v1c.4-.7 1.1-1.1 1.9-1.1 1.1-.1 2.1.8 2.2 2v3.8h-.8v-3.3c.1-.8-.5-1.6-1.3-1.7h-.3c-.9 0-1.7.7-1.7 1.6v3.5h-.8v-5.8zM1102.7 263.7c0-1.2 1-1.8 2.4-1.8.6 0 1.2.1 1.8.2v-.2c.1-.8-.6-1.5-1.4-1.6h-.3c-.6 0-1.2.2-1.7.4l-.2-.7c.6-.3 1.4-.5 2.1-.5.7 0 1.3.2 1.8.6.4.5.6 1.1.6 1.7v3.5h-.8v-.9c-.5.6-1.3 1-2.1 1-1.1.1-2-.6-2.1-1.7-.1.1-.1.1-.1 0zm4.2-.4v-.5c-.5-.2-1.1-.2-1.7-.2-1.1 0-1.7.5-1.7 1.2.1.7.7 1.2 1.4 1.1h.1c.9 0 1.8-.7 1.9-1.6zM1109.5 257.3h.8v8h-.8v-8zM1115.3 262.5c0-1.7 1.4-3 3-2.9.8 0 1.6.4 2.1.9l-.6.6c-.4-.5-1.1-.8-1.7-.9-1.2.1-2.1 1-2 2.2 0 1.2.9 2.2 2 2.2.7 0 1.3-.3 1.7-.9l.5.5c-1 1.3-2.8 1.5-4.1.5-.5-.4-.9-1.2-.9-2.2zM1121.6 262.5c.3-1.6 1.8-2.8 3.4-2.5 1.3.2 2.3 1.2 2.5 2.5 0 1.7-1.3 3-3 3-1.6 0-2.9-1.3-2.9-2.9v-.1zm5.1 0c0-1.2-.9-2.2-2.1-2.2-1.2 0-2.1 1-2 2.2v.1c0 1.2.9 2.2 2 2.2h.1c1.1-.1 2-1 2-2.3 0 .1 0 .1 0 0zM1129.1 259.7h.8v1c.4-.7 1.1-1.1 1.9-1.1 1.1-.1 2.1.8 2.2 2v3.8h-.8v-3.3c.1-.8-.5-1.6-1.3-1.7h-.3c-.9 0-1.7.7-1.7 1.6v3.5h-.8v-5.8zM1135.8 259.7h.8v1c.4-.7 1.1-1.1 1.9-1.1 1.1-.1 2.1.8 2.2 2v3.8h-.8v-3.3c.1-.8-.5-1.6-1.3-1.7h-.3c-.9 0-1.7.7-1.7 1.6v3.5h-.8v-5.8zM1142.2 262.5c-.1-1.5 1.1-2.9 2.6-3h.1c1.5 0 2.7 1.3 2.7 2.8v.5h-4.5c0 1.1.9 1.9 2 1.9.7 0 1.3-.3 1.8-.8l.5.5c-.6.7-1.4 1.1-2.3 1.1-1.6 0-2.8-1.2-2.9-2.8v-.2zm4.6-.3c0-1-.8-1.9-1.8-1.9-1 .1-1.8.9-1.8 1.9h3.6zM1148.8 262.5c0-1.7 1.4-3 3-2.9.8 0 1.6.4 2.1.9l-.6.6c-.4-.5-1.1-.8-1.7-.9-1.2.1-2.1 1-2 2.2 0 1.2.9 2.2 2 2.2.7 0 1.3-.3 1.7-.9l.5.5c-1 1.3-2.8 1.5-4.1.5-.5-.4-.9-1.2-.9-2.2zM1155.7 263.9v-3.4h-.8v-.8h.8V258h.8v1.7h1.8v.8h-1.8v3.3c-.1.5.2.9.7 1h.3c.3 0 .6-.1.8-.2v.7c-.3.2-.7.2-1 .2-.8.1-1.5-.4-1.6-1.2v-.4zM1159.9 257.5h1v.9h-1v-.9zm0 2.2h.8v5.7h-.8v-5.7zM1162.4 262.5c.3-1.6 1.8-2.8 3.4-2.5 1.3.2 2.3 1.2 2.5 2.5 0 1.7-1.3 3-3 3-1.6 0-2.9-1.3-2.9-2.9v-.1zm5 0c0-1.2-.9-2.2-2.1-2.2-1.2 0-2.1 1-2.1 2.1v.1c0 1.2.9 2.2 2 2.2h.1c1.2 0 2.1-.9 2.1-2.2 0 .1 0 .1 0 0zM1169.8 259.7h.8v1c.4-.7 1.1-1.1 1.9-1.1 1.1-.1 2.1.8 2.2 2v3.8h-.8v-3.3c.1-.8-.5-1.6-1.3-1.7h-.3c-.9 0-1.7.7-1.7 1.6v3.5h-.8v-5.8zM1179.4 259.7h.9l1.5 4.6 1.5-4.6h.7l1.5 4.6 1.5-4.6h.9l-2 5.7h-.7l-1.5-4.5-1.5 4.5h-.8l-2-5.7zM1189.4 257.5h1v.9h-1v-.9zm.1 2.2h.8v5.7h-.8v-5.7zM1192.6 263.9v-3.4h-.8v-.8h.8V258h.8v1.7h1.8v.8h-1.8v3.3c-.1.5.2.9.7 1h.3c.3 0 .6-.1.8-.2v.7c-.3.2-.7.2-1 .2-.8.1-1.5-.4-1.7-1.2.1-.1.1-.3.1-.4zM1196.7 257.3h.8v3.3c.4-.7 1.1-1.1 1.9-1.1 1.1-.1 2.1.8 2.2 2v3.8h-.8V262c.1-.8-.5-1.6-1.3-1.7h-.3c-.9 0-1.7.7-1.7 1.6v3.5h-.8v-8.1zM1081.4 273.7h.8v1c.4-.7 1.1-1.1 1.9-1.1 1.1-.1 2.1.8 2.2 2v3.8h-.8v-3.3c.1-.8-.5-1.6-1.3-1.7h-.3c-.9 0-1.7.7-1.7 1.6v3.5h-.8v-5.8zM1087.8 276.5c-.1-1.5 1.1-2.9 2.6-3h.1c1.5 0 2.7 1.3 2.7 2.8v.5h-4.5c0 1.1.9 1.9 2 1.9.7 0 1.3-.3 1.8-.8l.5.5c-.6.7-1.4 1.1-2.3 1.1-1.6 0-2.8-1.2-2.9-2.8v-.2zm4.5-.3c0-1-.8-1.9-1.8-1.9-1 .1-1.8.9-1.8 1.9h3.6zM1094.2 273.7h.9l1.5 4.6 1.5-4.6h.7l1.5 4.6 1.5-4.6h.9l-2 5.7h-.7l-1.5-4.5-1.5 4.5h-.8l-2-5.7zM1107.7 277.9v-3.4h-.8v-.8h.8V272h.8v1.7h1.8v.8h-1.8v3.3c-.1.5.2.9.7 1h.3c.3 0 .6-.1.8-.2v.7c-.3.2-.7.2-1 .2-.8.1-1.5-.4-1.7-1.2.1-.1.1-.3.1-.4zM1111.5 276.5c-.1-1.5 1.1-2.9 2.6-3h.1c1.5 0 2.7 1.3 2.7 2.8v.5h-4.5c0 1.1.9 1.9 2 1.9.7 0 1.3-.3 1.8-.8l.5.5c-.6.7-1.4 1.1-2.3 1.1-1.6 0-2.8-1.2-2.9-2.8v-.2zm4.5-.3c0-1-.8-1.9-1.8-1.9-1 .1-1.8.9-1.8 1.9h3.6zM1118.5 271.3h.8v8h-.8v-8zM1120.9 276.5c-.1-1.5 1.1-2.9 2.6-3h.1c1.5 0 2.7 1.3 2.7 2.8v.5h-4.5c0 1.1.9 1.9 2 1.9.7 0 1.3-.3 1.8-.8l.5.5c-.6.7-1.4 1.1-2.3 1.1-1.6 0-2.8-1.2-2.9-2.8v-.2zm4.6-.3c0-1-.8-1.9-1.8-1.9-1 .1-1.8.9-1.8 1.9h3.6zM1127.2 273.7h.9l1.9 4.7 1.9-4.7h.9l-2.5 5.7h-.8l-2.3-5.7zM1134.3 271.5h1v.9h-1v-.9zm0 2.2h.8v5.7h-.8v-5.7zM1136.7 278.7l.4-.6c.6.5 1.3.7 2 .7.5.1 1.1-.3 1.2-.8v-.1c0-.6-.7-.8-1.4-1s-1.9-.6-1.9-1.6c0-.9.8-1.7 1.8-1.6h.1c.7 0 1.4.2 2 .6l-.4.6c-.5-.3-1.1-.5-1.7-.5-.5-.1-1 .2-1.1.8v.1c0 .5.7.8 1.5 1s1.8.6 1.8 1.6-.9 1.8-1.9 1.7h-.1c-.8-.1-1.7-.4-2.3-.9zM1142.6 271.5h1v.9h-1v-.9zm.1 2.2h.8v5.7h-.8v-5.7zM1145.2 276.5c.3-1.6 1.8-2.8 3.4-2.5 1.3.2 2.3 1.2 2.5 2.5 0 1.7-1.3 3-3 3-1.6 0-2.9-1.3-2.9-2.9v-.1zm5 0c0-1.2-.9-2.2-2.1-2.2-1.2 0-2.1 1-2.1 2.1v.1c0 1.2.9 2.2 2 2.2h.1c1.2 0 2.1-.9 2.1-2.2 0 .1 0 .1 0 0zM1152.6 273.7h.9v1c.4-.7 1.1-1.1 1.9-1.1 1.1-.1 2.1.8 2.2 2v3.8h-.8v-3.3c.1-.8-.5-1.6-1.3-1.7h-.3c-.9 0-1.7.7-1.7 1.6v3.5h-.8l-.1-5.8zM1162.3 277.7c0-1.2 1-1.8 2.4-1.8.6 0 1.2.1 1.8.2v-.2c.1-.8-.6-1.5-1.4-1.6h-.3c-.6 0-1.2.2-1.7.4l-.2-.7c.6-.3 1.4-.5 2.1-.5.7 0 1.3.2 1.8.6.4.5.6 1.1.6 1.7v3.5h-.8v-.9c-.5.6-1.3 1-2.1 1-1.1.1-2-.6-2.1-1.7-.1.1-.1.1-.1 0zm4.2-.4v-.5c-.5-.2-1.1-.2-1.7-.2-1.1 0-1.7.5-1.7 1.2.1.7.7 1.2 1.4 1.1h.1c.9 0 1.8-.6 1.9-1.6zM1168.7 276.5c-.1-1.5 1-2.9 2.6-3h.1c.9 0 1.7.5 2.2 1.2v-3.4h.9v8h-.8v-1.1c-.4.8-1.2 1.3-2.2 1.3-1.5 0-2.8-1.2-2.8-2.8v-.2zm5 0c0-1.2-.9-2.1-2-2.2-1.1 0-2 .9-2 2v.2c-.1 1.1.8 2.1 1.9 2.2h.1c1.1 0 2-1 2-2.2 0 .1 0 .1 0 0zM1176.3 278.2h1v1.2h-1v-1.2z"/></svg>