<svg id="Layer_1" xmlns="http://www.w3.org/2000/svg" viewBox="0 0 166 20"><style>.st0{fill:#56b3aa}</style><path id="Page-1" class="st0" d="M165.1 6.4c-.3-3.9-2.8-6-8.8-6-5.4 0-8 2.3-8 5.5 0 3.3 2 4.6 7.8 5.2 5.8.6 7.1 1.4 7.1 3.2 0 2.8-2.5 3.5-6.2 3.5-4.7 0-6.5-1.1-6.9-4.2h-2.4c0 4.4 3.5 6.4 9.3 6.4 5.8 0 8.8-2.2 8.8-5.9 0-3.6-2.3-4.6-8-5.3-5.6-.7-6.9-1.1-6.9-3.1 0-2.6 2.6-3.2 5.3-3.2 3.8 0 5.7.9 6.4 3.8h2.5v.1zm-22.5 7.1c-.9 2.8-2.9 4.3-7.3 4.3-4.7 0-7.4-3.1-7.4-7h17.8c0-8.4-5.7-10.5-10.4-10.5-6.9 0-10.1 4.7-10.1 9.8 0 4.5 2.5 9.8 10.1 9.8 6.1 0 8.9-3.2 10-6.5h-2.7v.1zm-14.7-4.7c.6-4.5 4.2-6.3 7.6-6.3 3.5 0 6.9 1.7 7.6 6.3h-15.2zm-7.6 4c-.7 2.9-2.8 5-6.7 5-5 0-7.8-3-7.8-7.6 0-4.3 2.5-7.6 7.8-7.6 3.3 0 5.8 1.2 6.6 4.4h2.6c-.4-2.7-2.9-6.6-9.2-6.6-7 0-10.4 4.3-10.4 9.8 0 5.8 3.7 9.8 10.4 9.8s8.9-4.8 9.3-7.2h-2.6zM97 19.4h2.6V.9H97v18.5zm-14.6 0H85V10c0-5.3 3.4-7 6.3-7 .8 0 1.6.1 2.4.2V.5c-.4-.1-.8-.1-1.6-.1C87.7.4 86 3 85 5.2V.9h-2.6v18.5zm-7.9 0h2.6V.9h-2.6v10c0 4.2-2.3 6.8-7.5 6.8-3.3 0-5.6-1.3-5.6-4.9V.9h-2.6v11.4c0 4.4 1.8 7.6 8 7.6 4.1 0 6.9-2.2 7.6-4.2l.1 3.7zM38.8 6.6c.2-3 2.2-4.1 6.3-4.1 4.3 0 6.1 1 6.1 3.6 0 1.8-.7 2.1-6.5 2.5-4.1.2-9.2.8-9.2 5.8 0 4.2 4 5.5 7.2 5.5 6 0 7.8-2.5 8.6-3.7.1 1.5.3 3.3 2.9 3.3.9 0 1.7-.2 2.2-.3v-1.8c-.5 0-.9.1-1.4.1-1 0-1.5-.5-1.5-2.1V5.9c0-3.6-2.3-5.5-8.5-5.5-6.3 0-8.4 2.4-8.8 6.3h2.6v-.1zm12.4 5.7c0 3.8-4.2 5.7-7.7 5.7-2.8 0-5.3-.9-5.3-3.7 0-2.2 1.8-3.1 4.8-3.4 5.3-.5 7-.6 8.2-1.4v2.8zm-22.3 7.1h2.6V6.8C31.5 3 29.1.4 23.9.4c-3.7 0-6.4 2.2-7.3 4.1C16.1 2.7 14.1.4 10 .4c-4.2 0-6.2 2-7.3 4L2.6.9H0v18.5h2.6V9c0-4.3 2.8-6.4 6.5-6.4 3.6 0 5.3 2 5.3 4.3v12.5H17V8.5c0-3.6 2.2-5.9 6.3-5.9 3.8 0 5.5 1.7 5.5 5.1v11.7h.1z"/></svg>