<svg id="Layer_1" xmlns="http://www.w3.org/2000/svg" viewBox="0 0 177 32.6"><style>.st0{fill:#8e8e90}.st1{fill:#756daf}</style><title>Untitled-3</title><path class="st0" d="M30.7.8l-.1-.2c-.2-.2-.5-.4-.8-.4-.4 0-.7.2-.9.5L17 12.8c-.2.3-.6.5-.9.5-.4-.1-.7-.3-.9-.5L3.4.7C3.2.4 2.8.2 2.5.2c-.3 0-.6.1-.8.4l-.2.2c-.1.2-.2.4-.2.6L0 31.2c0 .4.3.7.7.7h6.2c.4 0 .7-.3.7-.7L8 17.8c0-.4.2-.7.6-.7.2 0 .5.1.6.3l5.5 5.6c.3.4.8.6 1.3.7.5 0 1-.3 1.3-.7l5.6-5.6c.2-.3.6-.4.9-.2.2.1.3.4.3.6l.5 13.5c0 .4.3.7.7.7h6.1c.4 0 .7-.3.7-.7L30.9 1.5c0-.3-.1-.5-.2-.7zM42.4 5.6H50c.6 0 1.2-.6 1.2-1.2V1.2C51.1.6 50.6 0 50 0H37c-.7 0-1.2.5-1.2 1.2v20.9c0 .7.5 1.2 1.2 1.2h13c.7 0 1.2-.5 1.2-1.2v-2.9c0-.7-.5-1.2-1.2-1.2h-7.6c-.3 0-.6-.3-.6-.6v-2.6c0-.3.3-.6.6-.6h6.1c.4 0 .7-.4.7-.8V9.9c0-.4-.3-.8-.7-.8h-6c-.3 0-.6-.3-.6-.6V6.2c0-.3.2-.6.5-.6z"/><path class="st1" d="M51.2 26.2c0-.2-.1-.3-.3-.3-.1 0-.1 0-.2.1-.6.4-1.3.6-2 .6h-9.3c-2 0-3.6 1.6-3.6 3.6v2.1c0 .2.1.3.3.3.1 0 .1 0 .2-.1.6-.4 1.3-.6 2-.6h9.3c2 0 3.6-1.6 3.6-3.6v-2.1zM92.4 17.7c-.8-.2-1.2-.3-1.2-.6s.2-.4.7-.4c.6.1 1.1.3 1.7.6.2.1.4 0 .5-.1l1-1.5c.1-.2.1-.4-.1-.5h-.1c-.9-.6-1.9-.9-3-.8-2.3 0-3.4 1.3-3.3 2.7.1 1.4 1.2 2.6 2.6 2.9 1.2.3 1.4.4 1.4.7s-.3.3-.7.3c-.7-.1-1.4-.4-2.1-.8-.2-.1-.4-.1-.5.1v.1l-.9 1.4c-.1.2 0 .3.1.4 1 .7 2.2 1.1 3.4 1.1 2.2 0 3.6-1.3 3.6-2.7 0-1.5-1.4-2.5-3.1-2.9zM100.5 17.7c-.8-.2-1.2-.3-1.2-.6s.2-.4.7-.4c.6.1 1.1.3 1.7.6.2.1.4 0 .5-.1l1-1.5c.1-.2.1-.4-.1-.5h-.1c-.9-.6-1.9-.9-3-.8-2.3 0-3.4 1.3-3.3 2.7.1 1.4 1.2 2.6 2.6 2.9 1.2.3 1.4.4 1.4.7s-.2.4-.7.4c-.7-.1-1.4-.4-2.1-.8-.2-.1-.4-.1-.5.1v.1l-.9 1.4c-.1.2 0 .3.1.4 1 .7 2.2 1.1 3.4 1.1 2.2 0 3.6-1.3 3.6-2.7-.1-1.6-1.5-2.6-3.1-3zM76.6 8.8c-.2 0-.3.1-.4.2l-5.4 5.5c-.1.1-.2.2-.3.2h-.3c-.1 0-.2-.1-.3-.2L64.6 9c-.1-.1-.3-.2-.4-.2-.3 0-.5.3-.5.6L63 22.9c0 .2.1.3.3.3h2.8c.2 0 .3-.1.3-.3l.2-6.2c0-.2.1-.3.3-.3.1 0 .2 0 .3.1l2.5 2.5c.2.2.4.3.6.3.2 0 .5-.1.6-.3l2.5-2.5c.1-.1.3-.2.4-.1.1.1.1.2.1.3l.2 6.2c0 .2.1.3.3.3h2.8c.2 0 .3-.2.3-.3l-.3-13.6c0-.3-.3-.5-.6-.5zM131.2 19.8c.8 0 1.4-.7 1.4-1.5 0-2.2-1.8-4-4-4h-.3c-2.4 0-4.4 2-4.4 4.4v.1c0 2.5 2 4.5 4.4 4.5h.2c1.4.1 2.8-.5 3.7-1.5.1-.2.1-.4-.1-.5l-.5-.8c-.1-.1-.4-.2-.6 0-.8.3-1.7.5-2.6.4-.7 0-1.4-.4-1.7-1.1 1.6.1 3.1.1 4.5 0zm-4.4-1.9c.2-.7.8-1.2 1.5-1.2 1.1-.1 1.7.6 1.4 1.2-.9.1-1.9.1-2.9 0zM122.3 23.3c-1.4-.7-3.5-.7-4.9-.8-.8-.1-1.2-.4-1.2-.7s.3-.4.9-.2c.5.1 1 .2 1.5.2 2.3.1 4.1-.9 4.1-3.3 0-.6-.1-1.2-.4-1.8.3 0 .5-.1.7-.4l.1-1.4c0-.2-.1-.4-.3-.4-1 .1-1.9 0-2.8-.1-.8-.1-1-.1-1.4-.1-2.2 0-4 1.7-4.1 3.9v.1c0 .8.3 1.5.8 2.1-.8 0-1.5.6-1.5 1.4.1 1.1 1 2.1 2.1 2.1-.9.1-1.6.8-1.8 1.7-.2 2.1 1.7 3.3 4.3 3.3 2.8 0 5.4-1.1 5.3-3.3 0-1-.5-1.9-1.4-2.3zm-3.6-6.2c.6 0 1.1.5 1.1 1.1 0 .6-.5 1.1-1.1 1.1-.6.1-1.2-.4-1.3-1-.1-.6.4-1.2 1-1.3.1 0 .2 0 .3.1zm.1 9.5c-.9 0-1.7-.1-1.8-.9-.1-.5.3-1 .9-1.1h.2c.7 0 1.4.1 2 .3.3.1.5.3.5.6.1.8-.7 1.1-1.8 1.1zM87.1 17.5c.1-2-1.5-3.1-3.7-3.2-1.3 0-2.5.2-3.6.8-.2.1-.2.3-.2.5l.5 1.5c.1.2.3.3.5.2h.1c.9-.4 1.8-.5 2.8-.4.4 0 .7.3.8.7-4 .6-5.6 1.7-5.1 4 .4 1.8 2.5 1.9 3.7 1.8.7 0 1.3-.3 1.8-.7.1.3.3.5.7.6H87c.2 0 .3-.2.3-.4v-.1c-.2-1.8-.3-3.5-.2-5.3zm-4.8 3.7c-.3 0-.5-.3-.5-.6 0-.2.1-.3.2-.4.7-.4 1.5-.6 2.2-.5v.9c-.5.4-1.2.6-1.9.6zM112.5 17.5c.1-2-1.5-3.1-3.7-3.2-1.3 0-2.5.2-3.6.8-.2.1-.2.3-.2.5l.5 1.5c.1.2.3.3.5.2h.1c.9-.4 1.8-.5 2.8-.4.4 0 .7.3.8.7-4 .6-5.6 1.7-5.1 4 .4 1.8 2.5 1.9 3.7 1.8.7 0 1.3-.3 1.8-.7.1.3.3.5.7.6h1.7c.2 0 .3-.2.3-.4v-.1c-.4-1.8-.4-3.5-.3-5.3zm-4.8 3.7c-.3 0-.5-.3-.5-.6 0-.2.1-.3.2-.4.7-.4 1.5-.6 2.2-.5v.9c-.5.4-1.2.6-1.9.6zM158.1 21.6v-3.7c0-2-1.7-3.7-3.7-3.6h-.2c-.8 0-1.6.3-2.3.8h-.2c-.1-.2-.2-.3-.3-.5 0-.1-.2-.2-.3-.2h-1.9c-.2 0-.4.2-.4.3v8.1c0 .2.1.4.4.4h2.4c.2 0 .4-.2.4-.4V18c.4-.7 1.4-1 2.1-.5.5.3.8.8.7 1.4v3.4c-.1.5.3.9.8 1H157.9c.2 0 .3-.2.2-.5.1-.4 0-.8 0-1.2zM175.7 14.4h-2.6c-.2 0-.4.1-.4.3l-1.7 3.8-1.9-3.8c-.1-.2-.2-.3-.4-.3h-4.4c-.2 0-.3.2-.4.4l-1.3 2.9h-.1l-1.3-2.9c0-.2-.2-.3-.4-.4h-2.6c-.2 0-.4.1-.3.4l4 8.2c0 .2.2.3.4.3h.2c.2 0 .3-.2.4-.3l3.4-6.9 2.9 5.5-3.8 6.7c-.2.4-.4.6.1.6h2.5c.3 0 .5-.1.6-.4l7.3-13.7c.1-.1 0-.3-.1-.4h-.1zM147.4 9.1h-8c-.5 0-.9.4-.9.9v12.5c0 .5.4.9.8.9h8c.2 0 .5-.2.5-.4v-2.2c0-.3-.2-.5-.5-.5h-5.1c-.2 0-.4-.2-.4-.4v-1.5c0-.3.2-.5.5-.5h3.4c.3 0 .5-.2.5-.5v-2.2c0-.3-.2-.5-.5-.5h-3.4c-.3 0-.5-.2-.5-.5v-1.5c0-.2.2-.4.4-.4h5.1c.3 0 .5-.2.5-.5V9.6c.1-.3-.1-.5-.4-.5zM175.1 21.8s.1 0 0 0l.1.2s0 .1-.1.1h-.4v1.2s0 .1-.1.1h-.1s-.1 0-.1-.1v-1.1h-.4s-.1 0-.1-.1v-.2s0-.1.1-.1h1.1zm1.8 0c.1 0 .1 0 0 0 .1 0 .1 0 0 0l.1 1.4s0 .1-.1.1h-.1s-.1 0-.1-.1v-.8l-.5.8h-.1-.1l-.5-.8v.8s0 .1-.1.1h-.1s-.1 0-.1-.1v-1.4s0-.1.1-.1h.2l.5 1 .5-1h.1l.3.1z"/></svg>