<svg id="Layer_1" xmlns="http://www.w3.org/2000/svg" viewBox="0 0 117 16"><style>.st0{opacity:.9;fill:#7abb31}</style><path id="Solution" class="st0" d="M.1 5c0-.4.4-.8.8-.8.5 0 .8.4.8.8v9.5c0 .5-.3.8-.8.8s-.8-.4-.8-.8V5zM0 .9C0 .3.4 0 .9 0s1 .3 1 .9v.3c0 .5-.4.9-1 .9-.5-.1-.9-.5-.9-1V.9zM7.3 5c0-.4.4-.8.8-.8.5 0 .9.3.9.8v1.2C9.7 5 10.8 4 12.7 4c2.6 0 4.2 1.8 4.2 4.4v6c0 .5-.4.8-.8.8-.5 0-.8-.4-.8-.8V8.8c0-2-1.1-3.3-3-3.3-2 0-3.3 1.4-3.3 3.4v5.5c0 .5-.3.8-.8.8s-.8-.4-.8-.8V5zm15.2 0c0-.4.4-.8.8-.8.5 0 .8.4.8.8v1.1C24.8 5 25.8 4 27.6 4s2.9.9 3.5 2.2C31.9 5 33.1 4 35 4c2.5 0 4 1.7 4 4.4v6c0 .5-.4.8-.8.8-.5 0-.8-.4-.8-.8V8.8c0-2.1-1.1-3.3-2.8-3.3-1.6 0-3 1.2-3 3.4v5.6c0 .5-.4.8-.8.8s-.8-.4-.8-.8V8.8c0-2-1.1-3.2-2.8-3.2s-3 1.4-3 3.4v5.5c0 .5-.3.8-.8.8s-.8-.4-.8-.8V5zm38.8 0c0-.4.4-.8.8-.8.5 0 .8.4.8.8v1.1C63.7 5 64.6 4 66.5 4c1.7 0 2.9 1 3.5 2.2C70.8 5 71.9 4 73.8 4c2.5 0 4 1.7 4 4.4v6c0 .5-.4.8-.8.8-.5 0-.8-.4-.8-.8V8.8c0-2.1-1.1-3.3-2.8-3.3-1.6 0-3 1.2-3 3.4v5.6c0 .5-.4.8-.8.8s-.8-.4-.8-.8V8.8c0-2-1.1-3.2-2.8-3.2-1.7 0-3 1.4-3 3.4v5.5c0 .5-.3.8-.8.8s-.8-.4-.8-.8V5zm26.4 10.4c-3 0-5.4-2.3-5.4-5.7 0-3.1 2.2-5.7 5.2-5.7 3.2 0 5.1 2.6 5.1 5.5 0 .4-.4.8-.8.8h-7.9c.2 2.4 1.9 3.7 3.8 3.7 1.3 0 2.3-.5 3.1-1.3.1-.1.3-.2.5-.2.4 0 .7.3.7.7 0 .2-.1.4-.3.5-.9 1.1-2.1 1.7-4 1.7zM91 9.1c-.2-2-1.3-3.7-3.5-3.7-1.9 0-3.3 1.6-3.5 3.7h7zM97.1 5c0-.4.4-.8.8-.8.5 0 .8.4.8.8v1.2c.8-1.2 1.9-2.2 3.8-2.2 2.6 0 4.2 1.8 4.2 4.4v6c0 .5-.4.8-.8.8-.5 0-.8-.4-.8-.8V8.8c0-2-1.1-3.3-3-3.3s-3.3 1.4-3.3 3.4v5.5c0 .5-.3.8-.8.8s-.8-.4-.8-.8V5zm14.7 7.3V5.7h-.9c-.4 0-.7-.3-.7-.7 0-.4.3-.7.7-.7h.9V1.7c0-.4.3-.8.8-.8.4 0 .8.4.8.8v2.6h2.8c.4 0 .7.3.7.7 0 .4-.3.7-.7.7h-2.8v6.4c0 1.3.7 1.8 1.8 1.8.6 0 .9-.1 1-.1.4 0 .7.3.7.7 0 .3-.2.5-.5.6-.5.2-1 .3-1.6.3-1.7 0-3-.9-3-3.1zm-64.6 2.9c-.1 0-.3 0-.4-.1-1.9-1.2-3-3.2-3-5.4 0-1.1.3-2.1.8-3.1.2-.4.7-.5 1-.3.4.2.5.7.3 1-.4.7-.6 1.5-.6 2.3 0 1.7.9 3.2 2.3 4.1.4.2.5.7.2 1-.1.3-.3.5-.6.5zm3.1.8c-.4 0-.7-.3-.8-.7 0-.4.3-.8.7-.8 2.6-.1 4.7-2.1 4.7-4.7v-.1c0-.4.3-.8.8-.8.4 0 .8.3.8.8v.1c-.1 3.4-2.8 6.1-6.2 6.2zm4.6-8.5c-.3 0-.5-.1-.6-.4-.9-1.5-2.4-2.3-4.1-2.3-.8 0-1.6.2-2.3.6-.4.2-.8.1-1-.3-.2-.4-.1-.8.3-1 .9-.5 2-.8 3.1-.8 2.2 0 4.3 1.1 5.4 3 .2.4.1.8-.3 1-.2.2-.3.2-.5.2z"/></svg>