<svg id="Layer_1" xmlns="http://www.w3.org/2000/svg" viewBox="0 0 176 24"><style>.st0{opacity:.9;fill:#fff}</style><path id="Solution" class="st0" d="M.2 7.5c0-.7.5-1.2 1.2-1.2s1.2.5 1.2 1.2v14.2c0 .7-.5 1.2-1.2 1.2S.2 22.4.2 21.7V7.5zM0 1.3C0 .5.6 0 1.4 0c.8 0 1.5.5 1.5 1.3v.4c0 .8-.7 1.3-1.5 1.3S0 2.5 0 1.7v-.4zm11 6.2c0-.7.5-1.2 1.2-1.2s1.2.5 1.2 1.2v1.8c1.1-1.8 2.8-3.2 5.6-3.2 4 0 6.3 2.7 6.3 6.5v9.1c0 .7-.5 1.2-1.2 1.2s-1.2-.5-1.2-1.2v-8.5c0-3-1.6-4.9-4.5-4.9-2.8 0-4.9 2.1-4.9 5.1v8.3c0 .7-.5 1.2-1.2 1.2s-1.2-.5-1.2-1.2V7.5zm22.7 0c0-.7.5-1.2 1.2-1.2s1.2.5 1.2 1.2v1.7c1.1-1.6 2.5-3.1 5.3-3.1 2.7 0 4.4 1.4 5.2 3.3 1.2-1.8 2.9-3.3 5.8-3.3 3.8 0 6.1 2.5 6.1 6.6v9c0 .7-.5 1.2-1.2 1.2s-1.2-.5-1.2-1.2v-8.5c0-3.2-1.6-4.9-4.2-4.9-2.5 0-4.5 1.8-4.5 5.1v8.3c0 .7-.5 1.2-1.2 1.2s-1.2-.5-1.2-1.2v-8.5c0-3.1-1.6-4.9-4.2-4.9s-4.6 2.1-4.6 5.2v8.2c0 .7-.5 1.2-1.2 1.2s-1.2-.5-1.2-1.2V7.5zm58.2 0c0-.7.5-1.2 1.2-1.2s1.2.5 1.2 1.2v1.7c1.1-1.6 2.5-3.1 5.3-3.1 2.7 0 4.4 1.4 5.2 3.3 1.2-1.8 2.9-3.3 5.8-3.3 3.8 0 6.1 2.5 6.1 6.6v9c0 .7-.5 1.2-1.2 1.2s-1.2-.5-1.2-1.2v-8.5c0-3.2-1.6-4.9-4.2-4.9-2.5 0-4.5 1.8-4.5 5.1v8.3c0 .7-.5 1.2-1.2 1.2s-1.2-.5-1.2-1.2v-8.5c0-3.1-1.6-4.9-4.2-4.9s-4.6 2.1-4.6 5.2v8.2c0 .7-.5 1.2-1.2 1.2s-1.2-.5-1.2-1.2V7.5zm39.6 15.6c-4.5 0-8.2-3.4-8.2-8.5v-.1c0-4.7 3.3-8.5 7.8-8.5 4.8 0 7.6 4 7.6 8.3 0 .7-.5 1.1-1.1 1.1h-11.8c.3 3.5 2.8 5.5 5.8 5.5 2 0 3.5-.8 4.7-1.9.2-.2.4-.3.7-.3.6 0 1.1.5 1.1 1 0 .3-.1.6-.4.8-1.6 1.7-3.4 2.6-6.2 2.6zm4.9-9.4c-.3-3-2-5.6-5.2-5.6-2.8 0-5 2.4-5.3 5.6h10.5zm9.2-6.2c0-.7.5-1.2 1.2-1.2s1.2.5 1.2 1.2v1.8c1.1-1.8 2.8-3.2 5.6-3.2 4 0 6.3 2.7 6.3 6.5v9.1c0 .7-.5 1.2-1.2 1.2s-1.2-.5-1.2-1.2v-8.5c0-3-1.6-4.9-4.5-4.9-2.8 0-4.9 2.1-4.9 5.1v8.3c0 .7-.5 1.2-1.2 1.2s-1.2-.5-1.2-1.2V7.5zm22 10.9V8.6h-1.3c-.6 0-1.1-.5-1.1-1.1 0-.6.5-1.1 1.1-1.1h1.3V2.6c0-.7.5-1.2 1.2-1.2s1.2.6 1.2 1.2v3.9h4.2c.6 0 1.1.5 1.1 1.1 0 .6-.5 1.1-1.1 1.1H170v9.5c0 2 1.1 2.7 2.7 2.7.9 0 1.3-.2 1.5-.2.6 0 1 .5 1 1 0 .4-.3.8-.7.9-.7.3-1.5.4-2.4.4-2.5 0-4.5-1.3-4.5-4.6zm-96.8 4.4c-.2 0-.4-.1-.6-.2-2.8-1.7-4.5-4.8-4.5-8.1 0-1.6.4-3.2 1.2-4.6.3-.5 1-.7 1.5-.4.5.3.7 1 .4 1.5-.6 1.1-.9 2.3-.9 3.5 0 2.5 1.3 4.8 3.5 6.2.5.3.7 1 .4 1.6-.3.3-.6.5-1 .5zm4.6 1.2c-.6 0-1.1-.5-1.1-1.1 0-.6.5-1.1 1.1-1.2 3.9-.1 7-3.2 7.1-7.1v-.2c0-.6.5-1.1 1.1-1.1.6 0 1.1.5 1.1 1.1v.2c-.1 5.2-4.2 9.3-9.3 9.4zm6.9-12.7c-.4 0-.8-.2-1-.5-1.3-2.2-3.6-3.5-6.2-3.5-1.2 0-2.4.3-3.5.9-.5.3-1.2.1-1.5-.4-.3-.5-.1-1.2.4-1.5C72 5.4 73.6 5 75.2 5c3.3 0 6.4 1.7 8.1 4.6.3.5.2 1.2-.4 1.6-.2 0-.4.1-.6.1z"/></svg>