<svg id="Layer_1" xmlns="http://www.w3.org/2000/svg" viewBox="0 0 142 48"><style>.st0{fill:#e61c3a}.st1{fill:#fff}.st2{fill:#f6b620}</style><title>logo-hhgregg</title><path class="st0" d="M92.5 18.9c-.8-1.8-1-2.1-2.1-2.9-1.2-1-2.7-1.5-4.3-1.5-1.5-.1-3 .4-4.1 1.4-1.2.9-1.4 1.3-2.2 3.1h12.7v-.1zm3.7 3.6H79.6v.5c.5 1.3.9 2.3 2.4 3.3 1.3 1 2.9 1.4 4.6 1.3 1.1.1 2.1-.3 3-.9.7-.4 1.3-.9 1.8-1.4l2.9 1.9c-.8 1.1-1.9 1.9-3.1 2.6-1.4.9-3 1.3-4.6 1.3-2.8.1-5.6-.9-7.7-2.8-2-1.9-3.1-4.6-2.9-7.3-.1-2.7 1-5.3 2.9-7.1 2-1.9 4.7-2.9 7.5-2.8 3.1 0 5.5.9 7.3 2.6 1.8 1.8 2.7 4.2 2.7 7.2l-.2 1.6zM3.5 30.6V18.9c0-4.9 9.8-5.6 9.8 0v11.8h3.5v-12c0-4.5-5.3-10.2-13.3-6.3v-7H0v25.2h3.5zM24.7 30.6V18.9c0-4.9 9.8-5.6 9.8 0v11.8H38v-12c0-4.5-5.3-10.2-13.3-6.2V5.4h-3.5v25.2h3.5z"/><path class="st1" d="M54.1 21c0 1.8-1.4 3.2-3.2 3.2s-3.2-1.4-3.2-3.2c0-1.8 1.4-3.2 3.2-3.2 1.8 0 3.2 1.5 3.2 3.2"/><path class="st0" d="M50.9 28c-3.8 0-6.8-3-6.8-6.8s3-6.8 6.8-6.8 6.8 3 6.8 6.8-3.1 6.9-6.8 6.8m6.8-16.6v2.3c-4.2-3.8-10.7-3.4-14.4.8-3.8 4.2-3.4 10.7.8 14.4 3.9 3.5 9.8 3.5 13.6 0v4c-.2 4-6.7 8.8-12 3.4v4.3c7.7 4.3 15.5-1.9 15.5-7.1v-22l-3.5-.1zM108.8 28c-3.8 0-6.8-3-6.8-6.8s3-6.8 6.8-6.8 6.8 3 6.8 6.8-3 6.9-6.8 6.8m6.8-16.6v2.3c-4.2-3.8-10.7-3.4-14.4.8-3.8 4.2-3.4 10.7.8 14.4 3.9 3.5 9.8 3.5 13.6 0v4c-.2 4-6.7 8.8-12 3.4v4.3c7.7 4.3 15.5-1.9 15.5-7.1v-22l-3.5-.1zM131.7 28c-3.8 0-6.8-3-6.8-6.8s3-6.8 6.8-6.8 6.8 3 6.8 6.8-3 6.9-6.8 6.8m6.8-16.6v2.3c-4.2-3.8-10.7-3.4-14.4.8s-3.4 10.7.8 14.4c3.9 3.5 9.8 3.5 13.6 0v4c-.2 4-6.7 8.8-12 3.4v4.3c7.7 4.3 15.5-1.9 15.5-7.1v-22l-3.5-.1zM65.3 11.4v19.1h3.4V20.3c.1-4.1 4.6-5.8 7-5.8V11c-5.7.1-7.1 2.5-7.1 2.5l.1-2.1h-3.4zM92.5 18.9c-.8-1.8-1-2.1-2.1-2.9-1.2-1-2.7-1.5-4.3-1.5-1.5-.1-3 .4-4.1 1.4-1.2.9-1.4 1.3-2.2 3.1h12.7v-.1zm3.7 3.6H79.6v.5c.5 1.3.9 2.3 2.4 3.3 1.3 1 2.9 1.4 4.6 1.3 1.1.1 2.1-.3 3-.9.7-.4 1.3-.9 1.8-1.4l2.9 1.9c-.8 1.1-1.9 1.9-3.1 2.6-1.4.9-3 1.3-4.6 1.3-2.8.1-5.6-.9-7.7-2.8-2-1.9-3.1-4.6-2.9-7.3-.1-2.7 1-5.3 2.9-7.1 2-1.9 4.7-2.9 7.5-2.8 3.1 0 5.5.9 7.3 2.6 1.8 1.8 2.7 4.2 2.7 7.2l-.2 1.6zM3.5 30.6V18.9c0-4.9 9.8-5.6 9.8 0v11.8h3.5v-12c0-4.5-5.3-10.2-13.3-6.3v-7H0v25.2h3.5zM24.7 30.6V18.9c0-4.9 9.8-5.6 9.8 0v11.8H38v-12c0-4.5-5.3-10.2-13.3-6.2V5.4h-3.5v25.2h3.5z"/><path class="st2" d="M54.1 21c0 1.8-1.4 3.2-3.2 3.2s-3.2-1.4-3.2-3.2c0-1.8 1.4-3.2 3.2-3.2 1.8 0 3.2 1.5 3.2 3.2"/><path class="st0" d="M50.9 28c-3.8 0-6.8-3-6.8-6.8s3-6.8 6.8-6.8 6.8 3 6.8 6.8-3.1 6.9-6.8 6.8m6.8-16.6v2.3c-4.2-3.8-10.7-3.4-14.4.8-3.8 4.2-3.4 10.7.8 14.4 3.9 3.5 9.8 3.5 13.6 0v4c-.2 4-6.7 8.8-12 3.4v4.3c7.7 4.3 15.5-1.9 15.5-7.1v-22l-3.5-.1zM108.8 28c-3.8 0-6.8-3-6.8-6.8s3-6.8 6.8-6.8 6.8 3 6.8 6.8-3 6.9-6.8 6.8m6.8-16.6v2.3c-4.2-3.8-10.7-3.4-14.4.8-3.8 4.2-3.4 10.7.8 14.4 3.9 3.5 9.8 3.5 13.6 0v4c-.2 4-6.7 8.8-12 3.4v4.3c7.7 4.3 15.5-1.9 15.5-7.1v-22l-3.5-.1zM131.7 28c-3.8 0-6.8-3-6.8-6.8s3-6.8 6.8-6.8 6.8 3 6.8 6.8-3 6.9-6.8 6.8m6.8-16.6v2.3c-4.2-3.8-10.7-3.4-14.4.8s-3.4 10.7.8 14.4c3.9 3.5 9.8 3.5 13.6 0v4c-.2 4-6.7 8.8-12 3.4v4.3c7.7 4.3 15.5-1.9 15.5-7.1v-22l-3.5-.1zM65.3 11.4v19.1h3.4V20.3c.1-4.1 4.6-5.8 7-5.8V11c-5.7.1-7.1 2.5-7.1 2.5l.1-2.1h-3.4z"/></svg>