<svg id="Layer_1" xmlns="http://www.w3.org/2000/svg" viewBox="0 0 528 154"><style>.st0{fill:#c62335}.st1{fill:#6f8f9d}.st2{fill:#0a0a08}.st3{fill:#c4242a}.st4{fill:#3d6ba1}</style><title>logo-parade</title><g id="target"><path id="Fill-1" class="st0" d="M33.1 24.8c0 9.2-7.4 16.7-16.6 16.7C7.4 41.5 0 34 0 24.8S7.4 8 16.6 8c9.1 0 16.5 7.5 16.5 16.8M16.6 13.6c-6.1 0-11 5-11 11.1 0 6.2 5 11.1 11 11.1 6.1 0 11.1-5 11.1-11.1-.1-6.1-5-11.1-11.1-11.1"/><path id="Fill-2" class="st0" d="M16.6 19c-3.1 0-5.7 2.6-5.7 5.7 0 3.2 2.5 5.7 5.7 5.7 3.1 0 5.7-2.6 5.7-5.7-.1-3.1-2.6-5.7-5.7-5.7"/><path id="Fill-3" class="st1" d="M45.3 17.7h-6.6v-4.1h18.1v4.1h-6.6v18.2h-4.9V17.7"/><path id="Fill-4" class="st1" d="M65.5 19.1l2.8 8.2h-5.7l2.9-8.2zM54.7 35.9h4.9l1.7-5h8.3l1.7 5h5L68 13.6h-5l-8.3 22.3z"/><path id="Fill-5" class="st1" d="M83.1 17.4h5.3c2.2 0 3.3.9 3.3 3.1s-1.2 3.2-3.3 3.2h-5.3v-6.3zm-4.9 18.5h4.9v-8.7H88c2.4 0 3.3 1 3.7 3.4.2 1.8.2 3.9.8 5.3h4.9c-.9-1.3-.8-3.9-.9-5.3-.2-2.2-.8-4.6-3.2-5.2v-.1c2.4-1 3.5-3 3.5-5.6 0-3.4-2.5-6.1-6.5-6.1H78.2v22.3z"/><path id="Fill-6" class="st1" d="M115.9 33.4c-1.7 2.2-3.9 3.1-6.1 3.1C103 36.4 99 31.3 99 24.8c0-6.6 4-11.8 10.9-11.8 4.5 0 8.8 2.8 9.3 7.9h-4.6c-.6-2.5-2.4-3.7-4.7-3.7-4.4 0-6 3.7-6 7.6 0 3.7 1.6 7.5 6 7.5 3.2 0 5-1.7 5.3-4.8h-4.9v-3.7h9.3v12.1h-3.1l-.6-2.5"/><path id="Fill-7" class="st1" d="M122.8 13.6h16.5v4.1h-11.7v4.8h10.7v3.8h-10.7v5.5h11.9v4.1h-16.8V13.6"/><path id="Fill-8" class="st1" d="M148.4 17.7h-6.6v-4.1h18.1v4.1h-6.6v18.2h-4.9V17.7"/></g><g id="nike"><path id="Fill-1_1_" class="st2" d="M346 131.7c-7.1 1.9-12.8 1.6-16-.7-8.4-6-2-18.4.3-22-4.1 4.5-8.1 9-11.3 13.9-5 7.7-7.1 16-3.7 21.3 6 9.7 20.5 5.2 29.7 1.4l85.6-36.3-84.6 22.4"/><path id="Fill-3_1_" class="st2" d="M350.9 120.7h-8.1l.9-14-5.2 14H331l11.9-31.8h8l-.9 14.2 5.3-14.2h7.5l-11.9 31.8"/><path id="Fill-4_1_" class="st2" d="M351.9 120.7l11.9-31.8h7.5l-11.9 31.8h-7.5"/><path id="Fill-5_1_" class="st2" d="M381.1 118.6l-.5-16.6L392 89.5l-10.9 29.1zm24.2-24.4l2-5.3h-22.9l-7.8 9.5 3.6-9.5h-7.6l-11.9 31.8h7.5l5-13.3.4 13.3 23-.1 2.2-6.1h-8.7l2.9-7.7h7.2l2.3-5.9h-7.2l2.4-6.6 7.6-.1z"/></g><g id="hertz"><path id="Fill-1_2_" d="M525.3 34.6c-1.9 0-3.7 1.5-4.1 3.4-.1.2-.1.4-.1.7 0 1.5 1.1 2.6 2.7 2.6 1.9 0 3.7-1.5 4.1-3.4.1-.2.1-.4.1-.7 0-1.5-1.1-2.6-2.7-2.6m2.1 3.2c-.3 1.6-2 3-3.7 3-1.4 0-2.2-.9-2.3-2.2 0-.2 0-.4.1-.6.3-1.6 2-3 3.6-3 1.5 0 2.3.9 2.3 2.2.1.2.1.4 0 .6m-2.4-1.4h-1.5l-.7 3.2h.7l.2-1h.6l.4 1h.8l-.5-1.2c.4-.1.8-.5.9-1 .3-.7-.1-1-.9-1m.3 1c-.1.3-.3.4-.7.4h-.7l.2-1h.7c.4.2.6.3.5.6"/><path id="Fill-3_2_" d="M490.5 34.6c-1-1-.4-3.1.1-5.3l1.7-7.8h6.9l1.2-5.8h-6.9l1.2-5.8h-6.5l-4.2 20c-.7 3-.9 5.3.4 7.8 1.2 2.3 5.3 4.5 10.6 3.2l1.2-5.4c-3.6.4-5.1-.1-5.7-.9zm-55-24.8l-3.1 14.4H421l3.1-14.4h-6.6l-6.5 31h6.5l2.3-10.7h11.4l-2.3 10.7h6.5l6.6-31h-6.5zm37.4 8c-2.3 1.9-3.6 4.3-4.4 8.2l-3.2 14.7h6.5l2.6-12.2c.6-2.9 1.1-4.6 2.2-5.7 1.5-1.5 3.7-1.6 6.2-1.4l1.2-5.8c-4.4-1.1-8.5 0-11.1 2.2zm50.7-2.2h-20.3l-1.2 5.8h11.7l-14.7 13.8-1.2 5.6h20.3l1.2-5.8h-11.8l14.8-13.8 1.2-5.6zm-68.4-.4c-2.2 0-5.2.7-8.1 3-6.6 5.1-9.9 23.1 4.3 23.1 3.7 0 7.8-1.2 10.7-3.3l-2.6-4.3c-2.1 1.7-13 5.2-11.9-3.5h17s2.2-7-1-11.3c-2.6-3.6-7.5-3.7-8.4-3.7zm4.2 9.6H449c.4-1.4 2.6-4.8 6.7-4.5 4.4.5 3.7 4.5 3.7 4.5z"/></g><path id="arbys" class="st3" d="M216.6 122.5v-4.7c0-.5-.2-.5-.5-.5h-2.3c-.3 0-.3.2-.3.5v.7c0 .2-.2.2-.4-.1-.3-.3-1.3-1.4-3.8-1.4-2.6 0-3.7.8-4.4 1.7-.7.8-1.8 2.8-.8 4.8 1 2.1 4 2.5 5 2.6 1.3.3 3.1.9 2.5 1.9-.6 1-2.3.7-3.3.5-1-.3-1.5-1.3-1.5-1.5-.1-.2-.5-.5-.8-.5h-2.5c-.5 0-.6.3-.6.6v4.6c0 .3.1.5.5.5h2.5c.3 0 .5-.1.5-.5v-.7c0-.2.1-.3.3-.1.3.2 1.5 1 3 1.3 1.5.2 3.4.2 4.6-.5 1.4-.6 2.3-1.5 2.5-3.2.3-1.8-.5-3.5-2.5-4.2-2.2-.7-4.3-1.1-5-1.6-.8-.5-1-1.8.2-2.2 1-.3 1.9 0 2.6.5.5.3.8 1 .8 1.4.1.3.1.6.5.6h2.6c.5.2.6 0 .6-.5zm5.3-3.1h.5v-2.1h-.5l-.5.8-.5-.8h-.5v2.1h.5V118l.5.8.6-.8-.1 1.4zm-2.7-1.7h.5v-.5h-1.6v.5h.6v1.6h.5v-1.6zm-14.6-2.3s2.7-6.5-1.5-6.5h-3.5c-.7 0-.7.7-.7.7v3.2c0 .3-.1.7.7.7h2.7c2.1-.1 2.3 1.9 2.3 1.9zm-2.1 1.9h-7.4c-.4 0-.4.2-.4.6v2.9c0 .3.1.5.5.5h.5c.3 0 .5 0 .5.5l-2.2 6.5c-.1.3-.8.3-.9 0-.1-.3-1.6-6.4-1.7-6.7-.1-.3-.1-.3.2-.3.3 0 .8.1.8-.3v-3.2c0-.5-.1-.5-.5-.5h-6.5c-.6 0-.5.3-.5.6v3c0 .3.1.5.5.5h.7c.2 0 .5 0 .6.5.1.5 3.1 8.9 3.4 10 .3 1 1.4.9 2.1.9.5 0 .8 0 .7.5-.1.3-.5 1.9-1.1 2.4s-1.5.5-2.1.2c-.7-.2-1.4-.9-1.5-1-.1-.1-.3 0-.4.2-.2.2-1.5 1.7-1.7 2.2-.5.5-.3.6 0 .8.3.3 2.1 2 5.2 2 3.4 0 4.7-2.8 5.2-4.4.6-1.5 4.8-13.1 4.9-13.5.1-.5.3-.5.6-.5h.8c.3 0 .5-.2.5-.5v-3c-.3-.8-.4-.9-.8-.9zm-8.2-4.4c-.1-11.5-1.7-20.2-4.9-26.6-2.6-5.5-6.3-8.6-9.8-8.6-4.2 0-5.5 3.4-5.5 5.3-.1 1.5.8 3.3 1.6 5 .6 1.3 1.3 2.5 1.3 3.3 0 .2-.2.8-.6.8s-1.5-1.7-2.3-3c-1.7-2.8-3.9-6.2-6.5-6.2-.8 0-3.9.5-7.2 6.5-2.7 5.2-4.4 12.3-5.5 23.5 0 .2.1.5.5.5h3.4c.5 0 .5-.3.6-.5.7-6.5 1.1-10.6 2.1-14.2 2.1-8.5 5.1-10.8 5.9-10.8 1 0 2.1 1.6 3.1 3.4.1.3.3.5.5.8 1.5 2.3 3.1 4.6 5.7 4.6s4.7-2.8 4.8-5.3c.1-2.5-1-4.6-1.8-6.1-.5-.8-.9-1.5-.9-2 0-.8.6-1 1-1 1.5 0 4.1 1.6 6.4 6.2 3.5 7.1 4.2 16.7 4.2 24.3.1.1.2.5.6.5h3.2c-.1.1 0-.2.1-.4zM154 132.2v-2.9c0-.3-.2-.6-.6-.6h-.9c-.6 0-.7-.5-.7-.5l-6-16.3s-.1-.7-.7-1.3c-.6-.6-1.8-.6-1.8-.6h-5.4c-.2 0-.5.3-.5.5s-.1 2.6-.1 3c0 .2.2.5.7.5h1.3c.5 0 .5.3.2.6-.1.3-5.1 13.5-5.2 13.6-.1.5-.5.3-.5.3h-1c-.5 0-.5.5-.5.5v3s0 .6.5.6h7.5c.5 0 .5-.2.5-.5V129c0-.3-.2-.5-.5-.5H139c-.5 0-.5-.2-.5-.5.1-.1.5-1.4.6-1.6.1-.3.2-.3.6-.3l5.7-.1c.6 0 .7.2.7.5.1.2.5 1.1.5 1.4.2.6 0 .8-.2.8H145c-.2 0-.5.1-.5.5v3.1c0 .3.1.5.5.5h8.4c.5-.2.6-.4.6-.6zm-9.5-9.4h-3.4c-.5 0-.5-.3-.5-.5.1-.2 1.5-4.5 1.6-4.8.1-.3.5-.5.5-.1.2.5 1.7 4.6 1.8 4.9.3.1.3.5 0 .5zm22.7-12.3v3.2c0 .2.1.3.5.3h.6c.4 0 .5.1.5.6V128c0 .6-.1.6-.5.6h-.8c-.5 0-.6.2-.6.6v2.8c0 .5.2.6.6.6h5.1c.5 0 .5-.2.5-.5v-.9c0-.3.5-.1.5.1.2.2 1 1.1 3.5 1.4 2.1.2 4.3-.3 5.6-2.1 1-1.4 1.8-2.5 1.8-6s-1.6-5.5-3.2-6.5c-1.6-.9-3.8-1.1-5.1-.8-1.3.3-2.3 1.3-2.5 1.5-.1.1-.5.3-.5 0v-8c0-.5-.2-.6-.5-.6h-5.4c-.1-.2-.1.1-.1.3zm6.3 14.6c0-2.1.9-3.8 3-3.8 2.2 0 3.1 1.7 3.1 3.9 0 2.1-1.4 3.4-3.2 3.4-1.8-.1-2.9-1.6-2.9-3.5zm-17.3 3.3s0 .3-.2.3h-.8c-.5 0-.5.2-.5.5v3.2s0 .5.5.5h7.2c.3 0 .5-.2.5-.5v-3.1c0-.3 0-.5-.5-.5h-.7c-.3 0-.5 0-.5-.3V126c0-1.1.5-1.7 1-2.4s1.6-1.3 2.7-1.4c1.1-.1 1.6 0 2.1.1.3 0 .5-.1.5-.5v-4.2c0-.2-.1-.5-.6-.5s-2.5.2-4.1 1.4c-1.4.9-1.9 2.5-2.1 2.5-.1.2-.3.3-.3 0v-3.2c0-.3-.1-.5-.5-.5h-4.8c-.3 0-.5 0-.5.5v3.2c0 .5.3.5.3.5h.7c.3 0 .5.1.5.5l.1 6.4zm-10 14.4c-.1 1.7.5 3.3 1.8 4.6 1.9 2.1 5.6 3.8 10.5 4.9 4.3 1 9.4 1.5 14.4 1.5h.1c6 0 14.7-.7 22-3.7 5.1-2.2 7.9-4.8 8.3-7.9.3-2.2-.3-4.1-3-5.5 0 0-.3 0-.5.2-.5.9-1 1.7-1.7 2.8-.3.5 0 .6 0 .6 1 .7 1.1 1.7.3 2.8-.7.8-1.7 2.1-5.9 3.7-3.5 1.5-9.7 3.1-19.3 3.1h-.2c-11.1 0-19.5-2.6-21.9-5.4-.5-.5-.8-1-.8-1.5.1-1.6 2.3-2.5 6.3-2.5 1.1 0 2.2 0 3.2.2.8 0 1.5.2 2.3.3 1.7.3 3.4.7 4.9 1.3 2.2.7 3.9 1.5 5.1 2.1.6.2 1 .5 1.4.5.3.1.7.1 1 .1 1 0 1.7-.6 1.8-1.5.2-.8 0-1.6-.9-2.2-2.4-1-6.6-2.9-11.6-4-1.5-.3-2.9-.6-4.2-.7-1.1-.2-2.2-.2-3.2-.2-6.2 0-10.1 2.5-10.2 6.4z"/><g id="ge"><path id="Fill-18" class="st4" d="M227.5 51.8c-14.2 0-25.7-11.5-25.7-25.9 0-14.3 11.5-25.9 25.7-25.9s25.7 11.6 25.7 25.9c0 14.4-11.5 25.9-25.7 25.9m0-50.6c-13.5 0-24.5 11-24.5 24.7 0 13.6 11 24.7 24.5 24.7s24.5-11 24.5-24.7c0-13.5-10.9-24.7-24.5-24.7m21.8 32.1s-.1.1-.1 0c-.1 0-.1-.1-.1-.1s.9-2.6.9-5.5c0-3.2-1.3-5.1-2.9-5.1-1 0-1.7.7-1.7 1.8 0 1.9 2.4 2.1 2.4 6.3 0 1.7-.4 3.4-.9 5.2-2.6 9-11 13.1-19.2 13.1-3.8 0-6.5-.8-7.3-1.1 0 0-.1-.1 0-.1l.1-.1c.3.1 2.6.9 5.5.9 3.1 0 5-1.3 5-2.9 0-1-.8-1.8-1.8-1.8-1.9 0-2.1 2.4-6.2 2.4-1.8 0-3.3-.4-5.2-.9-8.8-2.7-13-11.1-13-19.4 0-4.1 1.1-7.3 1.1-7.3h.1c.1 0 .1.1.1.1-.3.2-1 2.5-1 5.4 0 3.2 1.3 5 2.9 5 .9 0 1.7-.7 1.7-1.7 0-1.9-2.4-2.2-2.4-6.3 0-1.8.4-3.4.9-5.2 2.7-8.9 11-13.1 19.2-13.1 3.8 0 7.1 1.1 7.3 1.2v.1c0 .1-.1.1-.1.1s-2.2-.9-5.5-.9c-3.1 0-5 1.3-5 2.9 0 .9.7 1.7 1.8 1.7 1.9 0 2.1-2.4 6.2-2.4 1.8 0 3.3.4 5.2.9 8.9 2.7 13 11.2 13 19.4.2 4.2-1 7.4-1 7.4m-12.2-6.2c-2.4 0-4.3 1.8-4.3 3.9 0 1.8 1.1 3.2 2.5 3.2.5 0 1-.3 1-.9 0-.9-1.2-1.2-1.1-2.6.1-.9.9-1.5 1.8-1.5 1.7 0 2.5 1.7 2.5 3.4-.1 2.7-2 4.5-4.3 4.5-3 0-4.9-2.9-4.9-6 0-4.6 3-6.4 4.6-6.8 0 0 4.1.7 4-1.1-.1-.8-1.2-1.1-2.1-1.1-.9 0-1.9.3-1.9.3-.5-.3-.8-.7-1.1-1.3 2.9-2.2 5-4.4 5-6.8 0-1.3-.9-2.4-2.5-2.4-2.9 0-5.1 3.7-5.1 7.1 0 .6 0 1.1.1 1.6-1.9 1.4-3.2 2.2-5.7 3.7 0-.3.1-1.1.3-2.2.9-.9 2-2.3 2-3.4 0-.5-.3-.9-.9-.9-1.4 0-2.5 2.2-2.8 3.7-.6.8-1.9 1.8-3 1.8-.9 0-1.1-.8-1.2-1.1 2.7-.9 6.1-4.7 6.1-8 0-.7-.3-2.3-2.4-2.3-3.2 0-5.9 4.8-5.9 8.5-1.1 0-1.6-1.2-1.6-2.2 0-.9.4-1.9.4-2.2s-.1-.6-.6-.6c-1.1 0-1.7 1.4-1.7 3.1.1 2.3 1.6 3.7 3.6 3.9.3 1.4 1.5 2.7 3 2.7.9 0 2.1-.3 2.9-1-.1.5-.1.9-.2 1.4-3.1 1.6-5.4 2.8-7.5 4.7-1.6 1.5-2.6 3.5-2.6 5.1 0 2.2 1.4 4.2 4.1 4.2 3.3 0 5.8-2.7 7-6.3.6-1.7.8-4.2.9-6.5 3.3-1.9 4.8-2.9 6.5-4.2.2.4.4.6.7.9-1.5.8-5.1 3-5.1 8.3 0 3.7 2.5 7.9 7.4 7.9 4.1 0 6.8-3.4 6.8-6.6 0-3.1-1.6-5.9-4.7-5.9m-19.6 10.1c-1.1 0-1.8-.6-1.8-1.8 0-3.1 4.2-6 7.5-7.6-.6 4.3-2.1 9.2-5.7 9.4m2.3-17c0-2.4 2.3-6.9 3.7-6.4 1.7.6-1.3 5.2-3.7 6.4m13.5-1c0-2.9 2-5.8 3.1-5.3 1.2.6-1 3.4-3.1 5.3"/><path id="Fill-19" class="st4" d="M275.2 29v2.5c0 .2 0 .4-.1.6-.1.4-.3.7-.6.9-.3.2-.6.3-.9.5-.5.2-1 .4-1.6.5-.3.1-.6.1-1 .1-.5.1-.9 0-1.4 0-.4 0-.7 0-1.1-.1-.3 0-.6-.1-.9-.2-.9-.3-1.6-.7-2.3-1.3-.8-.7-1.3-1.5-1.8-2.5-.3-.7-.5-1.4-.6-2.1-.1-.3-.1-.7-.1-1-.1-.5 0-1 0-1.6 0-.3 0-.6.1-1l.3-1.5c.3-1 .7-2 1.4-2.8.5-.7 1.2-1.2 1.9-1.6.6-.3 1.2-.6 1.8-.7.4-.1.9-.2 1.3-.2h1.2c1.1.1 2.2.4 3.1 1 .1.1.2.1.4.2l.3.3c.1.1.1.1.1.2.1.2.1.4 0 .5s-.2.3-.3.3c-.2.1-.4.1-.6 0-.1-.1-.2-.1-.3-.2-.3-.2-.5-.3-.8-.5-.5-.2-1-.4-1.5-.5 0 .2-.2.2-.4.2h-1c-.6 0-1.1.2-1.6.4-.9.4-1.7 1-2.3 1.8s-.9 1.6-1.2 2.6c-.1.3-.1.7-.2 1v1.7c0 .9.2 1.7.4 2.5.3.9.8 1.7 1.5 2.4s1.6 1.1 2.5 1.3c.4.1.8.1 1.2.1h.5c.8 0 1.5-.2 2.2-.5.2-.1.4-.2.6-.2.3-.1.4-.3.4-.6V27.1c0-.2 0-.2-.3-.3h-3.4c-.3 0-.5-.2-.5-.5V26c0-.3.2-.5.5-.5h4.8c.2 0 .4.1.5.4v.4c-.2.9-.2 1.8-.2 2.7"/><path id="Fill-20" class="st4" d="M323.5 27.9v1.7c.1.5.2 1 .5 1.5.4.8 1.1 1.3 1.9 1.5.5.2 1 .2 1.5.1.8-.1 1.5-.5 2-1.1.4-.4.6-.9.8-1.4.3-.6.4-1.3.4-1.9v-1.6c0-.4-.1-.8-.2-1.2-.2-.6-.4-1.1-.8-1.6-.3-.3-.6-.5-.9-.7-.6-.3-1.2-.4-1.9-.4h-.3c-.5 0-1 .2-1.5.5-.7.5-1.2 1.2-1.4 2-.1.4-.2.8-.2 1.3.1.5.1.9.1 1.3zm-1.4 2.5v-8.1c.1-.2.2-.4.4-.4h.4c.3 0 .5.2.5.5v1s.1.1.1 0l.1-.1c.6-.8 1.4-1.3 2.4-1.5.2 0 .3-.1.5-.1h1.1c.9.1 1.7.4 2.4.9.5.4.9.9 1.2 1.4.3.6.5 1.2.7 1.8.1.5.2 1 .2 1.6v1.1c0 .5-.1 1.1-.2 1.6-.2.6-.4 1.2-.7 1.8-.4.6-.8 1.1-1.4 1.5-.5.3-1 .5-1.5.7-.5.1-1 .1-1.5.1s-.9-.1-1.4-.3-.9-.5-1.3-.9c-.1-.1-.2-.2-.3-.4l-.1-.1h-.1v6c0 .3-.2.5-.5.6h-.4c-.3-.1-.4-.2-.5-.5v-8.2h-.1z"/><path id="Fill-21" class="st4" d="M278.8 26v-6.3c0-.3 0-.6.1-.8 0-.1.1-.2.1-.2.2-.4.6-.7 1.1-.7h6.9c.3 0 .5.2.5.5v.4c0 .2-.1.4-.3.4-.1 0-.2.1-.3.1h-6.3c-.2 0-.4.2-.4.3v5.1c0 .1.1.1.2.2h6c.2 0 .3.1.4.3.1.2.1.4 0 .6s-.2.3-.4.3c-.1 0-.3.1-.4.1h-5.7s-.1 0-.1.1v5.8c0 .2.1.3.4.3h6.5c.3 0 .5.2.5.5v.2c0 .4-.3.5-.6.6h-6.7c-.2 0-.5 0-.7-.1-.4-.2-.6-.4-.7-.8 0-.2-.1-.3-.1-.5V26"/><path id="Fill-22" class="st4" d="M317.2 27.9v-1.1c0-.4 0-.7-.1-1.1s-.2-.7-.4-1.1c-.2-.3-.4-.6-.7-.9-.4-.3-.8-.6-1.3-.7-.2-.1-.4-.1-.6-.1h-.8c-.2 0-.4 0-.5.1-.7.2-1.3.6-1.8 1.2-.5.7-.8 1.5-.9 2.4-.1.4 0 .8-.1 1.1v.4c0 .6.1 1.1.2 1.7.2.6.4 1.2.8 1.7s1 .9 1.6 1c.5.1 1.1.2 1.6.1s1-.3 1.5-.6c.8-.6 1.2-1.3 1.4-2.2.1-.4.1-.7.1-1.1v-.8zm1.3 0v5.7c-.1.2-.3.4-.5.4h-.3c-.3 0-.5-.2-.5-.5v-1.3h-.1c-.1.1-.1.2-.2.2-.3.4-.6.8-1.1 1.1-.4.3-.9.5-1.4.6-.2 0-.4.1-.6.1h-.9c-.4 0-.7-.1-1.1-.2-.9-.3-1.5-.9-2.1-1.6-.4-.6-.7-1.3-.9-2.1-.1-.3-.1-.7-.2-1-.1-.6-.1-1.2-.1-1.8 0-.6.1-1.3.3-1.9.2-.7.5-1.4 1-2 .4-.6 1-1.1 1.7-1.4.4-.2.7-.3 1.1-.4.6-.1 1.1-.1 1.7 0 .8.1 1.5.4 2.1 1 .2.2.4.4.5.6 0 .1.1.1.1.2h.1v-1.1c0-.3.2-.5.5-.5h.4c.2 0 .4.2.5.4v5.5z"/><path id="Fill-23" class="st4" d="M355.4 27.9v-1.1c0-.3 0-.6-.1-.9-.1-.5-.2-1-.5-1.5-.2-.3-.4-.6-.7-.8-.6-.5-1.2-.7-1.9-.7h-.4c-.2 0-.4 0-.6.1-.8.2-1.4.6-1.8 1.2-.3.4-.6.9-.8 1.5-.2.6-.3 1.3-.3 1.9v1.1c0 .4.1.7.2 1.1.1.5.3 1.1.6 1.5.5.7 1.1 1.2 2 1.4.5.1 1 .1 1.5 0s.9-.2 1.3-.5c.7-.5 1.1-1.2 1.4-2 .1-.4.2-.8.2-1.2-.1-.3-.1-.7-.1-1.1zm1.4 0v5.6c0 .2-.1.4-.3.4-.2.1-.4.1-.5.1h-.1c-.3-.1-.4-.2-.4-.5v-1.2h-.1c0 .1-.1.1-.1.2-.2.2-.3.4-.5.6-.6.6-1.2.9-2 1.1-.3.1-.6.1-1 .1h-.5c-.5 0-1-.2-1.4-.4-.5-.2-1-.6-1.4-1s-.7-.9-.9-1.5c-.3-.6-.4-1.2-.5-1.9-.1-.7-.1-1.3-.1-2 0-.9.2-1.8.5-2.6.3-.7.6-1.3 1.2-1.8.6-.6 1.3-1 2.1-1.2.6-.1 1.2-.2 1.9-.1s1.3.3 1.9.7c.3.2.6.5.8.8.1.1.1.2.2.2.1-.1 0-.2 0-.3v-1c.1-.2.2-.3.4-.3h.4c.3 0 .5.2.5.5v5.5h-.1z"/><path id="Fill-24" class="st4" d="M301.6 34.1h-.7c-.3 0-.5-.1-.8-.1-.5-.1-.9-.3-1.4-.5-.4-.2-.8-.4-1.1-.7-.7-.6-1.2-1.2-1.6-2s-.7-1.7-.9-2.5c-.1-.4-.1-.9-.2-1.3v-1.2c0-.5 0-.9.1-1.4s.1-1 .3-1.4c.4-1.3 1-2.4 1.9-3.4.3-.4.7-.7 1.1-.9.7-.4 1.4-.7 2.2-.9.6-.1 1.3-.1 1.9-.1.7 0 1.4.2 2 .4.5.2 1 .4 1.4.8l.3.3c.1.1.1.2.2.2.2.3.1.5-.1.7-.2.3-.5.3-.8.1-.2-.1-.3-.2-.5-.3-.6-.4-1.3-.7-2-.8-.3 0-.5-.1-.8-.1h-.6c-.5 0-1 .1-1.4.2-.7.2-1.3.6-1.9 1.1-.8.8-1.3 1.8-1.7 2.9l-.3 1.2c0 .3-.1.6-.1.9v1.2c0 .5.1 1.1.2 1.6.1.7.4 1.4.7 2.1.4.7.8 1.3 1.4 1.8.7.6 1.5.9 2.5 1h.5c1.1 0 2.2-.3 3.1-.9.3-.2.5-.4.8-.6.1 0 .1-.1.2-.1s.2-.1.2-.1c.3-.1.7 0 .7.4 0 .2 0 .4-.2.6-.1.1-.2.3-.4.4-.7.6-1.6 1.1-2.5 1.3-.3.1-.6.2-.9.2-.2-.1-.5-.1-.8-.1"/><path id="Fill-25" class="st4" d="M340.7 27.4v-4.2c0-.1-.1-.1-.1-.1h-1.2c-.1 0-.3 0-.4-.1-.2-.1-.3-.2-.3-.4v-.4c0-.3.2-.4.5-.5h1.3c.1 0 .2-.1.2-.2v-2.8c0-.3.2-.4.4-.5h.6l.3.3c0 .1.1.3.1.4v2.6c0 .1 0 .1.1.1h2.1c.1 0 .2 0 .3.1.1.1.2.2.2.3v.4c0 .2-.1.3-.3.4-.1 0-.3.1-.4.1h-1.8c-.2 0-.2 0-.2.2v7.5c0 .4 0 .7.2 1.1.1.3.3.6.6.7.3.1.6.2.9.1.2 0 .3-.1.5-.1.1 0 .2-.1.3-.1 0 0 .1 0 .1-.1.4-.1.6 0 .7.3.1.2.1.4-.1.6-.1.1-.2.2-.3.2-.2.2-.5.3-.8.3-.3.1-.6.1-.9.1s-.6 0-.9-.1c-.7-.2-1.2-.6-1.5-1.3-.2-.4-.3-.9-.3-1.3v-.9c.1-.7.1-1.7.1-2.7"/><path id="Fill-26" class="st4" d="M360.4 25v-8.4c0-.2.1-.3.3-.4.2-.1.5-.1.7 0s.3.2.3.4v16.9c0 .3-.2.4-.4.5-.2.1-.4 0-.6 0-.2-.1-.3-.2-.3-.4V25"/><path id="Fill-27" class="st4" d="M336.4 27.9v5.6c0 .3-.2.5-.5.5h-.3c-.2 0-.4-.1-.4-.3 0-.1 0-.2-.1-.3V22.3c0-.1.1-.3.2-.4s.2-.1.3-.1h.4c.3 0 .4.2.5.5v2.8c-.1.9-.1 1.9-.1 2.8"/><path id="Fill-28" class="st4" d="M335.7 18.7c-.5 0-.9-.4-.9-.9s.4-1 .9-.9c.5 0 .9.4.9.9.1.6-.4 1-.9.9"/></g></svg>